<?xml version="1.0" encoding="utf-8"?>
<!-- Generator: Adobe Illustrator 19.1.0, SVG Export Plug-In . SVG Version: 6.00 Build 0)  -->
<svg version="1.1" id="Layer_1" xmlns="http://www.w3.org/2000/svg" xmlns:xlink="http://www.w3.org/1999/xlink" x="0px" y="0px"
	 viewBox="0 0 254 67.1" style="enable-background:new 0 0 254 67.1;" xml:space="preserve">
<style type="text/css">
	.st0{fill:#231F20;}
	.st1{fill:#FF6600;}
	.st2{fill:#0078B2;}
</style>
<g>
	<path class="st0" d="M76.2,5.5c0.7,0.1,1.4,0.2,2.2,0.3c0.8,0.1,1.5,0.2,2.2,0.3c0.7,0.1,1.3,0.2,1.8,0.3C83,6.6,83.5,6.8,84,7.2
		c0.4,0.3,0.8,0.8,1,1.3c0.2,0.6,0.4,1.3,0.4,2.3c0.1,1.8,0.1,4.6,0,8.4c0,3.7,0,8.4,0,13.9c0,1.6,0,3.3,0,5.2c0,1.8,0,3.6,0,5.4
		c0,1.8,0,3.5,0,5.1c0,1.6,0,3-0.1,4.2c0,1.2-0.1,2.2-0.1,2.8c-0.1,1.2-0.3,2.1-0.5,2.8c-0.3,0.6-0.6,1.1-1.1,1.4
		c-0.5,0.3-1.1,0.5-2,0.7c-0.6,0.2-1.3,0.3-2.2,0.4c-0.9,0.1-1.8,0.2-2.7,0.3c-0.9,0.1-1.6,0.1-2.2,0.2c-0.2,0.1-0.3,0.4-0.3,0.8
		c-0.1,0.4-0.1,0.8-0.1,1.3c0,0.5,0.1,0.9,0.2,1.3c0.1,0.4,0.3,0.6,0.4,0.7c1.4,0,3,0,4.8,0c1.8,0,3.7,0.1,5.7,0.1
		c2,0,3.9,0.1,5.8,0.1c1.9,0.1,3.6,0.1,5.2,0.1c1.6,0,2.8,0.1,3.7,0.1c3,0,6-0.2,8.9-0.6c2.9-0.4,5.5-1.2,7.9-2.2
		c2.6-1.2,5-2.6,7-4.2c2-1.7,3.5-3.6,4.7-5.8c1.1-2.3,1.7-4.8,1.7-7.8c0-2.3-0.4-4.3-1.2-6c-0.8-1.7-1.8-3.2-3.1-4.5
		c-1.3-1.3-2.8-2.3-4.5-3.2c-1.7-0.9-3.5-1.5-5.4-2c-0.2-0.1-0.2-0.1-0.2-0.2s0.1-0.2,0.2-0.2c1.8-0.8,3.4-1.8,4.8-3
		c1.4-1.3,2.5-2.7,3.3-4.4c0.8-1.7,1.2-3.5,1.3-5.4c0-2.4-0.4-4.4-1.2-6.1c-0.8-1.7-1.8-3.1-3.1-4.2c-1.3-1.1-2.8-2-4.4-2.6
		c-1.6-0.6-3.3-1.1-5-1.4c-1.7-0.3-3.4-0.4-5-0.4c-2.1,0-4.1,0-6.1,0.1c-2,0-3.9,0.1-5.9,0.1c-2,0-4.1,0.1-6.2,0.1
		c-3.5,0-6.3-0.1-8.3-0.2c-2-0.1-3.3-0.1-3.8-0.2c-0.1,0.1-0.2,0.4-0.3,0.7c-0.1,0.4-0.1,0.8-0.1,1.2c0,0.4,0,0.9,0.1,1.2
		C76,5.1,76.1,5.4,76.2,5.5L76.2,5.5z M100,6.4c3.1,0,5.7,0.4,8,1.2c2.3,0.8,4.1,2.1,5.3,3.9c1.3,1.8,1.9,4.2,1.9,7.2
		c0,1.3-0.2,2.5-0.5,3.7c-0.4,1.2-0.9,2.2-1.6,3.2c-0.7,0.9-1.6,1.7-2.7,2.2c-0.6,0.3-1.5,0.6-2.7,0.8c-1.2,0.2-2.8,0.3-4.7,0.3
		c-0.9,0-1.9,0-2.9,0c-1,0-1.8,0-2.6-0.1c-0.8,0-1.4-0.1-1.9-0.1c-0.1,0-0.2-0.1-0.3-0.2c-0.1-0.1-0.2-0.2-0.2-0.3
		c0-1.7,0-3.5,0-5.4c0-1.9,0-3.8,0.1-5.7c0-1.9,0-3.6,0.1-5.1c0-1.6,0-2.8,0.1-3.7c0-0.2,0.1-0.4,0.2-0.6c0.1-0.2,0.2-0.5,0.3-0.6
		c0.2-0.2,0.3-0.3,0.4-0.4c0.5-0.1,0.9-0.1,1.4-0.2c0.5,0,0.9,0,1.3-0.1C99.4,6.4,99.7,6.4,100,6.4L100,6.4z M106.2,61
		c-0.9,0-1.8,0-2.8-0.1c-1-0.1-2-0.2-2.9-0.3c-0.9-0.2-1.6-0.4-2.2-0.7c-0.5-0.3-1-0.6-1.4-1.2c-0.4-0.5-0.8-1.1-1.1-1.8
		c-0.3-0.7-0.4-1.3-0.5-1.9c-0.1-1.1-0.1-2.4-0.2-4.1c0-1.7-0.1-3.5-0.1-5.5c0-2,0-4,0-5.9c0-2,0-3.8,0-5.4c0-0.1,0.1-0.2,0.2-0.3
		c0.1-0.1,0.3-0.2,0.4-0.2c0.2-0.1,0.6-0.1,1.1-0.1c0.5,0,1.1,0,1.6,0c0.6,0,1.1,0,1.6,0c0.5,0,0.8,0,0.9,0c6,0,10.6,1.2,13.8,3.7
		c3.2,2.4,4.8,5.9,4.8,10.5c0,2.4-0.4,4.4-1.1,6.1c-0.7,1.7-1.7,3.1-2.9,4.2c-1.2,1.1-2.6,1.9-4.2,2.4C109.7,60.7,108,61,106.2,61
		L106.2,61z M138.4,5.5c1.5,0.2,2.8,0.4,3.9,0.6c1.1,0.2,2.1,0.4,3,0.6c0.7,0.2,1.2,0.5,1.6,0.8c0.4,0.4,0.6,0.8,0.8,1.4
		c0.2,0.6,0.3,1.3,0.3,2.3c0.1,1.6,0.2,3.3,0.2,5.2c0,1.9,0,4,0,6.3c0,2.3,0,4.9,0,7.8c0,4.2,0,7.8,0,10.7c0,3,0,5.4,0,7.4
		c0,2,0,3.6-0.1,4.8c-0.1,1.2-0.1,2.2-0.2,2.9c-0.1,0.7-0.2,1.3-0.4,1.8c-0.2,0.5-0.6,1-1.1,1.4c-0.5,0.4-1.3,0.8-2.4,1
		c-0.5,0.1-1,0.2-1.6,0.3c-0.5,0.1-1.1,0.2-1.8,0.3c-0.7,0.1-1.5,0.2-2.4,0.3c-0.1,0.1-0.2,0.4-0.3,0.8c-0.1,0.4-0.1,0.8-0.1,1.3
		c0,0.5,0.1,0.9,0.1,1.3c0.1,0.4,0.2,0.6,0.3,0.7c0.5,0,1.3,0,2.3-0.1c1.1,0,2.4-0.1,3.8-0.1c1.5,0,3-0.1,4.6-0.1
		c1.6,0,3.2-0.1,4.7-0.1c1.4,0,2.8,0,4.3,0.1c1.5,0,3,0.1,4.4,0.1c1.4,0,2.7,0.1,3.8,0.1c1.1,0,2,0.1,2.5,0.1
		c0.1-0.1,0.2-0.4,0.3-0.8c0.1-0.4,0.2-0.8,0.2-1.3c0.1-0.5,0.1-0.9,0-1.3c0-0.4-0.1-0.6-0.2-0.8c-1.5-0.2-2.8-0.4-4-0.6
		c-1.1-0.2-2.1-0.4-2.9-0.5c-1.1-0.3-1.9-0.6-2.4-1.1c-0.5-0.4-0.9-1-1.1-1.7c-0.2-0.7-0.3-1.6-0.3-2.6c-0.1-0.9-0.1-2.2-0.1-3.7
		c0-1.6-0.1-3.4-0.1-5.4c0-2,0-4.2-0.1-6.5c0-2.3,0-4.7,0-7.1c0-4.5,0-8.6,0-12.1s0.1-6.5,0.2-8.7c0.1-1,0.2-1.9,0.3-2.5
		c0.2-0.6,0.5-1.2,0.9-1.6c0.4-0.4,1-0.7,1.8-0.9c0.7-0.2,1.6-0.4,2.5-0.5c1-0.1,2.2-0.3,3.5-0.4c0.2-0.3,0.3-0.7,0.3-1.2
		c0-0.6,0-1.1,0-1.6c-0.1-0.5-0.2-0.9-0.3-1.1c-1,0-2.2,0-3.8,0.1c-1.6,0-3.3,0.1-5.2,0.1c-1.9,0.1-3.8,0.1-5.6,0.1
		c-1.4,0-2.8,0-4.2-0.1c-1.4,0-2.8-0.1-4.1-0.1c-1.3,0-2.5-0.1-3.5-0.1c-1,0-1.8-0.1-2.3-0.1c-0.1,0.1-0.2,0.4-0.3,0.8
		c-0.1,0.4-0.1,0.8-0.1,1.2c0,0.4,0,0.9,0,1.2C138.2,5.1,138.3,5.4,138.4,5.5L138.4,5.5z M238.6,60.4c-0.8-0.4-1.5-0.8-1.9-1.1
		c-0.4-0.3-0.7-0.6-0.9-1c-0.1-0.3-0.2-0.7-0.2-1.1c0-0.4,0-1,0-1.9c0-0.9,0-1.9,0-3c0-1.1,0-2.2,0-3.3c0-1.1,0-2,0-2.7
		c0-1.3,0.2-2.3,0.6-3c0.4-0.7,1.1-1.2,2.1-1.5c0.5-0.2,1.1-0.3,1.7-0.4c0.6-0.1,1.2-0.2,1.7-0.3c0.1-0.1,0.2-0.3,0.2-0.7
		c0.1-0.4,0.1-0.8,0.1-1.3c0-0.5,0-0.9,0-1.3c-0.1-0.4-0.1-0.7-0.2-0.8c-0.6,0-1.4,0.1-2.5,0.1c-1,0.1-2.4,0.1-4,0.1
		c-1.7,0-3.7,0.1-6.1,0.1c-3.8,0-7.1-0.1-9.7-0.2c-2.6-0.1-4.6-0.1-5.9-0.2c-0.1,0.1-0.2,0.3-0.3,0.7c-0.1,0.4-0.2,0.8-0.2,1.3
		c0,0.5,0,0.9,0,1.3c0.1,0.4,0.2,0.6,0.3,0.8c1.8,0.3,3.5,0.5,4.9,0.7c1.4,0.2,2.5,0.4,3.4,0.6c1,0.3,1.7,0.7,2.2,1.2
		c0.5,0.5,0.9,1,1.1,1.7c0.2,0.7,0.3,1.5,0.3,2.5c0,1.2,0,2.3,0,3.3c0,1,0,2,0,3c0,1-0.1,2-0.2,3.1c0,0.4-0.1,0.8-0.3,1.3
		c-0.2,0.5-0.4,1-0.6,1.5c-0.3,0.5-0.6,0.9-1,1.1c-0.7,0.5-1.5,0.9-2.6,1.1c-1.1,0.2-2.3,0.3-3.8,0.3c-4.7,0-8.7-0.8-12.2-2.4
		c-3.5-1.5-6.4-3.7-8.7-6.5c-2.3-2.8-4.1-6-5.2-9.8c-1.1-3.7-1.7-7.8-1.7-12.2c0-4,0.5-7.6,1.4-10.9c0.9-3.3,2.3-6.2,4.2-8.6
		c1.9-2.4,4.2-4.3,7.1-5.6c2.9-1.3,6.2-2,10.1-2c2.3,0,4.3,0.1,6,0.4c1.7,0.2,3.2,0.6,4.5,1c1.3,0.4,2.4,1,3.4,1.6
		c1,0.6,1.8,1.3,2.4,2.4c0.6,1,1.1,2.4,1.6,4c0.4,1.7,0.8,3.8,1,6.3c0.2,0.1,0.4,0.2,0.9,0.2c0.5,0,1,0,1.5,0c0.5-0.1,1-0.1,1.5-0.2
		c0.4-0.1,0.7-0.2,0.8-0.4c0-1.1,0.1-2.4,0.2-3.9c0.1-1.5,0.3-3.1,0.5-4.7c0.2-1.7,0.4-3.2,0.6-4.8c0.2-1.5,0.4-2.9,0.6-4.1
		c-1.7-0.2-3.4-0.4-5-0.6c-1.6-0.3-3.2-0.5-4.9-0.8c-1.7-0.3-3.4-0.5-5.3-0.7c-1.9-0.2-3.9-0.3-6.2-0.3c-3.9,0-7.6,0.3-10.9,0.9
		c-3.4,0.6-6.5,1.6-9.3,3c-3.8,1.7-7.1,4-9.9,6.8c-2.7,2.8-4.9,6.1-6.3,9.9c-1.5,3.8-2.2,8-2.2,12.7c0,5.2,0.8,9.9,2.4,14.1
		c1.6,4.1,3.9,7.7,7.1,10.6c3.2,2.9,7.1,5.2,11.8,6.7c4.7,1.5,10.2,2.3,16.4,2.3c2.3,0,4.6-0.2,6.9-0.4c2.3-0.3,4.5-0.6,6.6-1.1
		c2.1-0.4,4-0.9,5.6-1.3c1.7-0.5,3-0.9,4-1.2c0.1-0.1,0.2-0.4,0.3-0.8c0.1-0.4,0.1-0.8,0.2-1.2C238.6,60.7,238.6,60.5,238.6,60.4z"
		/>
	<path class="st0" d="M214.4,23.2c0.2,0,0.4,0,0.6,0.1c0.2,0,0.4,0.1,0.6,0.1c0.1,0,0.3,0.1,0.3,0.2c0.1,0.1,0.1,0.2,0.1,0.3
		c0,0.1,0,0.3,0,0.5c0,0.3,0,0.8,0,1.4c0,0.6,0,1.5,0,2.5c0,0.5,0,0.9,0,1.4c0,0.5,0,0.9,0,1.2c0,0.4,0,0.7,0,1c0,0.3,0,0.4,0,0.5
		c0,0.2,0,0.4-0.1,0.6c0,0.2-0.1,0.3-0.2,0.4c-0.1,0.1-0.2,0.2-0.4,0.2c-0.1,0-0.2,0.1-0.3,0.1c-0.1,0-0.2,0.1-0.3,0.1
		c-0.1,0-0.3,0-0.4,0.1c0,0-0.1,0.1-0.1,0.2c0,0.1,0,0.2,0,0.3c0,0.1,0,0.2,0,0.3c0,0.1,0,0.2,0.1,0.2c0.2,0,0.5,0,1.1,0
		c0.5,0,1.2,0,2.1,0c0.7,0,1.3,0,1.8,0c0.5,0,0.9,0,1.1,0c0.3,0,0.5,0,0.6,0c0,0,0.1-0.1,0.1-0.2c0-0.1,0-0.2,0.1-0.3
		c0-0.1,0-0.2,0-0.3c0-0.1,0-0.2-0.1-0.2c-0.2,0-0.3-0.1-0.5-0.1c-0.2,0-0.3-0.1-0.5-0.1c-0.1,0-0.3-0.1-0.4-0.1
		c-0.2-0.1-0.3-0.1-0.4-0.2c-0.1-0.1-0.1-0.2-0.2-0.4c0-0.1,0-0.3,0-0.5c0-0.4,0-0.8,0-1.4c0-0.5,0-1.1,0-1.8c0,0,0,0,0-0.1
		c0,0,0,0,0-0.1c0,0,0.1,0,0.1,0c0.1,0,0.2,0,0.3,0c0.2,0,0.4,0,0.7,0c0.3,0,0.8,0,1.3,0c0.3,0,0.6,0,0.9,0s0.6,0,0.8,0
		c0.3,0,0.4,0,0.6,0c0,0,0.1,0,0.1,0c0,0,0,0.1,0,0.1c0,0.7,0,1.3,0,1.9c0,0.6,0,1.1,0,1.6c0,0.2-0.1,0.4-0.1,0.6
		c-0.1,0.1-0.2,0.2-0.3,0.3c-0.2,0.1-0.3,0.1-0.5,0.1c-0.2,0-0.4,0.1-0.6,0.1c0,0-0.1,0.1-0.1,0.2c0,0.1,0,0.2,0,0.3
		c0,0.1,0,0.2,0,0.3c0,0.1,0,0.1,0.1,0.2c0.2,0,0.6,0,1.1,0c0.5,0,1.3,0,2.1,0c0.9,0,1.6,0,2.2,0c0.5,0,0.9,0,1.2,0
		c0,0,0.1-0.1,0.1-0.2c0-0.1,0-0.2,0.1-0.3c0-0.1,0-0.2,0-0.3c0-0.1,0-0.2,0-0.2c-0.4-0.1-0.7-0.1-0.9-0.2c-0.2,0-0.4-0.1-0.5-0.2
		c-0.1-0.1-0.2-0.1-0.3-0.2c-0.1-0.1-0.1-0.2-0.1-0.3c0-0.1,0-0.2,0-0.4c0-0.2,0-0.5,0-0.8c0-0.3,0-0.6,0-1c0-0.4,0-0.7,0-1.1
		c0-0.4,0-0.7,0-1.1c0-0.4,0-0.8,0-1.2c0-0.4,0-0.7,0-1c0-0.3,0-0.6,0-0.9c0-0.3,0-0.6,0-1c0-0.2,0-0.4,0-0.5c0-0.1,0.1-0.3,0.1-0.3
		c0.1-0.1,0.2-0.2,0.3-0.2c0.1,0,0.2-0.1,0.3-0.1c0.1,0,0.3-0.1,0.4-0.1c0.1,0,0.3,0,0.4-0.1c0,0,0.1-0.1,0.1-0.2c0-0.1,0-0.2,0-0.3
		c0-0.1,0-0.2,0-0.3c0-0.1,0-0.2-0.1-0.2c-0.2,0-0.4,0-0.6,0c-0.2,0-0.4,0-0.6,0c-0.2,0-0.5,0-0.8,0c-0.3,0-0.7,0-1.2,0
		c-0.4,0-0.8,0-1.1,0c-0.3,0-0.6,0-0.8,0c-0.2,0-0.5,0-0.7,0c-0.2,0-0.5,0-0.7,0c0,0-0.1,0.1-0.1,0.2c0,0.1,0,0.2,0,0.3
		c0,0.1,0,0.2,0,0.3c0,0.1,0,0.2,0.1,0.2c0.3,0,0.6,0.1,0.8,0.1c0.2,0,0.4,0.1,0.5,0.2c0.1,0,0.2,0.1,0.2,0.2
		c0.1,0.1,0.1,0.2,0.1,0.3c0,0.1,0,0.2,0,0.3c0,0.6,0,1.2,0,1.7c0,0.5,0,1.1,0,1.6c0,0,0,0,0,0.1c0,0-0.1,0-0.1,0.1
		c-0.1,0-0.2,0-0.3,0c-0.2,0-0.4,0-0.7,0c-0.3,0-0.7,0-1.2,0c-0.5,0-0.9,0-1.2,0s-0.6,0-0.7,0c-0.2,0-0.3,0-0.4,0
		c-0.1,0-0.1,0-0.2,0c0,0,0,0-0.1-0.1c0,0,0-0.1-0.1-0.1c0-0.6,0-1.1,0-1.6c0-0.5,0-1,0-1.4c0-0.2,0-0.3,0-0.4
		c0-0.1,0.1-0.2,0.1-0.3c0.1-0.1,0.2-0.2,0.3-0.2c0.1,0,0.2-0.1,0.3-0.1c0.1,0,0.2,0,0.4-0.1c0.1,0,0.3,0,0.4-0.1
		c0,0,0.1-0.1,0.1-0.2c0-0.1,0-0.2,0-0.3c0-0.1,0-0.2,0-0.3c0-0.1,0-0.2-0.1-0.2c-0.2,0-0.6,0-1.1,0c-0.5,0-1.2,0-2.1,0
		c-0.5,0-0.9,0-1.2,0c-0.3,0-0.6,0-0.9,0c-0.2,0-0.4,0-0.6,0c-0.2,0-0.3,0-0.4,0c0,0,0,0.1-0.1,0.2c0,0.1,0,0.2,0,0.3
		c0,0.1,0,0.2,0,0.3C214.3,23.1,214.4,23.1,214.4,23.2L214.4,23.2z M235.4,29.3c0,0,0,0.1,0,0.1c0,0,0,0.1,0,0.1c0,0,0,0.1-0.1,0.1
		c0,0-0.1,0.1-0.1,0.1c-0.1,0.1-0.3,0.1-0.6,0.2c-0.3,0.1-0.6,0.2-0.9,0.3c-0.3,0.1-0.7,0.2-1,0.3c-0.3,0.1-0.7,0.2-0.9,0.3
		c-0.3,0.1-0.5,0.2-0.7,0.3c0,0.1-0.1,0.2-0.1,0.3c0,0.1-0.1,0.3-0.1,0.4c0,0.1-0.1,0.3-0.1,0.4c0,0.1,0,0.2,0,0.3
		c0,0.4,0.1,0.8,0.2,1.2c0.1,0.4,0.4,0.7,0.6,0.9c0.2,0.2,0.4,0.3,0.6,0.4c0.2,0.1,0.4,0.1,0.7,0.1c0.1,0,0.2,0,0.4-0.1
		c0.2,0,0.4-0.1,0.6-0.2c0.2-0.1,0.5-0.2,0.7-0.3c0.3-0.1,0.5-0.3,0.8-0.4c0,0,0,0,0.1,0c0,0,0,0,0,0c0,0.1,0,0.1,0.1,0.2
		c0,0.1,0,0.1,0.1,0.2c0.1,0.2,0.2,0.3,0.4,0.4c0.2,0.1,0.5,0.2,0.8,0.2c0.1,0,0.3,0,0.5-0.1c0.2,0,0.4-0.1,0.7-0.2
		c0.2-0.1,0.4-0.1,0.7-0.2c0.2-0.1,0.4-0.2,0.5-0.3c0,0,0-0.1,0.1-0.2c0-0.1,0-0.2,0.1-0.3c0-0.1,0-0.2,0-0.3c0-0.1,0-0.2,0-0.2
		c-0.1,0-0.3,0.1-0.4,0.1c-0.1,0-0.2,0-0.4,0c-0.2,0-0.3-0.1-0.4-0.2c-0.1-0.1-0.1-0.3-0.1-0.5c0-0.2,0-0.5,0-0.7c0-0.3,0-0.6,0-0.9
		c0-0.3,0-0.6,0-0.9c0-0.3,0-0.6,0-0.8c0-0.4,0-0.7-0.1-1.1c-0.1-0.3-0.2-0.7-0.5-1c-0.2-0.3-0.4-0.5-0.6-0.7
		c-0.3-0.2-0.5-0.3-0.9-0.5c-0.3-0.1-0.7-0.2-1-0.2c-0.2,0-0.4,0-0.7,0.1c-0.3,0.1-0.6,0.2-0.9,0.3c-0.3,0.1-0.6,0.3-1,0.4
		c-0.3,0.2-0.6,0.3-0.9,0.5c0,0-0.1,0.1-0.1,0.3c0,0.1-0.1,0.3-0.1,0.5c0,0.2-0.1,0.3-0.1,0.5c0,0.1,0,0.2-0.1,0.3
		c0,0,0,0.1,0.1,0.2c0.1,0.1,0.2,0.1,0.3,0.2c0.1,0,0.2,0.1,0.4,0.1c0.1,0,0.2,0,0.2,0c0-0.1,0.1-0.2,0.1-0.3
		c0.1-0.1,0.1-0.3,0.2-0.4c0.1-0.1,0.1-0.3,0.2-0.4c0.1-0.1,0.1-0.2,0.2-0.3c0.1-0.1,0.2-0.2,0.4-0.2c0.2-0.1,0.4-0.1,0.5-0.1
		c0.3,0,0.6,0,0.8,0.1c0.2,0.1,0.4,0.2,0.6,0.4c0.1,0.2,0.2,0.3,0.2,0.5C235.4,28.9,235.4,29.1,235.4,29.3L235.4,29.3z M235.4,30.7
		c0,0.1,0,0.2,0,0.4c0,0.2,0,0.3,0,0.5c0,0.2,0,0.4,0,0.6c0,0.2,0,0.4,0,0.6c0,0.1,0,0.2,0,0.2c0,0.1-0.1,0.1-0.1,0.1
		c-0.1,0.1-0.2,0.1-0.2,0.1c-0.1,0-0.2,0-0.3,0c-0.2,0-0.4,0-0.6-0.1c-0.2-0.1-0.4-0.2-0.5-0.4c-0.1-0.2-0.2-0.5-0.2-0.8
		c0,0,0-0.1,0-0.2c0-0.1,0-0.2,0.1-0.2c0-0.1,0-0.1,0.1-0.1c0.1-0.1,0.2-0.1,0.3-0.2c0.2-0.1,0.3-0.1,0.5-0.2
		c0.2-0.1,0.4-0.1,0.5-0.2c0.2-0.1,0.3-0.1,0.4-0.2C235.3,30.6,235.3,30.6,235.4,30.7C235.4,30.7,235.4,30.7,235.4,30.7L235.4,30.7z
		 M240,34.8c0.2,0,0.5,0,0.9,0c0.4,0,0.9,0,1.5,0c0.6,0,1.1,0,1.5,0c0.4,0,0.7,0,0.9,0c0.2,0,0.4,0,0.5,0c0-0.1,0.1-0.2,0.1-0.3
		s0.1-0.3,0.1-0.4c0-0.1,0-0.2,0-0.3c-0.2,0-0.3-0.1-0.5-0.1c-0.1,0-0.2-0.1-0.4-0.1c-0.1,0-0.2-0.1-0.3-0.1
		c-0.1-0.1-0.1-0.1-0.1-0.2c0-0.1,0-0.2-0.1-0.4c0-0.2,0-0.5,0-0.8c0-0.3,0-0.6,0-1c0-0.4,0-0.7,0-1.1c0-0.4,0-0.7,0-1.1
		c0-0.4,0-0.8,0-1.3c0-0.4,0-0.9,0-1.3c0-0.4,0-0.9,0-1.3c0-0.4,0-0.8,0-1.1c0-0.3,0-0.6,0-0.8c0-0.3,0-0.5,0.1-0.8
		c0-0.3,0.1-0.5,0.2-0.7c0,0,0-0.1,0-0.2c0-0.1,0-0.1-0.1-0.2c0-0.1-0.1-0.1-0.1-0.1c-0.1,0.1-0.4,0.1-0.6,0.2
		c-0.3,0.1-0.6,0.1-0.9,0.2c-0.3,0.1-0.7,0.1-1,0.2c-0.3,0.1-0.7,0.1-1,0.1c-0.3,0-0.6,0.1-0.8,0.1c0,0-0.1,0.1-0.1,0.2
		c0,0.1,0,0.2,0,0.3c0,0.1,0,0.2,0,0.3c0,0.1,0,0.1,0.1,0.2c0.1,0,0.2,0,0.4,0.1c0.1,0,0.3,0,0.4,0.1c0.1,0,0.2,0.1,0.3,0.1
		c0.1,0,0.2,0.1,0.2,0.2c0.1,0.1,0.1,0.2,0.1,0.3c0,0.2,0,0.4,0,0.6c0,0.2,0,0.4,0,0.7c0,0.2,0,0.5,0,0.9c0,0.3,0,0.7,0,1.1
		c0,0.4,0,0.9,0,1.5c0,0.3,0,0.5,0,0.9c0,0.3,0,0.7,0,1c0,0.3,0,0.7,0,1c0,0.3,0,0.6,0,0.8c0,0.2,0,0.4,0,0.5c0,0.1,0,0.3,0,0.4
		c0,0.1-0.1,0.3-0.1,0.4c0,0.1-0.1,0.2-0.2,0.2c-0.2,0.1-0.3,0.1-0.5,0.1c-0.1,0-0.3,0.1-0.4,0.1c0,0,0,0.1-0.1,0.2
		c0,0.1,0,0.2,0,0.3c0,0.1,0,0.2,0,0.3C239.9,34.7,240,34.8,240,34.8L240,34.8z M246.1,33.8c0,0-0.1,0.1-0.1,0.2c0,0.1,0,0.2,0,0.3
		c0,0.1,0,0.2,0,0.3c0,0.1,0,0.2,0.1,0.2c0.1,0,0.3,0,0.5,0c0.2,0,0.5,0,0.8,0c0.3,0,0.7,0,1.1,0c0.6,0,1,0,1.4,0c0.4,0,0.7,0,1,0
		c0.2,0,0.4,0,0.6,0c0.1,0,0.3,0,0.3,0c0,0,0.1-0.1,0.1-0.2c0-0.1,0-0.2,0.1-0.3c0-0.1,0-0.2,0-0.3c0-0.1,0-0.2,0-0.2
		c-0.3,0-0.5-0.1-0.7-0.1c-0.2,0-0.4-0.1-0.5-0.1c-0.2-0.1-0.3-0.2-0.4-0.3c-0.1-0.1-0.1-0.3-0.1-0.5c0-0.4,0-0.9,0-1.4
		c0-0.5,0-1.1,0-1.7c0-0.6,0-1.2,0-1.8c0,0,0-0.1,0-0.1c0,0,0.1,0,0.1,0l1.9,0c0-0.1,0-0.3,0.1-0.5c0-0.2,0.1-0.4,0.1-0.6
		c0-0.2,0.1-0.4,0.1-0.5c-0.1,0-0.2,0-0.3,0c-0.1,0-0.2,0-0.4,0c-0.2,0-0.3,0-0.6,0c-0.2,0-0.5,0-0.8,0c0,0-0.1,0-0.1-0.1
		c0,0-0.1-0.1-0.1-0.1c0-0.1,0-0.3,0-0.5c0-0.2,0-0.4,0-0.7c0-0.5,0-0.9,0-1.3c0-0.3,0.1-0.6,0.2-0.8c0.1-0.1,0.2-0.2,0.2-0.2
		c0.1,0,0.2-0.1,0.3-0.1c0.1,0,0.3,0.1,0.5,0.2c0.2,0.1,0.4,0.3,0.6,0.5c0.2,0.2,0.4,0.4,0.6,0.6c0,0,0.1,0,0.1,0c0.1,0,0.1,0,0.2,0
		c0.1,0,0.1,0,0.1,0c0.1,0,0.2-0.1,0.3-0.3c0.1-0.1,0.2-0.3,0.3-0.4c0.1-0.2,0.2-0.3,0.3-0.5c0.1-0.2,0.1-0.3,0.2-0.4
		c0,0,0-0.1,0-0.1c0-0.1,0-0.1,0-0.2c0-0.1,0-0.1,0-0.1c-0.2-0.2-0.4-0.4-0.7-0.5c-0.3-0.1-0.7-0.2-1.1-0.2c-0.2,0-0.5,0-0.8,0.1
		c-0.3,0.1-0.6,0.2-0.9,0.3c-0.3,0.1-0.6,0.3-0.9,0.5c-0.5,0.3-0.8,0.7-1.2,1.1c-0.3,0.4-0.6,0.8-0.8,1.4c-0.2,0.5-0.3,1.1-0.3,1.7
		c0,0,0,0,0,0.1c0,0,0,0.1-0.1,0.1c-0.1,0-0.2,0.1-0.3,0.2c-0.1,0.1-0.2,0.1-0.3,0.2c-0.1,0-0.2,0.1-0.3,0.1c0,0.1-0.1,0.1-0.1,0.3
		c0,0.1-0.1,0.2-0.1,0.4c0,0.1,0,0.2,0,0.3l1.1,0.1c0,0,0.1,0,0.1,0.1c0,0,0,0.1,0,0.1c0,0.9,0,1.7,0,2.6c0,0.9,0,1.7,0,2.5
		c0,0.2,0,0.3-0.1,0.4c-0.1,0.1-0.2,0.2-0.3,0.2c-0.1,0-0.2,0.1-0.4,0.1C246.4,33.8,246.2,33.8,246.1,33.8z"/>
</g>
<g>
	<g>
		<g>
			<rect class="st1" width="33.1" height="33.1"/>
		</g>
		<g>
			<rect x="33.9" y="33.8" class="st1" width="33.1" height="33.1"/>
		</g>
		<rect x="33.9" class="st2" width="33.1" height="33.1"/>
		<rect y="33.8" class="st2" width="33.1" height="33.1"/>
	</g>
</g>
</svg>
