<?xml version="1.0" encoding="utf-8"?>
<!-- Generator: Adobe Illustrator 15.1.0, SVG Export Plug-In . SVG Version: 6.00 Build 0)  -->
<!DOCTYPE svg PUBLIC "-//W3C//DTD SVG 1.1//EN" "http://www.w3.org/Graphics/SVG/1.1/DTD/svg11.dtd">
<svg version="1.1" id="Layer_1" xmlns="http://www.w3.org/2000/svg" xmlns:xlink="http://www.w3.org/1999/xlink" x="0px" y="0px"
	 width="108px" height="146px" viewBox="0 0 108 146" enable-background="new 0 0 108 146" xml:space="preserve">
<g>
	<path fill="#FFFFFF" d="M25.004,139.752V14.848H55.46v-4.461H25.004H2.7v133.826h22.305H105.3V61.3h-4.462v78.452H25.004
		L25.004,139.752z M20.543,14.848v124.904H7.161V14.848H20.543z"/>
	<path fill="#FFFFFF" d="M36.157,90.683v31.227h53.529V90.683H36.157z M40.617,117.449V95.144h44.608v22.305H40.617L40.617,117.449z
		"/>
	<rect x="47.308" y="108.526" fill="#FFFFFF" width="31.227" height="4.461"/>
	<rect x="47.308" y="99.604" fill="#FFFFFF" width="31.227" height="4.461"/>
</g>
<path fill="#FFFFFF" d="M100.711,44.265v4.954c0,2.739-2.217,4.957-4.951,4.957H69.122c-2.738,0-4.957-2.218-4.957-4.957V12.671
	c0-2.736,2.219-4.955,4.957-4.955h26.637c2.738,0,4.953,2.219,4.953,4.956v4.955V44.265z M107.061,37.918v4.953
	c0,2.24-1.486,4.131-3.525,4.745V12.671c0-4.287-3.49-7.776-7.775-7.776H70.723c0.615-2.039,2.504-3.526,4.746-3.526h26.639
	c2.734,0,4.953,2.219,4.953,4.957V37.918z"/>
</svg>
