<?xml version="1.0" encoding="utf-8"?>
<!-- Generator: Adobe Illustrator 18.1.1, SVG Export Plug-In . SVG Version: 6.00 Build 0)  -->
<svg version="1.1" id="Layer_1" xmlns="http://www.w3.org/2000/svg" xmlns:xlink="http://www.w3.org/1999/xlink" x="0px" y="0px"
	 viewBox="0 0 522 133.5" enable-background="new 0 0 522 133.5" xml:space="preserve">
<g>
	<path d="M101.1,130.2c-12.4,0-21.1-10-21.1-24.5c0-15.1,9.5-25.3,23.9-25.3c5.8,0,8.5,0.7,14.4,3.8l-3,6.8
		c-5.5-2.3-7.1-2.7-11.2-2.7c-8.1,0-13.5,6.8-13.5,16.8c0,9.9,5,16.3,12.7,16.3c3.9,0,7.5-1.4,13.2-5.1l4,5.8
		C114.2,127.7,108,130.2,101.1,130.2L101.1,130.2z"/>
	<path d="M147.8,88.4c-7.1,0-12.3,6.7-12.3,15.9c0,10.4,5.2,17.6,12.8,17.6c7.4,0,12.3-6.4,12.3-16.1
		C160.6,95.3,155.5,88.4,147.8,88.4L147.8,88.4z M147.6,130.1c-12.9,0-22.3-10.2-22.3-24.4c0-14.7,9.9-25.4,23.5-25.4
		c12.8,0,22,10.2,22,24.5C170.7,119.4,160.9,130.1,147.6,130.1L147.6,130.1z"/>
	<path d="M211.7,129v-27.3c0-2-0.1-4.3-0.2-5.8c-0.3-4.3-2.6-6.6-6.4-6.6c-4.4,0-9.7,3-14.6,8.3V129h-9.6V81.9h9.4V89
		c6.3-6,11.7-8.6,17.9-8.6c4.2,0,7.7,1.5,10,4.2c2.4,2.8,3.2,6.2,3.2,13.7V129H211.7L211.7,129z"/>
	<path d="M266.7,98.6c-4-6.6-8.5-9.8-13.8-9.8c-6.6,0-11.6,7-11.6,16.4c0,9.6,4.7,16.1,11.5,16.1c5.2,0,9.9-2.8,13.9-8.3V98.6
		L266.7,98.6z M266.9,129v-7.3c-0.9,0.9-1.6,1.7-2,2.1c-4.2,4-9.9,6.4-15.3,6.4c-10.9,0-18.5-9.5-18.5-23.5
		c0-15.5,8.6-26.4,20.9-26.4c6,0,10.3,2.3,14.7,7.9V61.7h9.6V129H266.9L266.9,129z"/>
	<path d="M319.8,129v-7.4c-5,5.4-11.4,8.5-17.5,8.5c-4.4,0-7.9-1.5-10.2-4.3c-2.4-2.9-3.1-6.3-3.1-14.5V81.9h9.6v26.8
		c0,4.3,0,5.2,0.2,6.7c0.5,3.6,2.9,5.6,6.5,5.6c4.4,0,9.9-3.2,14.5-8.4V81.9h9.6V129H319.8L319.8,129z"/>
	<path d="M360.5,130.2c-12.4,0-21.1-10-21.1-24.5c0-15.1,9.5-25.3,23.9-25.3c5.8,0,8.5,0.7,14.4,3.8l-3,6.8
		c-5.5-2.3-7.1-2.7-11.2-2.7c-8.1,0-13.5,6.8-13.5,16.8c0,9.9,5,16.3,12.7,16.3c3.9,0,7.5-1.4,13.2-5.1l4,5.8
		C373.6,127.7,367.4,130.2,360.5,130.2L360.5,130.2z"/>
	<path d="M387.5,81.9V61.8h9.6v17.6h12.3v9.2h-12.3v25c0,2.6,0.1,4,0.3,5.1c0.6,2.4,2.9,3.6,6.9,3.6c1.5,0,2.8-0.1,5.1-0.6v7
		c-4,1.1-6,1.3-8.8,1.3c-4.2,0-7.1-0.8-9.5-2.6c-1.3-1-2.3-2.4-2.8-3.9c-0.7-2.2-0.8-2.9-0.8-8.3V88.6V81.9L387.5,81.9z"/>
	<path d="M438,88.4c-7.1,0-12.3,6.7-12.3,15.9c0,10.4,5.2,17.6,12.8,17.6c7.4,0,12.3-6.4,12.3-16.1C450.9,95.3,445.7,88.4,438,88.4
		L438,88.4z M437.8,130.1c-12.9,0-22.3-10.2-22.3-24.4c0-14.7,9.9-25.4,23.5-25.4c12.8,0,22,10.2,22,24.5
		C461,119.4,451.2,130.1,437.8,130.1L437.8,130.1z"/>
	<path d="M496.9,90.4c-1.6-0.6-2.2-0.7-3.1-0.7c-4.1,0-9.5,5.4-13,13.1V129h-9.6V81.9h9.4v9.3c3.7-6.6,8.7-10.3,14-10.3
		c1.7,0,2.5,0.2,4.5,0.9L496.9,90.4L496.9,90.4z"/>
	<path fill="#B2D239" d="M23,31.5c0,5.4-4.4,9.8-9.8,9.8c-5.4,0-9.8-4.4-9.8-9.8c0-5.4,4.4-9.8,9.8-9.8C18.6,21.7,23,26.1,23,31.5
		L23,31.5z"/>
	<path fill="#B2D239" d="M44.3,31.5c0,5.4-4.4,9.8-9.8,9.8c-5.4,0-9.8-4.4-9.8-9.8c0-5.4,4.4-9.8,9.8-9.8
		C40,21.7,44.3,26.1,44.3,31.5L44.3,31.5z"/>
	<path fill="#B2D239" d="M23,52.5c0,5.4-4.4,9.8-9.8,9.8c-5.4,0-9.8-4.4-9.8-9.8c0-5.4,4.4-9.8,9.8-9.8C18.6,42.7,23,47.1,23,52.5
		L23,52.5z"/>
	<path fill="#B2D239" d="M44.3,52.5c0,5.4-4.4,9.8-9.8,9.8c-5.4,0-9.8-4.4-9.8-9.8c0-5.4,4.4-9.8,9.8-9.8
		C40,42.7,44.3,47.1,44.3,52.5L44.3,52.5z"/>
	<path fill="#73AE43" d="M65.5,52.5c0,5.4-4.4,9.8-9.8,9.8c-5.4,0-9.8-4.4-9.8-9.8c0-5.4,4.4-9.8,9.8-9.8
		C61.1,42.7,65.5,47.1,65.5,52.5L65.5,52.5z"/>
	<path fill="#127D3F" d="M106.1,52.5c0,5.4-4.4,9.8-9.8,9.8c-5.4,0-9.8-4.4-9.8-9.8c0-5.4,4.4-9.8,9.8-9.8
		C101.7,42.7,106.1,47.1,106.1,52.5L106.1,52.5z"/>
	<path fill="#127D3F" d="M127.7,52.5c0,5.4-4.4,9.8-9.8,9.8c-5.4,0-9.8-4.4-9.8-9.8c0-5.4,4.4-9.8,9.8-9.8
		C123.3,42.7,127.7,47.1,127.7,52.5L127.7,52.5z"/>
	<path fill="#127D3F" d="M148.8,52.5c0,5.4-4.4,9.8-9.8,9.8c-5.4,0-9.8-4.4-9.8-9.8c0-5.4,4.4-9.8,9.8-9.8
		C144.5,42.7,148.8,47.1,148.8,52.5L148.8,52.5z"/>
	<path fill="#73AE43" d="M44.3,73.5c0,5.4-4.4,9.8-9.8,9.8c-5.4,0-9.8-4.4-9.8-9.8c0-5.4,4.4-9.8,9.8-9.8
		C40,63.7,44.3,68.1,44.3,73.5L44.3,73.5z"/>
	<path fill="#73AE43" d="M65.5,73.5c0,5.4-4.4,9.8-9.8,9.8c-5.4,0-9.8-4.4-9.8-9.8c0-5.4,4.4-9.8,9.8-9.8
		C61.1,63.7,65.5,68.1,65.5,73.5L65.5,73.5z"/>
	<path fill="#D4C9C3" d="M55,116.5c-0.9,0-1.8-0.3-2.4-1c-1.3-1.3-1.3-3.5,0-4.9C66,97.3,73.3,79.5,73.3,60.5
		c0-18.9-7.4-36.7-20.8-50.1c-1.3-1.3-1.3-3.5,0-4.9c1.3-1.3,3.5-1.3,4.9,0c14.7,14.7,22.8,34.2,22.8,55c0,20.8-8.1,40.3-22.8,55
		C56.7,116.2,55.9,116.5,55,116.5z"/>
	<g>
		<path fill="#010101" d="M516.6,85.8c0,3.2-2.5,5.7-5.8,5.7c-3.2,0-5.8-2.5-5.8-5.7c0-3.1,2.6-5.7,5.8-5.7
			C514.1,80.2,516.6,82.7,516.6,85.8z M506.4,85.8c0,2.5,1.9,4.5,4.4,4.5c2.5,0,4.3-2,4.3-4.5c0-2.5-1.8-4.6-4.4-4.6
			C508.3,81.3,506.4,83.3,506.4,85.8z M509.9,88.8h-1.3v-5.7c0.5-0.1,1.2-0.2,2.2-0.2c1.1,0,1.6,0.2,2,0.4c0.3,0.2,0.6,0.7,0.6,1.2
			c0,0.6-0.5,1.1-1.2,1.3V86c0.6,0.2,0.9,0.6,1,1.4c0.2,0.9,0.3,1.2,0.4,1.4h-1.4c-0.2-0.2-0.3-0.7-0.5-1.4
			c-0.1-0.6-0.4-0.9-1.2-0.9h-0.6V88.8z M509.9,85.6h0.6c0.7,0,1.3-0.2,1.3-0.8c0-0.5-0.4-0.9-1.2-0.9c-0.3,0-0.6,0-0.7,0.1V85.6z"
			/>
	</g>
</g>
</svg>
