<?xml version="1.0" encoding="utf-8"?>
<!-- Generator: Adobe Illustrator 15.1.0, SVG Export Plug-In . SVG Version: 6.00 Build 0)  -->
<!DOCTYPE svg PUBLIC "-//W3C//DTD SVG 1.1//EN" "http://www.w3.org/Graphics/SVG/1.1/DTD/svg11.dtd">
<svg version="1.1" id="Layer_1" xmlns="http://www.w3.org/2000/svg" xmlns:xlink="http://www.w3.org/1999/xlink" x="0px" y="0px"
	 width="72px" height="72px" viewBox="0 0 72 72" enable-background="new 0 0 72 72" xml:space="preserve">
<g>
	<path d="M13.422,65.002"/>
	<path fill="#CCCCCC" d="M4.476,68.879c-1.648,0-2.835-1.342-2.835-2.836V6.444c0-1.648,1.341-2.836,2.835-2.836
		c1.496,0,2.836,1.202,2.836,2.836v59.599C7.312,67.677,6.111,68.879,4.476,68.879L4.476,68.879z M4.476,68.879"/>
	<path fill="#CCCCCC" d="M17.021,54.838c-1.648,0-2.836-1.341-2.836-2.836V6.444c0-1.648,1.341-2.836,2.836-2.836
		c1.649,0,2.836,1.341,2.836,2.836v45.558C19.858,53.637,18.656,54.838,17.021,54.838L17.021,54.838z M17.021,54.838"/>
	<path fill="#CCCCCC" d="M29.568,54.838c-1.649,0-2.836-1.341-2.836-2.836V6.444c0-1.648,1.341-2.836,2.836-2.836
		c1.494,0,2.835,1.341,2.835,2.836v45.558C32.403,53.637,31.216,54.838,29.568,54.838L29.568,54.838z M29.568,54.838"/>
	<path fill="#CCCCCC" d="M42.113,54.838c-1.648,0-2.837-1.341-2.837-2.836V6.444c0-1.648,1.342-2.836,2.837-2.836
		c1.494,0,2.836,1.341,2.836,2.836v45.558C44.949,53.637,43.607,54.838,42.113,54.838L42.113,54.838z M42.113,54.838"/>
	<path fill="#CCCCCC" d="M54.659,54.838c-1.649,0-2.837-1.341-2.837-2.836V6.444c0-1.648,1.341-2.836,2.837-2.836
		c1.494,0,2.835,1.341,2.835,2.836v45.558C57.494,53.637,56.153,54.838,54.659,54.838L54.659,54.838z M54.659,54.838"/>
	<path fill="#CCCCCC" d="M67.204,68.879c-1.648,0-2.836-1.342-2.836-2.836V6.444c0-1.648,1.341-2.836,2.836-2.836
		s2.836,1.341,2.836,2.836v59.599C70.055,67.677,68.699,68.879,67.204,68.879L67.204,68.879z M67.204,68.879"/>
	<path fill="#2DACE3" d="M17.944,57.073c-2.724,0-4.932,2.669-4.932,5.979c0,3.298,2.208,5.979,4.932,5.979
		c2.725,0,4.932-2.668,4.932-5.979C22.861,59.756,20.654,57.073,17.944,57.073L17.944,57.073z M17.944,66.756
		c-1.439,0-2.613-1.663-2.613-3.703s1.174-3.702,2.613-3.702c1.439,0,2.612,1.662,2.612,3.702S19.383,66.756,17.944,66.756
		L17.944,66.756z M17.944,66.756"/>
	<path fill="#2DACE3" d="M29.875,57.073c-2.725,0-4.931,2.669-4.931,5.979c0,3.298,2.207,5.979,4.931,5.979s4.932-2.668,4.932-5.979
		C34.807,59.756,32.599,57.073,29.875,57.073L29.875,57.073z M29.875,66.756c-1.438,0-2.612-1.663-2.612-3.703
		s1.174-3.702,2.612-3.702c1.439,0,2.613,1.662,2.613,3.702S31.314,66.756,29.875,66.756L29.875,66.756z M29.875,66.756"/>
	<path fill="#2DACE3" d="M41.806,57.073c-2.725,0-4.932,2.669-4.932,5.979c0,3.298,2.207,5.979,4.932,5.979s4.932-2.668,4.932-5.979
		C46.737,59.756,44.53,57.073,41.806,57.073L41.806,57.073z M41.806,66.756c-1.438,0-2.612-1.663-2.612-3.703
		s1.174-3.702,2.612-3.702s2.612,1.662,2.612,3.702S43.259,66.756,41.806,66.756L41.806,66.756z M41.806,66.756"/>
	<path fill="#2DACE3" d="M53.736,57.073c-2.725,0-4.932,2.669-4.932,5.979c0,3.298,2.207,5.979,4.932,5.979s4.932-2.668,4.932-5.979
		C58.668,59.756,56.461,57.073,53.736,57.073L53.736,57.073z M53.736,66.756c-1.439,0-2.612-1.663-2.612-3.703
		s1.173-3.702,2.612-3.702c1.438,0,2.613,1.662,2.613,3.702S55.189,66.756,53.736,66.756L53.736,66.756z M53.736,66.756"/>
</g>
</svg>
