<?xml version="1.0" encoding="UTF-8"?>
<!DOCTYPE svg PUBLIC "-//W3C//DTD SVG 1.1//EN" "http://www.w3.org/Graphics/SVG/1.1/DTD/svg11.dtd">
<!-- Creator: CorelDRAW X6 -->
<svg xmlns="http://www.w3.org/2000/svg" xml:space="preserve" width="3.85001in" height="1.1963in" version="1.1" style="shape-rendering:geometricPrecision; text-rendering:geometricPrecision; image-rendering:optimizeQuality; fill-rule:evenodd; clip-rule:evenodd"
viewBox="0 0 3797 1180"
 xmlns:xlink="http://www.w3.org/1999/xlink">
 <defs>
  <style type="text/css">
   <![CDATA[
    .fil1 {fill:#00B0F0}
    .fil3 {fill:#0FB45A}
    .fil0 {fill:#4B96FA}
    .fil2 {fill:#F5C319}
    .fil4 {fill:#FF3219;fill-rule:nonzero}
   ]]>
  </style>
 </defs>
 <g id="Layer_x0020_1">
  <metadata id="CorelCorpID_0Corel-Layer"/>
  <path class="fil0" d="M747 708l100 109c29,-34 56,-80 70,-121 32,-90 29,-198 -6,-286 -19,-47 -47,-89 -83,-126 -150,-154 -390,-154 -540,0 -36,37 -64,79 -83,126 -36,88 -38,196 -6,286 53,151 196,252 359,254 58,-1 118,-13 170,-39l-188 -202 206 0zm214 233l220 239 -203 0 -137 -147c-21,12 -43,23 -66,32 -68,28 -138,42 -209,42 -3,0 -6,0 -9,0 -3,0 -6,0 -9,0 -71,0 -140,-14 -209,-42 -68,-28 -127,-67 -178,-117 -53,-51 -93,-110 -121,-176 -26,-62 -40,-128 -41,-198l0 -3 0 0 0 -3 0 0 0 -3 0 0 0 -3 0 -3 0 0c0,-2 0,-5 0,-7l0 0c1,-71 15,-138 42,-201 28,-66 68,-125 121,-176 52,-51 112,-91 180,-118 136,-55 295,-55 431,0 68,28 128,67 180,118 53,51 93,110 121,176 26,63 40,130 42,201l0 0c0,2 0,5 0,7l0 0 0 3 0 3 0 0 0 3 0 0 0 3 0 0 0 3c-2,70 -15,136 -41,198 -27,63 -65,120 -114,169z"/>
  <path class="fil1" d="M2698 1110l0 -642 144 0 0 51c58,-62 152,-79 219,-81 90,-3 196,32 250,115 12,18 20,40 26,64 5,24 8,67 8,128l0 364 -155 0 0 -302c0,-88 -1,-146 -22,-175 -21,-32 -70,-64 -125,-64 -36,0 -68,6 -96,20 -28,13 -50,32 -66,56 -11,16 -19,37 -24,62 -5,25 -7,65 -7,120l0 284 -153 0z"/>
  <path class="fil2" d="M2126 454l0 336c0,65 14,112 40,140 27,28 70,42 130,42 60,0 104,-14 130,-42 27,-28 40,-75 40,-140l0 -336 153 0 0 290c0,128 -26,221 -77,279 -51,58 -133,87 -245,87 -114,0 -197,-29 -248,-86 -51,-57 -77,-151 -77,-279l0 -290 153 0z"/>
  <path class="fil3" d="M1194 766c0,-47 9,-91 27,-132 18,-41 43,-78 76,-110 33,-32 70,-56 113,-73 43,-17 87,-25 134,-25 48,0 93,8 135,25 42,17 80,42 114,75 33,33 59,70 77,111 17,41 26,84 26,130 0,47 -9,91 -26,132 -17,41 -42,78 -76,110 -35,33 -74,59 -116,76 -42,17 -87,26 -134,26 -46,0 -91,-9 -133,-26 -43,-17 -80,-42 -114,-75 -33,-33 -59,-70 -77,-112 -17,-41 -26,-85 -26,-132zm547 1c0,-59 -19,-109 -57,-150 -38,-41 -85,-61 -140,-61 -55,0 -101,20 -139,61 -38,41 -57,91 -57,150 0,59 19,109 57,150 38,41 85,61 139,61 55,0 101,-20 139,-61 38,-41 57,-91 57,-150z"/>
  <path class="fil4" d="M3797 301l-152 0 0 -232 -150 0 0 232 -113 0 0 138 113 0 0 457c0,125 92,214 215,214 42,0 66,-2 86,-3l0 -134c-15,2 -30,3 -45,3 -74,0 -107,-35 -107,-126l0 -410 152 0 0 -138z"/>
 </g>
</svg>
