<?xml version="1.0" encoding="utf-8"?>
<!-- Generator: Adobe Illustrator 19.0.0, SVG Export Plug-In . SVG Version: 6.00 Build 0)  -->
<svg version="1.1" id="Layer_1" xmlns="http://www.w3.org/2000/svg" xmlns:xlink="http://www.w3.org/1999/xlink" x="0px" y="0px"
	 viewBox="0 0 162.9 55.8" style="enable-background:new 0 0 162.9 55.8;" xml:space="preserve">
<style type="text/css">
	.st0{fill:#5C247B;}
	.st1{fill:#FFFFFF;}
</style>
<g>
	<path class="st0" d="M28.3,0C12.4,0,0,11.8,0,26.4v29.4h134.7c14.6,0,28.2-10.8,28.2-26.4V0H28.3z"/>
	<path class="st1" d="M49.3,42.6l-6.4,0l-1.2-21.9l-4.9,21.9h-11l-3.4-21.1l-2.6,21.1h-7.9l2.8-29.4h17l1.7,18.9l4.1-18.9h14.7
		l2.3,29.4H49.3z M64.7,31.5v11.1h11.4l0-10.8l11.1-18.5h-8.5l-6,11.4l-6-11.5l-12.4,0L64.7,31.5z M122.6,13.3v29
		c0,0,15.6,1.9,22.7-1.4c7.1-3.3,6.4-7.4,4.8-10.2c-0.3-0.5-0.7-1-1.1-1.4c-0.3-0.3-0.7-0.6-1-0.8c-0.3-0.2-0.7-0.4-1-0.6
		c-0.3-0.2-2.1-0.8-2.1-0.8s0.8-0.2,1.7-0.6c0.3-0.1,0.6-0.3,0.9-0.5c0.5-0.3,1.1-0.7,1.6-1.2c1.4-1.4,2.2-3.5,1.1-6.8
		C147.5,10.7,122.6,13.3,122.6,13.3z M139.9,22.1c-0.1,4-6.4,2.9-6.4,2.9v-5.8C133.5,19.2,140,18.1,139.9,22.1z M140.7,33.3
		c-0.1,4-6.9,2.9-6.9,2.9v-5.8C133.7,30.4,140.8,29.3,140.7,33.3z M103.1,43c-12.9,0.9-21.2-9.8-17.4-20.4c3.8-10.6,17.4-10,17.4-10
		h0.1c0,0,11.9-0.5,15.5,9.5c3.5,9.9-4,20.9-15.5,20.9H103.1z M108.2,27.9c0.1-9.4-5.6-8.9-5.6-8.9s-5.9-0.5-6.1,9.2
		c-0.2,9.1,6,8.4,6,8.4S108.1,37.2,108.2,27.9z"/>
	<path class="st1" d="M158,7.9c0,0.8-0.3,1.5-0.9,2c-0.6,0.6-1.3,0.9-2.1,0.9c-0.8,0-1.5-0.3-2.1-0.9c-0.6-0.6-0.9-1.3-0.9-2.1
		c0-0.8,0.3-1.5,0.9-2.1c0.5-0.5,1.3-0.8,2.1-0.8c0.8,0,1.5,0.3,2.1,0.9C157.7,6.3,158,7.1,158,7.9z M155.1,4.5
		c-0.9,0-1.7,0.3-2.3,1c-0.6,0.7-1,1.5-1,2.4c0,0.9,0.3,1.7,1,2.3c0.6,0.6,1.5,1,2.4,1c0.9,0,1.7-0.3,2.4-1c0.6-0.6,1-1.4,1-2.3
		c0-0.9-0.3-1.7-1-2.4C156.8,4.8,156,4.5,155.1,4.5z M155.2,5.9h-1.4v3.8h0.6V8h0.8l0.8,1.7h0.7l-0.9-1.7c0.6-0.1,0.9-0.5,0.9-1
		C156.7,6.2,156.2,5.9,155.2,5.9z M155,6.3c0.7,0,1.1,0.2,1.1,0.7c0,0.5-0.3,0.6-1,0.6h-0.7V6.3H155z"/>
</g>
</svg>
