<?xml version="1.0" encoding="utf-8"?>
<!-- Generator: Adobe Illustrator 15.1.0, SVG Export Plug-In . SVG Version: 6.00 Build 0)  -->
<!DOCTYPE svg PUBLIC "-//W3C//DTD SVG 1.1//EN" "http://www.w3.org/Graphics/SVG/1.1/DTD/svg11.dtd">
<svg version="1.1" id="Layer_1" xmlns="http://www.w3.org/2000/svg" xmlns:xlink="http://www.w3.org/1999/xlink" x="0px" y="0px"
	 width="72px" height="72px" viewBox="0 0 72 72" enable-background="new 0 0 72 72" xml:space="preserve">
<g>
	<path fill="#CCCCCC" d="M64.936,63.62h-1.388V29.435h-0.002c-1.705,0-3.319-0.557-4.663-1.494
		c-0.905,0.636-1.946,1.106-3.099,1.336c-0.528,0.105-1.065,0.158-1.598,0.158c-0.353,0-0.698-0.04-1.04-0.084v25.429
		c0,1.452-1.177,2.629-2.63,2.629h-9.444v-7.203l3.33,5.558c0.394,0.657,1.089,1.021,1.804,1.021c0.366,0,0.739-0.096,1.078-0.299
		c0.993-0.597,1.317-1.886,0.721-2.881l-6.694-11.174c-0.414-0.692-1.167-1.035-1.92-0.992c-0.051-0.006-7.756-0.006-7.803-0.003
		c-0.764-0.053-1.527,0.294-1.948,0.995l-6.694,11.174c-0.597,0.995-0.273,2.284,0.721,2.881c0.338,0.203,0.711,0.299,1.078,0.299
		c0.714,0,1.411-0.364,1.803-1.021l3.352-5.593v7.238h-9.465c-1.452,0-2.628-1.177-2.628-2.629V29.351
		c-0.343,0.044-0.688,0.084-1.041,0.084c-0.529,0-1.066-0.053-1.604-0.159c-1.151-0.229-2.19-0.699-3.094-1.335
		c-1.343,0.938-2.957,1.494-4.662,1.494H7.403V63.62H6.015c-1.818,0-3.29,1.473-3.29,3.29s1.472,3.29,3.29,3.29h58.921
		c1.817,0,3.29-1.473,3.29-3.29C68.226,65.093,66.753,63.62,64.936,63.62z"/>
	<ellipse fill="#CCCCCC" cx="35.474" cy="34.641" rx="4.377" ry="5.006"/>
</g>
<path fill="#2DACE3" d="M6.065,25.729c0.447,0.132,0.896,0.196,1.342,0.196c2.013,0,3.874-1.311,4.48-3.34l0.246-0.823
	c0.22,1.972,1.665,3.665,3.714,4.072c0.308,0.062,0.615,0.091,0.918,0.091c2.187,0,4.141-1.541,4.584-3.766l0.114-0.572
	c0.162,2.227,1.893,4.086,4.19,4.314c0.158,0.016,0.315,0.022,0.47,0.022c2.374,0,4.409-1.8,4.649-4.215l0.035-0.347
	c0.063,2.529,2.123,4.562,4.667,4.562c2.544,0,4.604-2.032,4.667-4.562l0.035,0.347c0.24,2.415,2.274,4.215,4.648,4.215
	c0.156,0,0.313-0.006,0.471-0.022c2.298-0.228,4.029-2.087,4.19-4.314l0.114,0.572c0.443,2.226,2.396,3.766,4.584,3.766
	c0.302,0,0.61-0.029,0.918-0.091c2.05-0.408,3.495-2.101,3.714-4.072l0.247,0.823c0.605,2.029,2.467,3.34,4.479,3.34
	c0.444,0,0.895-0.063,1.342-0.196c2.477-0.74,3.884-3.347,3.144-5.821L63.807,5.774C63.103,3.416,60.934,1.8,58.474,1.8H12.478
	c-2.461,0-4.63,1.616-5.334,3.974L2.92,19.908C2.182,22.382,3.588,24.989,6.065,25.729z"/>
<g>
</g>
<g>
</g>
<g>
</g>
<g>
</g>
<g>
</g>
<g>
</g>
<g>
</g>
<g>
</g>
<g>
</g>
<g>
</g>
<g>
</g>
<g>
</g>
<g>
</g>
<g>
</g>
<g>
</g>
</svg>
