<?xml version="1.0" encoding="utf-8"?>
<!-- Generator: Adobe Illustrator 15.1.0, SVG Export Plug-In . SVG Version: 6.00 Build 0)  -->
<!DOCTYPE svg PUBLIC "-//W3C//DTD SVG 1.1//EN" "http://www.w3.org/Graphics/SVG/1.1/DTD/svg11.dtd">
<svg version="1.1" id="Layer_1" xmlns="http://www.w3.org/2000/svg" xmlns:xlink="http://www.w3.org/1999/xlink" x="0px" y="0px"
	 width="72px" height="72px" viewBox="0 0 72 72" enable-background="new 0 0 72 72" xml:space="preserve">
<path fill="#2DACE3" d="M15.759,24.833v37.69c0,0.771,0.625,1.396,1.396,1.396h37.689c0.771,0,1.396-0.625,1.396-1.396v-37.69
	c0-0.771-0.625-1.396-1.396-1.396H17.155C16.384,23.437,15.759,24.062,15.759,24.833L15.759,24.833z M53.449,53.449h-6.282V33.906
	h6.282V53.449z M27.625,26.229h25.825v4.886H27.625V26.229z M44.376,33.906v19.543h-6.98V33.906H44.376z M27.625,33.906h6.979
	v19.543h-6.979V33.906z M27.625,56.241h25.825v4.886H27.625V56.241z M18.551,26.229h6.282v4.886h-6.282V26.229z M18.551,33.906
	h6.282v27.221h-6.282V33.906z M18.551,33.906"/>
<g>
	<path fill="#CCCCCC" d="M63.217,15.759c0-0.363-0.138-0.721-0.405-0.987L50.248,2.209c-0.267-0.267-0.623-0.405-0.987-0.405V1.8
		H10.175C9.405,1.8,8.78,2.425,8.78,3.196v65.608c0,0.771,0.625,1.396,1.396,1.396h51.649c0.771,0,1.396-0.625,1.396-1.396V15.759
		H63.217z M50.657,6.565l7.798,7.798h-7.798V6.565z M60.429,67.408H11.571V4.592h36.294v11.167c0,0.771,0.625,1.396,1.396,1.396
		h11.168V67.408z M60.429,67.408"/>
	<rect x="15.759" y="7.384" fill="#CCCCCC" width="8.375" height="2.792"/>
	<rect x="15.759" y="12.27" fill="#CCCCCC" width="15.355" height="2.792"/>
	<rect x="15.759" y="17.155" fill="#CCCCCC" width="4.188" height="2.792"/>
	<rect x="21.343" y="17.155" fill="#CCCCCC" width="4.188" height="2.792"/>
</g>
</svg>
