<?xml version="1.0" encoding="utf-8"?>
<!-- Generator: Adobe Illustrator 15.1.0, SVG Export Plug-In . SVG Version: 6.00 Build 0)  -->
<!DOCTYPE svg PUBLIC "-//W3C//DTD SVG 1.1//EN" "http://www.w3.org/Graphics/SVG/1.1/DTD/svg11.dtd">
<svg version="1.1" id="Layer_1" xmlns="http://www.w3.org/2000/svg" xmlns:xlink="http://www.w3.org/1999/xlink" x="0px" y="0px"
	 width="108px" height="146px" viewBox="0 0 108 146" enable-background="new 0 0 108 146" xml:space="preserve">
<path fill="#FFFFFF" d="M100.711,44.265v4.954c0,2.739-2.217,4.957-4.952,4.957H69.122c-2.738,0-4.957-2.218-4.957-4.957V12.671
	c0-2.736,2.219-4.955,4.957-4.955h26.637c2.737,0,4.953,2.219,4.953,4.956v4.955V44.265z M107.06,37.918v4.953
	c0,2.24-1.485,4.131-3.525,4.745V12.671c0-4.287-3.489-7.776-7.775-7.776H70.723c0.615-2.039,2.503-3.526,4.745-3.526h26.639
	c2.734,0,4.953,2.219,4.953,4.957V37.918z M69.333,37.918"/>
<path fill="#FFFFFF" d="M99.962,62.1v57.018H56.645H24.727h-6.835V11.964h37.845V7.399h-42.31c-6.346,0-11.5,5.154-11.5,11.5
	v111.618h0.056c-0.312,3.474,0.846,6.947,3.184,9.541c2.383,2.627,5.778,4.142,9.296,4.142h90.064V62.1H99.962z M6.492,18.899
	c0-3.796,3.05-6.88,6.835-6.936v107.153c-2.561,0-4.932,0.857-6.835,2.283V18.899z M99.962,125.963h-9.117
	c-1.259,0-2.282,1.014-2.282,2.271c0,1.27,1.023,2.282,2.282,2.282h9.117v2.282H88.563c-1.259,0-2.271,1.024-2.271,2.282
	s1.013,2.282,2.271,2.282h11.399v2.271h-85.5c-2.237,0-4.397-0.958-5.911-2.639c-1.537-1.692-2.249-3.886-2.026-6.156
	c0.412-4.02,4.108-7.159,8.428-7.159h10.643h32.464h41.903V125.963z"/>
</svg>
