<?xml version="1.0" encoding="utf-8"?>
<!-- Generator: Adobe Illustrator 15.1.0, SVG Export Plug-In . SVG Version: 6.00 Build 0)  -->
<!DOCTYPE svg PUBLIC "-//W3C//DTD SVG 1.1//EN" "http://www.w3.org/Graphics/SVG/1.1/DTD/svg11.dtd">
<svg version="1.1" id="Layer_1" xmlns="http://www.w3.org/2000/svg" xmlns:xlink="http://www.w3.org/1999/xlink" x="0px" y="0px"
	 width="108px" height="146px" viewBox="0 0 108 146" enable-background="new 0 0 108 146" xml:space="preserve">
<path fill="#29ADE4" d="M95.696,6.476H76.138l-5.625-5.107H59.125c-3.308,0-5.997,2.69-5.997,5.996v32.659
	c0,3.308,2.689,5.998,5.994,5.998h33.806h2.769c0.03,0,0.06-0.009,0.088-0.01c3.118-0.093,5.641-2.574,5.803-5.672l5.474-26.285
	l-5.37-0.001v-1.58C101.69,9.166,99.001,6.476,95.696,6.476z M97.025,14.052H65.437l-5.304,27.299h-1.009
	c-0.733,0-1.332-0.596-1.332-1.33V7.364c0-0.732,0.599-1.33,1.332-1.33h9.587l5.625,5.107h21.359c0.732,0,1.329,0.598,1.329,1.33
	V14.052z"/>
<path fill="#CCCCCC" d="M99.962,54.1v65.018H56.645H24.727h-6.835V11.964h27.845V7.399h-32.31c-6.346,0-11.5,5.154-11.5,11.5
	v111.618h0.056c-0.312,3.474,0.846,6.947,3.184,9.541c2.383,2.627,5.778,4.142,9.296,4.142h90.064V54.1H99.962z M6.492,18.899
	c0-3.796,3.05-6.88,6.835-6.936v107.153c-2.561,0-4.932,0.857-6.835,2.283V18.899z M99.962,125.963h-9.117
	c-1.259,0-2.282,1.014-2.282,2.271c0,1.27,1.023,2.282,2.282,2.282h9.117v2.282H88.563c-1.259,0-2.271,1.024-2.271,2.282
	s1.013,2.282,2.271,2.282h11.399v2.271h-85.5c-2.237,0-4.397-0.958-5.911-2.639c-1.537-1.692-2.249-3.886-2.026-6.156
	c0.412-4.02,4.108-7.159,8.428-7.159h10.643h32.464h41.903V125.963z"/>
</svg>
