<?xml version="1.0" encoding="utf-8"?>
<!-- Generator: Adobe Illustrator 15.1.0, SVG Export Plug-In . SVG Version: 6.00 Build 0)  -->
<!DOCTYPE svg PUBLIC "-//W3C//DTD SVG 1.1//EN" "http://www.w3.org/Graphics/SVG/1.1/DTD/svg11.dtd">
<svg version="1.1" id="Layer_1" xmlns="http://www.w3.org/2000/svg" xmlns:xlink="http://www.w3.org/1999/xlink" x="0px" y="0px"
	 width="108px" height="146px" viewBox="0 0 108 146" enable-background="new 0 0 108 146" xml:space="preserve">
<path fill="#CCCCCC" d="M99.962,48.1v71.018H56.645H24.727h-6.835V11.964h37.845V7.399h-42.31c-6.346,0-11.5,5.154-11.5,11.5
	v111.618h0.056c-0.312,3.474,0.846,6.947,3.184,9.541c2.383,2.627,5.778,4.142,9.296,4.142h90.064V48.1H99.962z M6.492,18.899
	c0-3.796,3.05-6.88,6.835-6.936v107.153c-2.561,0-4.932,0.857-6.835,2.283V18.899z M99.962,125.963h-9.117
	c-1.259,0-2.282,1.014-2.282,2.271c0,1.27,1.023,2.282,2.282,2.282h9.117v2.282H88.563c-1.259,0-2.271,1.024-2.271,2.282
	s1.013,2.282,2.271,2.282h11.399v2.271h-85.5c-2.237,0-4.397-0.958-5.911-2.639c-1.537-1.692-2.249-3.886-2.026-6.156
	c0.412-4.02,4.108-7.159,8.428-7.159h10.643h32.464h41.903V125.963z"/>
<g>
	<path fill="#29ADE4" d="M85.399,10.09c-0.155-0.149-0.346-0.263-0.557-0.331L72.396,5.852c-4.978-1.565-8.214,1.163-9.087,2.036
		c-0.507,0.508-0.9,1.051-1.097,1.517l-5.547,13.044c-0.317,0.747-0.21,1.74,0.284,2.729c0.719,1.415,2.004,2.438,3.536,2.803
		c1.72,0.415,3.499-0.149,4.896-1.536c0.364-0.366,0.677-0.774,0.859-1.111l1.862-3.461c0.305-0.567,0.752-1.164,1.218-1.633
		c1.607-1.597,2.365-0.867,2.684-0.554c2.789,2.688,17.41,17.377,17.41,17.377c0.52,0.514,0.413,1.503-0.236,2.154
		c-0.652,0.642-1.634,0.757-2.155,0.235l-4.108-4.104c-0.529-0.526-1.381-0.526-1.912,0c-0.533,0.53-0.533,1.382,0,1.912
		l4.104,4.111c0.521,0.521,0.414,1.5-0.235,2.151c-0.651,0.65-1.642,0.76-2.155,0.237l-4.111-4.102c-0.526-0.529-1.38-0.529-1.909,0
		c-0.527,0.525-0.527,1.379,0,1.915l4.104,4.104c0.523,0.521,0.406,1.504-0.237,2.153c-0.649,0.65-1.631,0.758-2.15,0.236
		l-4.114-4.103c-0.527-0.528-1.381-0.528-1.909,0c-0.527,0.53-0.527,1.39,0,1.911l4.105,4.111c0.521,0.52,0.413,1.51-0.238,2.154
		c-0.649,0.649-1.639,0.757-2.152,0.242l-5.006-5.003c0.718-1.076,0.523-2.635-0.541-3.698c-1.185-1.187-3.009-1.293-4.063-0.239
		c1.055-1.054,0.947-2.885-0.237-4.068c-1.19-1.186-3.015-1.295-4.067-0.236c1.053-1.059,0.945-2.878-0.246-4.072
		c-1.186-1.184-3.007-1.292-4.07-0.237c1.063-1.055,0.956-2.877-0.236-4.068c-1.112-1.112-2.77-1.268-3.848-0.42l-8.098-8.1
		c-0.527-0.527-1.389-0.527-1.918,0c-0.521,0.528-0.521,1.39,0,1.916l8.08,8.079l-2.39,2.398c-1.06,1.051-0.957,2.878,0.235,4.065
		c1.193,1.189,3.008,1.3,4.071,0.236c-1.063,1.063-0.955,2.885,0.236,4.068c1.187,1.193,3.016,1.301,4.069,0.245
		c-1.054,1.056-0.948,2.877,0.237,4.063c1.192,1.191,3.013,1.3,4.07,0.242c-1.058,1.058-0.948,2.878,0.236,4.07
		c1.193,1.188,3.015,1.294,4.071,0.239l2.532-2.533l4.965,4.971c1.583,1.583,4.265,1.469,5.985-0.247
		c0.833-0.831,1.28-1.9,1.34-2.958c1.058-0.061,2.129-0.508,2.966-1.346c0.834-0.834,1.281-1.904,1.348-2.958
		c1.055-0.061,2.121-0.517,2.959-1.348c0.84-0.841,1.288-1.903,1.349-2.96c1.058-0.062,2.125-0.508,2.961-1.348
		c1.719-1.72,1.82-4.402,0.233-5.988l-2.092-2.093l8.603-8.598c0.526-0.529,0.526-1.382,0-1.909L85.399,10.09z M85.399,10.09"/>
	<path fill="#29ADE4" d="M105.775,13.117L94.819,2.16c-1.065-1.057-2.776-1.057-3.835,0l-3.831,3.827
		c-1.056,1.062-1.056,2.776,0,3.833l10.963,10.957c1.059,1.056,2.771,1.056,3.829,0l3.83-3.826
		C106.832,15.895,106.832,14.173,105.775,13.117L105.775,13.117z M100.026,18.697c-1.226,0-2.228-0.99-2.228-2.221
		c0-1.228,1.002-2.222,2.228-2.222c1.228,0,2.222,0.995,2.222,2.222C102.248,17.702,101.253,18.697,100.026,18.697L100.026,18.697z
		 M100.026,18.697"/>
</g>
</svg>
