<?xml version="1.0" encoding="utf-8"?>
<!-- Generator: Adobe Illustrator 15.1.0, SVG Export Plug-In . SVG Version: 6.00 Build 0)  -->
<!DOCTYPE svg PUBLIC "-//W3C//DTD SVG 1.1//EN" "http://www.w3.org/Graphics/SVG/1.1/DTD/svg11.dtd">
<svg version="1.1" id="Layer_1" xmlns="http://www.w3.org/2000/svg" xmlns:xlink="http://www.w3.org/1999/xlink" x="0px" y="0px"
	 width="108px" height="146px" viewBox="0 0 108 146" enable-background="new 0 0 108 146" xml:space="preserve">
<path fill="#29ADE4" d="M105.178,5.377c-1.141-0.472-2.45-0.21-3.322,0.663c-3.853,3.85-10.122,3.852-13.98,0
	c-6.234-6.229-16.372-6.229-22.603,0c-0.572,0.57-0.893,1.347-0.893,2.155v39.632c0,1.683,1.361,3.048,3.048,3.048
	c1.688,0,3.049-1.366,3.049-3.048V33.947c3.874-3.043,9.515-2.781,13.087,0.792c6.235,6.229,16.375,6.229,22.603,0
	c0.571-0.575,0.894-1.349,0.894-2.156V8.195C107.06,6.959,106.315,5.851,105.178,5.377z"/>
<rect x="1.927" y="7.399" fill="none" width="102.6" height="136.8"/>
<path fill="#CCCCCC" d="M99.962,48.1v71.018H56.645H24.727h-6.835V11.964h37.845V7.399h-42.31c-6.346,0-11.5,5.154-11.5,11.5
	v111.618h0.056c-0.312,3.474,0.846,6.947,3.184,9.541c2.383,2.627,5.778,4.142,9.296,4.142h90.064V48.1H99.962z M6.492,18.899
	c0-3.796,3.05-6.88,6.835-6.936v107.153c-2.561,0-4.932,0.857-6.835,2.283V18.899z M99.962,125.963h-9.117
	c-1.259,0-2.282,1.014-2.282,2.271c0,1.27,1.023,2.282,2.282,2.282h9.117v2.282H88.563c-1.259,0-2.271,1.024-2.271,2.282
	s1.013,2.282,2.271,2.282h11.399v2.271h-85.5c-2.237,0-4.397-0.958-5.911-2.639c-1.537-1.692-2.249-3.886-2.026-6.156
	c0.412-4.02,4.108-7.159,8.428-7.159h10.643h32.464h41.903V125.963z"/>
</svg>
