<?xml version="1.0" encoding="utf-8"?>
<!-- Generator: Adobe Illustrator 15.1.0, SVG Export Plug-In . SVG Version: 6.00 Build 0)  -->
<!DOCTYPE svg PUBLIC "-//W3C//DTD SVG 1.1//EN" "http://www.w3.org/Graphics/SVG/1.1/DTD/svg11.dtd">
<svg version="1.1" id="Layer_1" xmlns="http://www.w3.org/2000/svg" xmlns:xlink="http://www.w3.org/1999/xlink" x="0px" y="0px"
	 width="108px" height="146px" viewBox="0 0 108 146" enable-background="new 0 0 108 146" xml:space="preserve">
<g>
	<path fill="#FFFFFF" d="M25.004,139.752V14.848H53.46v-4.461H25.004H2.7v133.826h22.305H105.3V41.3h-4.462v98.452H25.004
		L25.004,139.752z M20.543,14.848v124.904H7.161V14.848H20.543z"/>
	<path fill="#FFFFFF" d="M36.157,90.683v31.227h53.529V90.683H36.157z M40.617,117.449V95.144h44.608v22.305H40.617L40.617,117.449z
		"/>
	<rect x="47.308" y="108.526" fill="#FFFFFF" width="31.227" height="4.461"/>
	<rect x="47.308" y="99.604" fill="#FFFFFF" width="31.227" height="4.461"/>
</g>
<g>
	<path fill="#FFFFFF" d="M85.399,14.09c-0.154-0.149-0.346-0.263-0.557-0.331L72.397,9.852c-4.979-1.565-8.215,1.163-9.088,2.036
		c-0.508,0.508-0.9,1.051-1.098,1.518l-5.547,13.044c-0.316,0.747-0.209,1.74,0.285,2.729c0.719,1.415,2.004,2.438,3.535,2.803
		c1.721,0.415,3.5-0.149,4.896-1.536c0.363-0.366,0.678-0.774,0.859-1.111l1.861-3.461c0.305-0.567,0.752-1.164,1.219-1.633
		c1.605-1.597,2.365-0.867,2.684-0.554c2.789,2.688,17.41,17.377,17.41,17.377c0.52,0.514,0.412,1.503-0.236,2.154
		c-0.652,0.642-1.635,0.757-2.154,0.235l-4.109-4.104c-0.527-0.526-1.381-0.526-1.912,0c-0.531,0.53-0.531,1.382,0,1.912
		l4.105,4.111c0.52,0.521,0.414,1.5-0.236,2.151c-0.65,0.65-1.641,0.76-2.154,0.237l-4.111-4.102c-0.525-0.529-1.379-0.529-1.908,0
		c-0.527,0.525-0.527,1.379,0,1.915l4.104,4.104c0.523,0.521,0.406,1.504-0.236,2.153c-0.65,0.65-1.631,0.758-2.15,0.236
		l-4.115-4.103c-0.525-0.528-1.381-0.528-1.908,0c-0.527,0.53-0.527,1.39,0,1.911l4.105,4.111c0.521,0.52,0.412,1.51-0.238,2.154
		c-0.648,0.649-1.639,0.757-2.152,0.242L69.1,51.377c0.719-1.076,0.523-2.635-0.541-3.698c-1.186-1.187-3.01-1.293-4.063-0.239
		c1.055-1.054,0.947-2.885-0.238-4.068c-1.189-1.186-3.014-1.295-4.066-0.236c1.053-1.059,0.945-2.878-0.246-4.072
		c-1.186-1.184-3.006-1.292-4.07-0.237c1.064-1.055,0.957-2.877-0.234-4.068c-1.113-1.112-2.771-1.268-3.85-0.42l-8.098-8.1
		c-0.527-0.527-1.389-0.527-1.918,0c-0.521,0.528-0.521,1.39,0,1.916l8.08,8.079l-2.391,2.398c-1.059,1.051-0.957,2.878,0.236,4.065
		c1.192,1.188,3.008,1.3,4.07,0.236c-1.063,1.063-0.955,2.885,0.236,4.068c1.187,1.193,3.016,1.301,4.068,0.245
		c-1.053,1.056-0.947,2.877,0.238,4.063c1.191,1.191,3.012,1.3,4.068,0.242c-1.057,1.058-0.947,2.878,0.236,4.07
		c1.193,1.188,3.016,1.294,4.072,0.239l2.531-2.533l4.965,4.971c1.584,1.583,4.266,1.469,5.984-0.247
		c0.834-0.831,1.281-1.9,1.342-2.958c1.057-0.061,2.129-0.508,2.965-1.346c0.834-0.834,1.281-1.904,1.348-2.958
		c1.055-0.061,2.121-0.517,2.959-1.348c0.84-0.841,1.289-1.903,1.35-2.96c1.059-0.062,2.125-0.508,2.961-1.348
		c1.719-1.72,1.82-4.402,0.232-5.988l-2.092-2.093l8.604-8.598c0.525-0.529,0.525-1.382,0-1.909L85.399,14.09z"/>
	<path fill="#FFFFFF" d="M105.776,17.117L94.819,6.16c-1.064-1.057-2.775-1.057-3.834,0l-3.832,3.827
		c-1.055,1.062-1.055,2.775,0,3.833l10.963,10.957c1.059,1.056,2.771,1.056,3.83,0l3.83-3.826
		C106.833,19.895,106.833,18.173,105.776,17.117L105.776,17.117z M100.026,22.697c-1.227,0-2.229-0.99-2.229-2.221
		c0-1.228,1.002-2.222,2.229-2.222c1.229,0,2.223,0.995,2.223,2.222C102.249,21.702,101.252,22.697,100.026,22.697L100.026,22.697z"
		/>
</g>
</svg>
