<?xml version="1.0" encoding="utf-8"?>
<!-- Generator: Adobe Illustrator 15.1.0, SVG Export Plug-In . SVG Version: 6.00 Build 0)  -->
<!DOCTYPE svg PUBLIC "-//W3C//DTD SVG 1.1//EN" "http://www.w3.org/Graphics/SVG/1.1/DTD/svg11.dtd">
<svg version="1.1" id="Layer_1" xmlns="http://www.w3.org/2000/svg" xmlns:xlink="http://www.w3.org/1999/xlink" x="0px" y="0px"
	 width="108px" height="146px" viewBox="0 0 108 146" enable-background="new 0 0 108 146" xml:space="preserve">
<circle fill="#FFFFFF" cx="86.475" cy="97.361" r="4.425"/>
<g>
	<rect x="33.062" y="74.676" fill="#FFFFFF" width="48.118" height="7.616"/>
	<rect x="23.341" y="62.532" fill="#FFFFFF" width="67.558" height="7.618"/>
	<path fill="#FFFFFF" d="M102.105,115c1.611,0,2.918-1.307,2.918-2.917v-50.13h-5.836v47.212H15.427V10.12h41.021V4.285H15.427
		c-7.17,0-13.003,5.833-13.003,13.004v104.88c0,7.17,5.833,13.003,13.003,13.003h9.889v8.866l10.391-5.493l10.389,5.493v-8.866
		h56.009c1.612,0,2.918-1.306,2.918-2.917c0-1.61-1.306-2.918-2.918-2.918c-2.129,0-2.742-0.306-2.742-7.168
		C99.361,115.305,99.977,115,102.105,115z M94.17,129.336H46.095v-8.07H25.316v8.07h-9.889c-3.952,0-7.168-3.216-7.168-7.168
		c0-3.953,3.216-7.168,7.168-7.168H94.17c-0.641,2.338-0.645,4.988-0.645,7.168S93.529,126.999,94.17,129.336z"/>
</g>
<path fill="#FFFFFF" d="M100.711,44.265v4.954c0,2.739-2.217,4.957-4.951,4.957H69.121c-2.738,0-4.957-2.218-4.957-4.957V12.671
	c0-2.736,2.219-4.955,4.957-4.955h26.637c2.738,0,4.953,2.219,4.953,4.956v4.955V44.265z M107.061,37.918v4.953
	c0,2.24-1.486,4.131-3.525,4.745V12.671c0-4.287-3.49-7.776-7.775-7.776H70.723c0.615-2.039,2.504-3.526,4.746-3.526h26.639
	c2.734,0,4.953,2.219,4.953,4.957V37.918z M69.332,37.918"/>
</svg>
