<?xml version="1.0" encoding="utf-8"?>
<!-- Generator: Adobe Illustrator 15.1.0, SVG Export Plug-In . SVG Version: 6.00 Build 0)  -->
<!DOCTYPE svg PUBLIC "-//W3C//DTD SVG 1.1//EN" "http://www.w3.org/Graphics/SVG/1.1/DTD/svg11.dtd">
<svg version="1.1" id="Layer_1" xmlns="http://www.w3.org/2000/svg" xmlns:xlink="http://www.w3.org/1999/xlink" x="0px" y="0px"
	 width="108px" height="146px" viewBox="0 0 108 146" enable-background="new 0 0 108 146" xml:space="preserve">
<path fill="#FFFFFF" d="M95.696,6.476H76.138l-5.625-5.107H59.125c-3.308,0-5.997,2.69-5.997,5.996v32.659
	c0,3.308,2.689,5.998,5.994,5.998h33.806h2.769c0.03,0,0.06-0.009,0.088-0.01c3.118-0.093,5.641-2.574,5.803-5.672l5.474-26.285
	l-5.37-0.001v-1.58C101.69,9.166,99.001,6.476,95.696,6.476z M97.025,14.052H65.437l-5.304,27.299h-1.009
	c-0.733,0-1.332-0.596-1.332-1.33V7.364c0-0.732,0.599-1.33,1.332-1.33h9.587l5.625,5.107h21.359c0.732,0,1.329,0.598,1.329,1.33
	V14.052z"/>
<g>
	<path fill="#FFFFFF" d="M25.004,139.752V14.848H45.46v-4.461H25.004H2.7v133.826h22.305H105.3V53.3h-4.462v86.452H25.004
		L25.004,139.752z M20.543,14.848v124.904H7.161V14.848H20.543z"/>
	<path fill="#FFFFFF" d="M36.157,90.683v31.227h53.529V90.683H36.157z M40.617,117.449V95.144h44.608v22.305H40.617L40.617,117.449z
		"/>
	<rect x="47.308" y="108.526" fill="#FFFFFF" width="31.227" height="4.461"/>
	<rect x="47.308" y="99.604" fill="#FFFFFF" width="31.227" height="4.461"/>
</g>
</svg>
