<?xml version="1.0" encoding="utf-8"?>
<!-- Generator: Adobe Illustrator 15.1.0, SVG Export Plug-In . SVG Version: 6.00 Build 0)  -->
<!DOCTYPE svg PUBLIC "-//W3C//DTD SVG 1.1//EN" "http://www.w3.org/Graphics/SVG/1.1/DTD/svg11.dtd">
<svg version="1.1" id="Layer_1" xmlns="http://www.w3.org/2000/svg" xmlns:xlink="http://www.w3.org/1999/xlink" x="0px" y="0px"
	 width="72px" height="72px" viewBox="0 0 72 72" enable-background="new 0 0 72 72" xml:space="preserve">
<path fill="#2DACE3" d="M42.938,53.088c-0.628,0-1.139-0.506-1.139-1.139V48.54c0-0.626,0.511-1.138,1.139-1.138
	c0.627,0,1.138,0.512,1.138,1.138v3.409C44.076,52.582,43.565,53.088,42.938,53.088L42.938,53.088z M42.938,53.088"/>
<path fill="#2DACE3" d="M47.485,53.088c-0.627,0-1.138-0.506-1.138-1.139v-7.956c0-0.628,0.511-1.139,1.138-1.139
	c0.628,0,1.139,0.511,1.139,1.139v7.956C48.624,52.582,48.113,53.088,47.485,53.088L47.485,53.088z M47.485,53.088"/>
<path fill="#2DACE3" d="M52.033,53.088c-0.628,0-1.139-0.506-1.139-1.139v-5.686c0-0.628,0.511-1.131,1.139-1.131
	c0.627,0,1.138,0.503,1.138,1.131v5.686C53.171,52.582,52.66,53.088,52.033,53.088L52.033,53.088z M52.033,53.088"/>
<path fill="#2DACE3" d="M56.581,53.088c-0.628,0-1.133-0.506-1.133-1.139V38.307c0-0.627,0.505-1.138,1.133-1.138
	c0.633,0,1.138,0.511,1.138,1.138v13.643C57.719,52.582,57.214,53.088,56.581,53.088L56.581,53.088z M56.581,53.088"/>
<path fill="#2DACE3" d="M61.134,53.088c-0.633,0-1.139-0.506-1.139-1.139v-9.095c0-0.626,0.506-1.139,1.139-1.139
	c0.627,0,1.133,0.513,1.133,1.139v9.095C62.267,52.582,61.761,53.088,61.134,53.088L61.134,53.088z M61.134,53.088"/>
<path fill="#CCCCCC" d="M24.743,47.402H13.372c-0.627,0-1.139-0.506-1.139-1.139c0-0.628,0.512-1.131,1.139-1.131h11.371
	c0.627,0,1.138,0.503,1.138,1.131C25.881,46.896,25.37,47.402,24.743,47.402L24.743,47.402z M24.743,47.402"/>
<path fill="#CCCCCC" d="M30.429,51.949H13.372c-0.627,0-1.139-0.505-1.139-1.131c0-0.635,0.512-1.14,1.139-1.14h17.057
	c0.627,0,1.139,0.505,1.139,1.14C31.567,51.444,31.056,51.949,30.429,51.949L30.429,51.949z M30.429,51.949"/>
<g>
	<path fill="#2DACE3" d="M23.648,28.075c-0.027,0-0.044-0.023-0.044-0.045V15.594c-6.329,0.301-11.371,5.51-11.371,11.908
		c0,6.597,5.347,11.944,11.943,11.944c6.396,0,11.607-5.042,11.908-11.372H23.648z"/>
</g>
<path fill="#CCCCCC" d="M55.448,23.52h-9.101c-0.628,0-1.139-0.504-1.139-1.131c0-0.633,0.511-1.138,1.139-1.138h9.101
	c0.627,0,1.133,0.505,1.133,1.138C56.581,23.016,56.075,23.52,55.448,23.52L55.448,23.52z M55.448,23.52"/>
<path fill="#CCCCCC" d="M61.134,23.52c-0.3,0-0.595-0.122-0.811-0.327c-0.206-0.216-0.328-0.51-0.328-0.805
	c0-0.3,0.122-0.594,0.328-0.811c0.422-0.422,1.193-0.422,1.615,0c0.206,0.217,0.328,0.511,0.328,0.811
	c0,0.294-0.122,0.589-0.328,0.805C61.722,23.398,61.428,23.52,61.134,23.52L61.134,23.52z M61.134,23.52"/>
<path fill="#CCCCCC" d="M61.134,17.834h-3.415c-0.627,0-1.138-0.505-1.138-1.131c0-0.634,0.511-1.138,1.138-1.138h3.415
	c0.627,0,1.133,0.504,1.133,1.138C62.267,17.33,61.761,17.834,61.134,17.834L61.134,17.834z M61.134,17.834"/>
<path fill="#CCCCCC" d="M48.624,17.834h-2.276c-0.628,0-1.139-0.505-1.139-1.131c0-0.634,0.511-1.138,1.139-1.138h2.276
	c0.627,0,1.138,0.504,1.138,1.138C49.762,17.33,49.251,17.834,48.624,17.834L48.624,17.834z M48.624,17.834"/>
<path fill="#CCCCCC" d="M53.171,17.834c-0.294,0-0.594-0.122-0.805-0.327c-0.205-0.216-0.333-0.51-0.333-0.804
	c0-0.3,0.128-0.594,0.333-0.812c0.416-0.422,1.193-0.422,1.61,0c0.205,0.217,0.333,0.5,0.333,0.812c0,0.294-0.128,0.588-0.333,0.804
	C53.76,17.712,53.466,17.834,53.171,17.834L53.171,17.834z M53.171,17.834"/>
<path fill="#CCCCCC" d="M36.114,62.189c-0.627,0-1.139-0.512-1.139-1.14v-3.415c0-0.627,0.512-1.131,1.139-1.131
	s1.139,0.504,1.139,1.131v3.415C37.253,61.678,36.741,62.189,36.114,62.189L36.114,62.189z M36.114,62.189"/>
<path fill="#CCCCCC" d="M36.114,70.145c-2.51,0-4.547-2.036-4.547-4.547c0-2.51,2.037-4.548,4.547-4.548s4.548,2.038,4.548,4.548
	C40.662,68.108,38.624,70.145,36.114,70.145L36.114,70.145z M36.114,63.32c-1.255,0-2.277,1.022-2.277,2.277
	s1.022,2.277,2.277,2.277s2.276-1.022,2.276-2.277S37.369,63.32,36.114,63.32L36.114,63.32z M36.114,63.32"/>
<path fill="#CCCCCC" d="M69.09,56.504h-2.271V9.879h2.271V3.055H3.138v6.824h2.271v46.625H3.138C2.511,56.504,2,57.008,2,57.635
	c0,0.633,0.511,1.139,1.138,1.139H69.09c0.628,0,1.139-0.506,1.139-1.139C70.229,57.008,69.718,56.504,69.09,56.504z M64.818,56.504
	H7.409V9.879h57.409V56.504z"/>
</svg>
