<?xml version="1.0" encoding="utf-8"?>
<!-- Generator: Adobe Illustrator 19.0.0, SVG Export Plug-In . SVG Version: 6.00 Build 0)  -->
<svg version="1.1" id="Layer_1" xmlns="http://www.w3.org/2000/svg" xmlns:xlink="http://www.w3.org/1999/xlink" x="0px" y="0px"
	 viewBox="-154.7 18.6 190.7 82.5" style="enable-background:new -154.7 18.6 190.7 82.5;" xml:space="preserve">
<style type="text/css">
	.st0{fill:#8D70C9;}
	.st1{fill:#333E48;}
</style>
<g>
	<path class="st0" d="M33.8,18.6h-6.4c-1.5,0-3.1,1.2-3.5,2.7l-8.2,35.1c4.4,1.3,8,2.8,11,4.3l9.2-39.4
		C36.3,19.9,35.3,18.6,33.8,18.6z M16.4,29.6H10c-1.5,0-3.1,1.2-3.5,2.7l-4.9,21c4.2,0.7,8.1,1.5,11.5,2.4l5.5-23.4
		C18.9,30.9,17.9,29.6,16.4,29.6z M-16.2,43.2h-6.4c-1.5,0-3.1,1.2-3.5,2.7l-1.4,5.8c1-0.1,2-0.1,3.1-0.1c3.1,0,6.1,0,8.9,0.1
		l1.4-5.8C-13.6,44.4-14.6,43.2-16.2,43.2z M0.5,35.9h-6.4c-1.5,0-3.1,1.2-3.5,2.7l-3.1,13.2c4.2,0.3,8.2,0.6,11.8,1.1l3.3-14.3
		C3.1,37.2,2.1,35.9,0.5,35.9z"/>
	<g>
		<g>
			<g>
				<path class="st1" d="M-147.4,66.1c0.4-1.7,2.1-3,3.7-3h6.3c1.7,0,3,1.4,2.9,3.1l-0.1,4.4c-0.1,1.7-0.1,4.5-0.2,6.1
					c0,0-0.1,2.5-0.1,3.5c-0.1,3.2-0.3,5.8-0.5,9.2c0.8-1.7,1.7-3.9,2.6-6.2c0.8-1.9,1.9-4.5,2.4-5.8l5.1-11.5
					c0.7-1.5,2.6-2.8,4.3-2.8h6.3c1.7,0,2.8,1.3,2.4,3l-7.2,31.3c-0.4,1.7-2.1,3-3.7,3h-2.3c-1.7,0-2.7-1.3-2.3-3l5.5-21.7
					c0.4-1.6,0.2-1.7-0.5-0.2l-9.9,22.1c-0.7,1.5-2.6,2.8-4.3,2.8h-1.4c-1.7,0-3.1-1.4-3-3.1l0.2-21.5c0-1.7-0.3-1.7-0.6-0.1
					l-4.5,21.7c-0.4,1.7-2,3-3.7,3h-2.3c-1.7,0-2.8-1.3-2.4-3L-147.4,66.1z"/>
				<path class="st1" d="M-93.4,97.2c0,0.4-0.1,0.8-0.1,1.3c0,1.3,0.4,1.5,0.8,1.9h-6.5c-1.7,0-2.9-0.7-2.7-1.5
					c0.2-0.8-0.7-0.6-1.9,0.5c0,0-1.9,1.7-5.3,1.7c-0.6,0-5.6,0-5.6-5.1c0-1.7,1.1-6.7,2.8-8.7s4.3-2.7,14.2-5.6
					c0.3-1.1,0.6-2.9,0.6-3.3c0-1.5-1.4-1.6-2.3-1.6c-2.4,0-2.8,1.3-3.6,4.1h-5c-1.7,0-2.7-1.3-2.2-2.9c0,0,1-3.6,3.6-4.9
					c1.9-1,4.6-1.5,7.6-1.5c4.9,0,9.9,1.2,9.9,6.2c0,1,0,1,0,1c-0.3,1.2-0.8,3.5-1.2,5.1L-93.4,97.2z M-99,87.1
					c-1.9,0.6-4.3,1.3-5.3,2.1c-1.4,1.1-1.7,4.1-1.7,4.6c0,0.9,0.4,1.7,1.8,1.7c1.5,0,1.5,0,1.5,0c1.1-0.9,2.3-3,2.8-4.7L-99,87.1z"
					/>
				<path class="st1" d="M-75.8,77.7c2.3-4.4,4.1-5.4,8.5-6.1l-1.3,4.9c-0.4,1.6-1.3,2.9-1.9,2.9c0,0,0,0-0.6,0
					c-4.6,0-5.5,2-6.7,7.2l-2.5,10.8c-0.4,1.7-2,3-3.7,3h-2.2c-1.7,0-2.8-1.3-2.4-3l5.2-22.3c0.4-1.7,2.1-3,3.7-3h2.2
					c1.7,0,2.8,1.3,2.4,3L-75.8,77.7z"/>
				<path class="st1" d="M-57.9,63.1c1.7,0,2.8,1.3,2.4,3l-3.2,13.7c-0.4,1.7,0.2,1.9,1.3,0.6l4.9-5.9c1.1-1.3,3.3-2.4,5-2.4h3.3
					c1.7,0,2.2,1,1,2.3l-6.9,7.6c-1.1,1.3-1.7,3.6-1.2,5.2l3.1,10.2c0.5,1.6-0.5,2.9-2.2,2.9h-2.5c-1.7,0-3.4-1.3-3.8-2.9l-2.4-9.3
					c-0.4-1.6-1.1-1.6-1.5,0l-2.1,9.2c-0.4,1.7-2,3-3.7,3h-2.3c-1.7,0-2.8-1.3-2.4-3l7.2-31.3c0.4-1.7,2.1-3,3.7-3L-57.9,63.1
					L-57.9,63.1z"/>
				<path class="st1" d="M-21.2,91.3c-0.5,2.1-1.1,4.6-2.8,6.5c-1.7,1.9-4.5,3.4-9.5,3.4c-1.4,0-5.4-0.2-7.9-2.2
					c-1.2-0.9-2.3-2.4-2.3-5.4c0-3.7,2.7-14.2,3.6-16.2c0.9-2.3,3.2-5.9,10.9-5.9c3.4,0,10,0.6,10,6.9c0,1.2-0.2,2.4-0.5,3.6
					c-0.4,2-0.8,4-1.4,6.3h-10.5c-1.7,0-3.4,1.3-3.8,3c0,0-0.3,1-0.3,2.2c0,0.3,0,0.6,0.1,0.8c0.4,0.6,1.2,1,2.3,1
					c2.4,0,2.6-1.1,2.6-1.1c0.4-1.7,2-3,3.7-3H-21.2z M-28,83.1c0.2-0.9,0.8-3.1,0.8-3.8c0-0.5-0.1-1-0.4-1.4
					c-0.5-0.6-1.5-0.8-2-0.8c-2.6,0-3.2,3-3.2,3c-0.3,1.7,0.8,3,2.5,3L-28,83.1L-28,83.1z"/>
				<path class="st1" d="M-10.7,66.1c0.4-1.7,2-3,3.7-3h2.2c1.7,0,2.8,1.3,2.4,3l-0.7,3.1c-0.4,1.7,0.1,3,1.2,3s1.6,1.2,1.3,2.5
					C-1,76-2.1,77.1-3.1,77.1s-2.2,1.3-2.6,3l-2,8.8c-0.4,1.7-0.8,3.5-0.9,4.1c0,0,0,0,0,0.5c0,1.5,1,1.5,3.4,1.5l-0.5,2.4
					c-0.4,1.7-2,3-3.7,3c0,0-8.2,0-8.2-4.2c0-0.9,0.1-1.6,0.5-2.7l3.2-13.3c0.4-1.7,0-3-1-3s-1.4-1.2-1.1-2.5
					c0.3-1.4,1.4-2.5,2.3-2.5s2-1.3,2.4-3L-10.7,66.1z"/>
				<path class="st1" d="M23,79.1c0,2.9-2.3,12.4-3.1,14.8c-1,2.9-2.6,7.1-11.1,7.1c-6.3,0-10.4-2.1-10.4-7.7
					c0-3.1,2.4-12.4,2.8-13.9c0.9-3,2.7-8.1,10.8-8.1C16.4,71.3,23,72,23,79.1z M14.7,80.2c0.1-0.4,0.1-0.8,0.1-1.1
					c0-1.4-1-2.1-2.3-2.1c-2.3,0-2.7,1.9-3,3.2l-1.9,8.3c-0.4,1.7-0.8,3.5-0.9,4c0,0,0,0,0,0.6c0,1.1,0.6,2.2,2.3,2.2
					c2.3,0,2.5-0.8,2.5-0.8c0.4-1.7,1-4.3,1.4-6L14.7,80.2z"/>
			</g>
		</g>
		<g>
			<path class="st1" d="M29,71.4c2,0,3.6,1.6,3.6,3.6c0,2-1.6,3.7-3.6,3.7c-2,0-3.6-1.6-3.6-3.7C25.3,73,26.9,71.4,29,71.4L29,71.4z
				 M28.9,72.1c-1.5,0-2.8,1.3-2.8,2.9c0,1.6,1.2,2.9,2.8,2.9c1.5,0,2.8-1.3,2.8-2.9C31.7,73.4,30.5,72.1,28.9,72.1L28.9,72.1z
				 M28.3,77.1h-0.9v-4c0.3,0,0.6-0.1,1.3-0.1c0.7,0,1.2,0.1,1.4,0.3c0.2,0.2,0.4,0.5,0.4,0.9c0,0.5-0.3,0.8-0.8,0.9v0
				c0.4,0.1,0.6,0.4,0.6,1c0.1,0.6,0.2,0.9,0.2,1h-0.9c-0.1-0.1-0.2-0.5-0.3-1c-0.1-0.4-0.3-0.6-0.8-0.6h-0.4L28.3,77.1L28.3,77.1z
				 M28.3,74.8h0.4c0.5,0,0.9-0.1,0.9-0.6c0-0.3-0.3-0.6-0.8-0.6c-0.2,0-0.4,0-0.5,0V74.8z"/>
		</g>
	</g>
</g>
</svg>
