<?xml version="1.0" encoding="utf-8"?>
<!-- Generator: Adobe Illustrator 19.0.0, SVG Export Plug-In . SVG Version: 6.00 Build 0)  -->
<svg version="1.1" id="Layer_1" xmlns="http://www.w3.org/2000/svg" xmlns:xlink="http://www.w3.org/1999/xlink" x="0px" y="0px"
	 viewBox="0 0 411 85" enable-background="new 0 0 411 85" xml:space="preserve">
<g>
	<g>
		<path fill="#B2BB1E" d="M76.8,36.4c-0.6,0-1.1,0.1-1.7,0.2c-2.1-8.3-9.1-14.7-17.7-16c-0.1-1.5,0.4-3.7,4.1-5.9l-0.1-0.2
			c0,0-6.1,1.9-7.5,5.7c0.1-1.2-0.4-3-3-4.2c0,0-0.2,0.1-0.1,0.2c0.5,0.5,2.2,2.1,1.5,4.4c-9.2,0.8-16.7,7.4-18.9,16.1
			c-0.5-0.1-1.1-0.2-1.7-0.2c-3.8,0-7,3.1-7,7c0,3.9,3.1,7,7,7c0.9,0,1.8-0.2,2.6-0.5c0.6,1.5,1.4,2.9,2.3,4.2l5.8-3.9l-0.1,0
			c-1.5-2-2.5-4.9-2.6-7.8c-0.2-3.2,0.6-6.3,2.6-8.2c4.2-3.6,8.8-1.9,11.6,1.5h0.8c2.9-3.4,7.4-4.9,11.5-1.4c2,1.8,2.8,5,2.6,8.1
			c-0.1,2.9-1.1,5.9-2.6,7.8l5.7,3.9c0.9-1.3,1.7-2.7,2.3-4.2c0.8,0.3,1.6,0.5,2.5,0.5c3.9,0,7-3.1,7-7
			C83.8,39.5,80.6,36.4,76.8,36.4 M32,44.7c-0.8,0-1.4-0.6-1.4-1.4c0-0.8,0.6-1.4,1.4-1.4c0.3,0,0.6,0.1,0.8,0.2
			c0,0.7,0.1,1.5,0.1,2.2C32.7,44.6,32.3,44.7,32,44.7 M76.5,44.7c-0.4,0-0.7-0.1-0.9-0.4c0.1-0.7,0.1-1.5,0.1-2.2
			c0.2-0.2,0.5-0.2,0.8-0.2c0.8,0,1.4,0.6,1.4,1.4C77.9,44.1,77.3,44.7,76.5,44.7"/>
	</g>
	<g>
		<path fill="#5F604B" d="M99,44.4c2.1,2.3,5.2,3.9,8.5,3.9c4,0,6.9-1.6,6.9-4.3c0-6.4-18.5-0.2-18.5-11.9c0-5.1,5.3-8.6,11.9-8.6
			c4.8,0,8.6,1.5,11.4,4.4l-3.9,3.5c-2.6-2.6-5-3.4-7.8-3.4c-4.4,0-6,2.1-6,3.9c0,6.4,18.5,0,18.5,11.9c0,6-6.1,9.6-12.6,9.6
			c-4,0-8.7-1.5-12.3-5.3L99,44.4z"/>
		<path fill="#5F604B" d="M123.2,30.6h4.7V43c0,3.2,2.4,5.6,5.3,5.6c3,0,5.3-2.3,5.3-5.6V30.6h4.7v12.8c0,6.2-4.8,9.9-10.1,9.9
			c-5.3,0-10.1-3.7-10.1-9.9V30.6z"/>
		<path fill="#5F604B" d="M148.3,30.6h4.5v2.4h0.1c0.8-1.8,2.4-3,4.3-3c1,0,2,0.3,2.6,0.7l-1.7,4.7c-0.5-0.4-1.3-0.6-1.8-0.6
			c-1.7,0-3.3,1.3-3.3,3.3v14.6h-4.8V30.6z"/>
		<polygon fill="#5F604B" points="161.6,30.6 166.9,30.6 171.8,43.3 171.9,43.3 176.8,30.6 182.1,30.6 171.9,53.3 		"/>
		<path fill="#5F604B" d="M205.3,47.9c-2.6,3.3-6.3,5.3-10.3,5.4c-7.7,0-12.2-5.8-12.2-11.6c0-5.8,4.5-11.6,12.2-11.6
			c4.6,0,11.5,3.8,11.5,12.4v0.9h-18.4c0.3,3.4,3.4,5.8,6.8,5.8c2.6,0,4.7-1.2,6.4-3.4L205.3,47.9z M200.9,39.4
			c-1-3.4-3.5-5.2-6.5-5.2c-3,0-5.5,1.9-6.3,5.2H200.9z"/>
		<path fill="#5F604B" d="M209.9,30.6h4.7v13c0,3.7,2.3,5.3,5.2,5.3c3.7,0,5.5-2.3,5.5-5.7V30.6h4.7v21.4c0,6.8-6,9.7-10.1,9.7
			c-5,0-7.2-1.9-9.4-4.3l4-2.5c1.5,1.5,3,2.3,5.1,2.3c3.1,0,5.9-1.9,5.9-5.8v-1.2h-0.1c-1.9,2.1-3.6,3-6.7,3c-4.9,0-9-3.7-9-9.9
			V30.6z"/>
		<polygon fill="#5F604B" points="235.5,23.5 248.2,36.4 261,23.5 261,52.7 255.7,52.7 255.7,35 248.2,42.7 240.8,35 240.8,52.7 
			235.5,52.7 		"/>
		<path fill="#5F604B" d="M276.5,30c7.7,0,12.2,5.8,12.2,11.6c0,5.8-4.5,11.6-12.2,11.6c-7.7,0-12.2-5.8-12.2-11.6
			C264.3,35.8,268.8,30,276.5,30 M276.5,48.9c4.2,0,7.2-3.2,7.2-7.2c0-4-3-7.2-7.2-7.2c-4.2,0-7.2,3.2-7.2,7.2
			C269.4,45.7,272.4,48.9,276.5,48.9"/>
		<path fill="#5F604B" d="M292.1,30.6h4.7v2.8h0.1c1.3-2.1,3.7-3.4,6.8-3.4c4.7,0,8.6,3.9,8.6,9.4v13.3h-4.7V40.5
			c0-4-2.1-5.7-5.3-5.7c-3.1,0-5.4,2-5.4,5.6v12.4h-4.7V30.6z"/>
		<polygon fill="#5F604B" points="319,43.5 315.9,43.5 315.9,39 319,39 319,24.1 323.8,24.1 323.8,39 326.2,39 332,30.6 337.7,30.6 
			330.2,41.1 338.1,52.7 332.5,52.7 326.6,43.5 323.8,43.5 323.8,52.7 319,52.7 		"/>
		<path fill="#5F604B" d="M362,47.9c-2.6,3.3-6.3,5.3-10.3,5.4c-7.7,0-12.2-5.8-12.2-11.6c0-5.8,4.5-11.6,12.2-11.6
			c4.6,0,11.5,3.8,11.5,12.4v0.9h-18.4c0.3,3.4,3.4,5.8,6.8,5.8c2.6,0,4.7-1.2,6.4-3.4L362,47.9z M357.6,39.4
			c-1-3.4-3.5-5.2-6.5-5.2c-3,0-5.5,1.9-6.3,5.2H357.6z"/>
		<path fill="#5F604B" d="M366.1,30.6h4.7v13c0,3.7,2.3,5.3,5.2,5.3c3.7,0,5.5-2.3,5.5-5.7V30.6h4.7v21.4c0,6.8-6,9.7-10.1,9.7
			c-5,0-7.2-1.9-9.4-4.3l4-2.5c1.5,1.5,3,2.3,5.1,2.3c3.1,0,5.9-1.9,5.9-5.8v-1.2h-0.1c-1.9,2.1-3.6,3-6.7,3c-4.9,0-8.9-3.7-8.9-9.9
			V30.6z"/>
		<path fill="#939481" d="M392.6,33.1h0.6c0.3,0,0.5,0,0.6-0.1c0.1-0.1,0.2-0.2,0.2-0.3c0-0.1,0-0.2-0.1-0.2c0-0.1-0.1-0.1-0.2-0.2
			c-0.1,0-0.2,0-0.5,0h-0.5V33.1z M392.1,34.8v-2.9h1c0.3,0,0.6,0,0.7,0.1c0.2,0.1,0.3,0.2,0.4,0.3c0.1,0.1,0.1,0.3,0.1,0.4
			c0,0.2-0.1,0.4-0.2,0.6c-0.1,0.2-0.4,0.2-0.6,0.3c0.1,0,0.2,0.1,0.2,0.2c0.1,0.1,0.3,0.3,0.4,0.6l0.4,0.6H394l-0.3-0.5
			c-0.2-0.4-0.4-0.6-0.5-0.7c-0.1-0.1-0.2-0.1-0.4-0.1h-0.3v1.2H392.1z M393.3,31c-0.4,0-0.8,0.1-1.1,0.3c-0.4,0.2-0.7,0.5-0.9,0.8
			c-0.2,0.4-0.3,0.8-0.3,1.1c0,0.4,0.1,0.8,0.3,1.1c0.2,0.4,0.5,0.6,0.8,0.8c0.4,0.2,0.7,0.3,1.1,0.3c0.4,0,0.8-0.1,1.1-0.3
			c0.4-0.2,0.6-0.5,0.8-0.8c0.2-0.4,0.3-0.7,0.3-1.1c0-0.4-0.1-0.8-0.3-1.1c-0.2-0.4-0.5-0.6-0.9-0.8C394,31.1,393.7,31,393.3,31
			 M393.3,30.5c0.5,0,0.9,0.1,1.3,0.4c0.4,0.2,0.8,0.6,1,1c0.2,0.4,0.4,0.9,0.4,1.4c0,0.5-0.1,0.9-0.4,1.4c-0.2,0.4-0.6,0.8-1,1
			c-0.4,0.2-0.9,0.4-1.4,0.4c-0.5,0-0.9-0.1-1.4-0.4c-0.4-0.2-0.8-0.6-1-1c-0.2-0.4-0.4-0.9-0.4-1.4c0-0.5,0.1-0.9,0.4-1.4
			c0.2-0.4,0.6-0.8,1-1C392.4,30.6,392.8,30.5,393.3,30.5"/>
	</g>
</g>
<rect fill="none" width="411" height="85"/>
</svg>
