<?xml version="1.0" encoding="utf-8"?>
<!-- Generator: Adobe Illustrator 18.1.1, SVG Export Plug-In . SVG Version: 6.00 Build 0)  -->
<svg version="1.1" id="Layer_1" xmlns="http://www.w3.org/2000/svg" xmlns:xlink="http://www.w3.org/1999/xlink" x="0px" y="0px"
	 viewBox="0 0 587.9 587.9" enable-background="new 0 0 587.9 587.9" xml:space="preserve">
<g>
	<path fill="#00B2D5" d="M293.9,587.9c162.3,0,293.9-131.6,293.9-293.9C587.9,131.6,456.3,0,293.9,0C131.6,0,0,131.6,0,293.9
		C0,456.3,131.6,587.9,293.9,587.9L293.9,587.9z"/>
	<path fill="#FFFFFF" d="M140.7,293.1l50.2-50.3c1.7-1.7,2.6-3.9,2.6-6.3c0-5-4-9-9-9c-2.4,0-4.7,0.9-6.4,2.7
		c0,0-50.1,50.1-50.1,50.1l-50.3-50.2c-1.7-1.7-4-2.6-6.3-2.6c-5,0-9,4-9,9c0,2.4,1,4.7,2.7,6.4l50.2,50.1L65,343.2
		c-1.8,1.7-2.7,4-2.7,6.4c0,5,4,9,9,9c2.4,0,4.6-0.9,6.3-2.6l50.3-50.2l50.1,50c1.8,1.8,4.1,2.8,6.5,2.8c5,0,9-4,9-9
		c0-2.4-0.9-4.6-2.6-6.3L140.7,293.1L140.7,293.1z"/>
	<path fill="#FFFFFF" d="M438.9,293.1c0,9,7.3,16.3,16.3,16.3c9,0,16.3-7.3,16.3-16.3c0-9-7.3-16.3-16.3-16.3
		C446.2,276.7,438.9,284.1,438.9,293.1L438.9,293.1z"/>
	<path fill="#FFFFFF" d="M389.3,293.1c0,36.3,29.6,65.9,65.9,65.9c36.3,0,65.9-29.6,65.9-65.9c0-36.3-29.6-65.9-65.9-65.9
		C418.9,227.2,389.3,256.7,389.3,293.1L389.3,293.1z M407.9,293.1c0-26.1,21.2-47.3,47.3-47.3c26.1,0,47.3,21.2,47.3,47.3
		c0,26.1-21.2,47.3-47.3,47.3C429.1,340.4,407.9,319.1,407.9,293.1L407.9,293.1z"/>
	<path fill="#FFFFFF" d="M384.6,228.3l-2.8,0c-8.3,0-16.3,2.6-23,7.8c-0.9-4-4.5-7.1-8.8-7.1c-4.9,0-8.9,4-8.9,8.9c0,0,0,111,0,111
		c0,4.9,4,9,9,9c4.9,0,9-4,9-9c0,0,0-68.3,0-68.3c0-22.7,2.1-31.9,21.6-34.4c1.8-0.2,3.8-0.2,3.8-0.2c5.3-0.2,9.1-3.8,9.1-8.8
		C393.7,232.3,389.6,228.3,384.6,228.3L384.6,228.3z"/>
	<path fill="#FFFFFF" d="M323,280.5c-3.9-18.3-13.9-33.4-29.2-43.1c-22.3-14.2-51.9-13.4-73.4,1.9c-17.6,12.5-27.8,33-27.8,54.1
		c0,5.3,0.6,10.6,2,15.9c6.6,26.2,29.1,46,55.9,49.2c8,1,15.7,0.5,23.7-1.6c6.9-1.7,13.6-4.5,19.7-8.4c6.4-4.1,11.7-9.5,16.9-16
		c0.1-0.1,0.2-0.2,0.3-0.4c3.6-4.4,2.9-10.8-1-13.8c-3.3-2.5-8.9-3.6-13.3,2c-0.9,1.3-2,2.7-3.2,4.1c-3.5,3.9-7.8,7.6-13,10.5
		c-6.6,3.5-14.1,5.5-22.1,5.6c-26.1-0.3-40.1-18.5-45.1-31.6c-0.9-2.4-1.5-5-2-7.6c-0.1-0.5-0.1-1-0.1-1.4c5.4,0,93.8,0,93.8,0
		C318,300,324.9,290.9,323,280.5L323,280.5z M212.1,282.2c0-0.2,0-0.5,0-0.8c5.2-20.6,23.9-35.9,46.1-35.9
		c22.5,0,41.4,15.6,46.3,36.6H212.1L212.1,282.2z"/>
</g>
</svg>
