<?xml version="1.0" encoding="utf-8"?>
<!-- Generator: Adobe Illustrator 15.1.0, SVG Export Plug-In . SVG Version: 6.00 Build 0)  -->
<!DOCTYPE svg PUBLIC "-//W3C//DTD SVG 1.1//EN" "http://www.w3.org/Graphics/SVG/1.1/DTD/svg11.dtd">
<svg version="1.1" id="Layer_1" xmlns="http://www.w3.org/2000/svg" xmlns:xlink="http://www.w3.org/1999/xlink" x="0px" y="0px"
	 width="108px" height="146px" viewBox="0 0 108 146" enable-background="new 0 0 108 146" xml:space="preserve">
<g>
	<path fill="#CCCCCC" d="M25.004,139.752V14.848H55.46v-4.461H25.004H2.7v133.826h22.305H105.3V49.3h-4.462v90.452H25.004
		L25.004,139.752z M20.543,14.848v124.904H7.161V14.848H20.543z"/>
	<path fill="#CCCCCC" d="M36.157,90.683v31.227h53.529V90.683H36.157z M40.617,117.449V95.144h44.608v22.305H40.617L40.617,117.449z
		"/>
	<rect x="47.308" y="108.526" fill="#CCCCCC" width="31.227" height="4.461"/>
	<rect x="47.308" y="99.604" fill="#CCCCCC" width="31.227" height="4.461"/>
</g>
<path fill="#29ADE4" d="M105.178,5.377c-1.141-0.472-2.45-0.21-3.322,0.663c-3.853,3.85-10.122,3.852-13.98,0
	c-6.234-6.229-16.372-6.229-22.603,0c-0.572,0.57-0.893,1.347-0.893,2.155v39.632c0,1.683,1.361,3.048,3.048,3.048
	c1.688,0,3.049-1.366,3.049-3.048V33.947c3.874-3.043,9.515-2.781,13.087,0.792c6.235,6.229,16.375,6.229,22.603,0
	c0.571-0.575,0.894-1.349,0.894-2.156V8.195C107.06,6.959,106.315,5.851,105.178,5.377z"/>
</svg>
