<?xml version="1.0" encoding="utf-8"?>
<!-- Generator: Adobe Illustrator 18.1.1, SVG Export Plug-In . SVG Version: 6.00 Build 0)  -->
<svg version="1.1" id="Logo" xmlns="http://www.w3.org/2000/svg" xmlns:xlink="http://www.w3.org/1999/xlink" x="0px" y="0px"
	 viewBox="0 0 2595.7 270.7" enable-background="new 0 0 2595.7 270.7" xml:space="preserve">
<rect x="1.9" y="0" fill="#19A9E5" width="2593.8" height="269.1"/>
<g>
	<g>
		<path fill="#FFFFFF" d="M1279.9,11.5c-10.3,0-18.3,2.2-18.3,11.8v9.3c0,9.5,7.9,12,18.3,12c10.4,0,18.3-2.5,18.3-12v-9.3
			C1298.2,13.8,1290.2,11.5,1279.9,11.5z"/>
		<path fill="#FFFFFF" d="M1287.3,63.4h-14.6c-4.8,0-8.8,3.9-8.8,8.7v125.3c0,4.8,3.9,8.8,8.8,8.8h14.6c4.8,0,8.8-3.9,8.8-8.8V72.1
			C1296.1,67.3,1292.1,63.4,1287.3,63.4z"/>
		<path fill="#FFFFFF" d="M861.6,61.9c-21.2,0-36.1,9.3-47.2,24.1c-7.4-14.9-21.7-24.1-41.9-24.1c-21.5,0-33.7,11.7-42.7,24.1
			l0-13.9c0-4.8-3.9-8.7-8.8-8.7h-14.6c-4.8,0-8.7,3.9-8.7,8.7v125.3c0,4.8,3.9,8.8,8.7,8.8H721c4.8,0,8.8-3.9,8.8-8.8l0-71.6
			c0-21.5,12.2-34.7,30-34.7c17.8,0,28.4,12.2,28.4,33.9v72.4c0,4.8,3.9,8.8,8.8,8.8h14.6c4.8,0,8.7-3.9,8.7-8.8v-71.6
			c0-22.5,12.5-34.7,30-34.7c18,0,28.4,11.9,28.4,34.2l0,72.1c0,4.8,3.9,8.8,8.7,8.8h14.6c4.8,0,8.7-3.9,8.7-8.8v-81.9
			C910.6,81.3,892,61.9,861.6,61.9z"/>
		<path fill="#FFFFFF" d="M2214.8,11.5c-10.3,0-18.3,2.2-18.3,11.8v9.3c0,9.5,8,12,18.3,12c10.4,0,18.3-2.5,18.3-12v-9.3
			C2233.1,13.8,2225.2,11.5,2214.8,11.5z"/>
		<path fill="#FFFFFF" d="M2222.3,63.4h-14.6c-4.8,0-8.7,3.9-8.7,8.7v125.3c0,4.8,3.9,8.8,8.7,8.8h14.6c4.8,0,8.7-3.9,8.7-8.8V72.1
			C2231,67.3,2227.1,63.4,2222.3,63.4z"/>
		<path fill="#FFFFFF" d="M455.6,48.7c14,0,27.1,4.4,38.2,12.8c1.5,1.1,3.2,1.7,5.1,1.7c2.2,0,4.4-0.9,6-2.5l11.2-11.2
			c1.7-1.7,2.6-4,2.5-6.4c-0.1-2.4-1.3-4.6-3.2-6.1c-17.1-13.7-37.7-20.9-59.7-20.9c-52.8,0-95.8,43-95.8,95.8
			c0,52.8,43,95.8,95.8,95.8c22,0,42.7-7.2,59.7-20.9c1.9-1.5,3-3.7,3.1-6.1c0.1-2.4-0.8-4.7-2.4-6.4l-11.2-11.2
			c-1.6-1.6-3.7-2.5-6-2.5c-1.9,0-3.6,0.6-5.1,1.7c-11,8.4-24.2,12.8-38.2,12.8c-34.9,0-63.3-28.4-63.3-63.3
			C392.4,77.1,420.7,48.7,455.6,48.7z"/>
		<path fill="#FFFFFF" d="M1447.7,63.4h-14.6c-4.8,0-8.8,3.9-8.8,8.7v14c-10.3-14.6-24.9-24.1-47.7-24.1c-32.9,0-64.9,26-64.9,72.6
			v0.5c0,46.4,31.8,72.6,64.9,72.6c23.3,0,37.9-10.7,47.7-23.7l0.3-0.3v13c0,24.1-18.6,46.2-44.6,46.2c-16,0-30.6-7.4-37.9-19.8
			c-2.5-4.1-7.9-5.4-12-2.9l-6.2,4.1c-4.1,2.5-5.5,7.9-3,12c12,19.7,33.4,32.8,60.5,32.8c46.4,0,75-33.1,75-72.9V72.1
			C1456.5,67.3,1452.6,63.4,1447.7,63.4z M1421.5,135.2c0,26.8-18.4,44.8-39.3,44.8c-21.2,0-37.9-17.2-37.9-44.8v-0.5
			c0-27,16.9-44.8,37.9-44.8c20.9,0,39.3,18,39.3,44.8V135.2z"/>
		<path fill="#FFFFFF" d="M2126.6,62c-21.8,0-34.7,11-43.8,24V72.1c0-4.8-3.9-8.7-8.7-8.7h-14.6c-4.8,0-8.7,3.9-8.7,8.7v125.3
			c0,4.8,3.9,8.8,8.7,8.8h14.6c4.8,0,8.7-3.9,8.7-10.1l0-75.4c0-17,13.8-30.8,30.8-30.8s30.8,13.8,30.8,30.8v76.7
			c0,4.8,3.9,8.8,8.7,8.8h14.6c4.8,0,8.7-3.9,8.7-8.8v-81.8C2176.4,83.2,2158.1,62,2126.6,62z"/>
		<path fill="#FFFFFF" d="M1554.8,62c-21.8,0-34.7,11-43.8,24V72.1c0-4.8-3.9-8.7-8.7-8.7h-14.6c-4.8,0-8.7,3.9-8.7,8.7v125.3
			c0,4.8,3.9,8.8,8.7,8.8h14.6c4.8,0,8.7-3.9,8.7-10.1l0-75.4c0-17,13.8-30.8,30.8-30.8c17,0,30.8,13.8,30.8,30.8v76.7
			c0,4.8,3.9,8.8,8.7,8.8h14.6c4.8,0,8.7-3.9,8.7-8.8v-81.8C1604.6,83.2,1586.3,62,1554.8,62z"/>
		<path fill="#FFFFFF" d="M2592.1,63.7c-0.4-0.2-0.7-0.3-0.9-0.4c-0.4-0.1-0.7-0.2-1.1-0.3c-3-0.7-6.1-1-9.3-1
			c-16.7,0-31.2,9.8-37.9,23.9V72.1c0-4.8-3.9-8.7-8.8-8.7h-14.6c-4.8,0-8.8,3.9-8.8,8.7v125.3c0,4.8,3.9,8.7,8.8,8.7h14.6
			c4.8,0,8.8-3.9,8.8-8.7v-53c0-42.8,22.3-50.5,35.2-49.5c2.5,0.2,4.7,0.5,6.6,0.8c0,0,0.7,0.1,1.1,0.1c0.2,0,0.4,0,0.5,0
			c3,0,5.5-2.1,6.1-5l3.2-20.6c0-0.3,0.1-0.6,0.1-0.9C2595.7,66.8,2594.2,64.7,2592.1,63.7z"/>
		<path fill="#FFFFFF" d="M1960.2,62c-43,0-74.5,32.6-74.5,72.6v0.3v0.3c0,40,31.5,72.6,74.5,72.6s74.5-32.6,74.5-72.6V135v-0.3
			C2034.7,94.6,2003.2,62,1960.2,62z M2002.1,135v0.4c0,24.5-17,44.3-41.9,44.5c-24.9-0.3-41.9-20.1-41.9-44.5V135v-0.4
			c0-24.5,17-44.3,41.9-44.5c24.9,0.3,41.9,20.1,41.9,44.5V135z"/>
		<path fill="#FFFFFF" d="M2419.6,62c-43,0-74.5,32.6-74.5,72.6v0.3v0.3c0,40,31.5,72.6,74.5,72.6c43,0,74.5-32.6,74.5-72.6V135
			v-0.3C2494.1,94.6,2462.6,62,2419.6,62z M2461.6,135v0.4c0,24.5-17,44.3-41.9,44.5c-24.9-0.3-41.9-20.1-41.9-44.5V135v-0.4
			c0-24.5,17-44.3,41.9-44.5c24.9,0.3,41.9,20.1,41.9,44.5V135z"/>
		<path fill="#FFFFFF" d="M1860.4,18.2h-14.6c-2.9,0-5.4,1.4-7,3.5l-60.3,82.3l-60.3-82.3c-1.6-2.1-4.1-3.5-7-3.5h-14.6
			c-4.8,0-8.7,3.9-8.7,8.8v170.4c0,4.8,3.9,8.8,8.7,8.8h14.6c4.8,0,8.8-3.9,8.8-8.8V79.1l53.2,68.3c0,0.1,0.1,0.1,0.1,0.1l0.4,0.5h0
			c1.2,1.3,2.9,2.2,4.8,2.2c1.9,0,3.6-0.8,4.8-2.2h0l0.4-0.5c0,0,0.1-0.1,0.1-0.1l53.2-68.3v118.2c0,4.8,3.9,8.8,8.8,8.8h14.6
			c4.8,0,8.7-3.9,8.7-8.8V26.9C1869.1,22.1,1865.2,18.2,1860.4,18.2z"/>
		<polygon fill="#FFFFFF" points="1778.5,150.3 1778.5,150.3 1778.5,150.3 		"/>
		<path fill="#FFFFFF" d="M1012.9,62c-22.8,0-37.4,9.4-47.7,24V72.1c0-4.8-3.9-8.7-8.8-8.7h-14.6c-4.8,0-8.7,3.9-8.7,8.7V256
			c0,4.8,3.9,8.8,8.7,8.8h14.6c4.8,0,8.8-3.9,8.8-8.8v-72.2c9.8,13,24.4,24,47.7,24c33.1,0,64.9-26.3,64.9-72.6v-0.5
			C1077.9,88,1045.8,62,1012.9,62z M1045.3,135.2c0,26.8-18.4,44.8-39.3,44.8c-21.2,0-37.9-17.2-37.9-44.8v-0.5
			c0-27,16.9-44.8,37.9-44.8c20.9,0,39.3,18,39.3,44.8V135.2z"/>
		<path fill="#FFFFFF" d="M676.6,183.5L676.6,183.5L676.6,183.5c-3.4,0-6.2-2.8-6.2-6.2V72.1c0-4.8-3.9-8.7-8.8-8.7h-14.6
			c-4.8,0-8.7,3.9-8.7,8.7V86c-10.3-14.6-24.9-24-47.7-24c-32.9,0-64.9,26-64.9,72.6v0.5c0,46.4,31.8,72.6,64.9,72.6
			c24,0,41-10.8,48.2-24c3.7,12.9,15.5,22.3,29.6,22.3v0l8.1,0c3.4,0,6.2-2.8,6.2-6.2l0-10.3C682.8,186.2,680,183.5,676.6,183.5z
			 M635.4,135.2c0,26.8-18.4,44.8-39.3,44.8c-21.2,0-37.9-17.2-37.9-44.8v-0.5c0-27,16.9-44.8,37.9-44.8c20.9,0,39.3,18,39.3,44.8
			V135.2z"/>
		<path fill="#FFFFFF" d="M1242.5,183.5L1242.5,183.5L1242.5,183.5c-3.4,0-6.2-2.8-6.2-6.2V72.1c0-4.8-3.9-8.7-8.8-8.7H1213
			c-4.8,0-8.8,3.9-8.8,8.7V86c-10.3-14.6-24.9-24-47.7-24c-32.9,0-64.9,26-64.9,72.6v0.5c0,46.4,31.8,72.6,64.9,72.6
			c24,0,41-10.8,48.2-24c3.7,12.9,15.5,22.3,29.6,22.3v0l8.1,0c3.4,0,6.2-2.8,6.2-6.2l0-10.3
			C1248.7,186.2,1245.9,183.5,1242.5,183.5z M1201.4,135.2c0,26.8-18.4,44.8-39.3,44.8c-21.2,0-37.9-17.2-37.9-44.8v-0.5
			c0-27,16.9-44.8,37.9-44.8c20.9,0,39.3,18,39.3,44.8V135.2z"/>
		<path fill="#FFFFFF" d="M2329.3,63.4h-30.5V24.3h0c0-1.2-0.4-2.4-1.1-3.5c-2-2.8-5.8-3.5-8.6-1.5l0,0L2273.8,30
			c-4.3,2.9-7.1,7.9-7.1,13.5v19.9h-10.3c-4.8,0-8.8,3.9-8.8,8.7v9c0,4.8,3.9,8.7,8.8,8.7h10.3v77c0,30.7,16.7,41.1,40.3,41.1
			c12.5,0,25.4-4.8,25.4-4.8s4.4-1.3,3.2-6.4c-0.4-1.7-2.5-13.7-2.5-13.7c-0.5-2.9-1.7-5.3-5.9-4.6c-2.1,0.3-5.9,0.9-11.2,0.9
			c-10.9,0-17.2-5-17.2-17.5v-72h30.5c4.8,0,8.8-3.9,8.8-8.7v-9C2338,67.3,2334.1,63.4,2329.3,63.4z"/>
	</g>
	<g>
		<path fill="#FFFFFF" d="M258.1,35.3c-3.1-4.4-9.2-5.5-13.7-2.4L3.7,201.5c1.8,2.5,4.7,4.2,8,4.2l0,0v0h238.4
			c5.4,0,9.8-4.4,9.8-9.8V40.8C259.9,38.9,259.3,37,258.1,35.3"/>
		<path fill="#FFFFFF" d="M17.4,32.9c-4.4-3.1-10.6-2-13.7,2.4c-1.2,1.7-1.7,3.6-1.8,5.5l0,155.4l114.6-93.9L17.4,32.9z"/>
	</g>
</g>
</svg>
