<?xml version="1.0" encoding="utf-8"?>
<!-- Generator: Adobe Illustrator 15.1.0, SVG Export Plug-In . SVG Version: 6.00 Build 0)  -->
<!DOCTYPE svg PUBLIC "-//W3C//DTD SVG 1.1//EN" "http://www.w3.org/Graphics/SVG/1.1/DTD/svg11.dtd">
<svg version="1.1" id="Layer_1" xmlns="http://www.w3.org/2000/svg" xmlns:xlink="http://www.w3.org/1999/xlink" x="0px" y="0px"
	 width="72px" height="72px" viewBox="0 0 72 72" enable-background="new 0 0 72 72" xml:space="preserve">
<path fill="#CCCCCC" d="M61.886,66.898V7.904h2.843V3.799H7.272v4.104h2.116v58.995H1.8v2.736h68.4v-2.736H61.886z M59.148,66.729
	H39.451v-9.234c0-2.078-1.721-3.763-3.847-3.763c-2.125,0-3.847,1.684-3.847,3.762h-0.001v9.234H12.124V9.016h47.024V66.729z"/>
<rect x="19.24" y="16.133" fill="#2DACE3" width="6.234" height="6.234"/>
<rect x="32.52" y="16.133" fill="#2DACE3" width="6.234" height="6.234"/>
<rect x="45.801" y="16.133" fill="#2DACE3" width="6.231" height="6.234"/>
<rect x="19.24" y="28.168" fill="#2DACE3" width="6.234" height="6.232"/>
<rect x="32.52" y="28.168" fill="#2DACE3" width="6.234" height="6.232"/>
<rect x="45.801" y="28.168" fill="#2DACE3" width="6.231" height="6.232"/>
<rect x="19.24" y="40.27" fill="#2DACE3" width="6.234" height="6.233"/>
<rect x="32.52" y="40.27" fill="#2DACE3" width="6.234" height="6.233"/>
<rect x="45.801" y="40.269" fill="#2DACE3" width="6.231" height="6.233"/>
<rect x="19.24" y="52.093" fill="#2DACE3" width="6.234" height="6.234"/>
<rect x="45.801" y="52.093" fill="#2DACE3" width="6.231" height="6.234"/>
<path d="M52.032,58.327"/>
</svg>
