<?xml version="1.0" encoding="utf-8"?>
<!-- Generator: Adobe Illustrator 15.1.0, SVG Export Plug-In . SVG Version: 6.00 Build 0)  -->
<!DOCTYPE svg PUBLIC "-//W3C//DTD SVG 1.1//EN" "http://www.w3.org/Graphics/SVG/1.1/DTD/svg11.dtd">
<svg version="1.1" id="Layer_1" xmlns="http://www.w3.org/2000/svg" xmlns:xlink="http://www.w3.org/1999/xlink" x="0px" y="0px"
	 width="72px" height="72px" viewBox="0 0 72 72" enable-background="new 0 0 72 72" xml:space="preserve">
<g>
	<path fill="#CCCCCC" d="M43.152,17.743c3.185,1.999,5.418,5.376,5.825,9.301c1.296,0.604,2.74,0.952,4.269,0.952
		c5.577,0,10.102-4.52,10.102-10.098c0-5.582-4.524-10.102-10.102-10.102C47.718,7.797,43.235,12.236,43.152,17.743L43.152,17.743z
		 M57.53,28.689h-8.503c-0.093,3.399-1.545,6.467-3.845,8.671c6.342,1.885,10.979,7.761,10.979,14.707v3.228
		c8.398-0.308,13.237-2.687,13.557-2.846l0.672-0.344h0.075V41.621C70.466,34.489,64.661,28.689,57.53,28.689L57.53,28.689z
		 M18.808,28c1.978,0,3.816-0.579,5.372-1.562c0.496-3.227,2.23-6.052,4.701-7.974c0.009-0.188,0.03-0.373,0.03-0.566
		c0-5.577-4.525-10.102-10.104-10.102c-5.577,0-10.102,4.524-10.102,10.102C8.706,23.476,13.23,28,18.808,28L18.808,28z
		 M27.883,37.36c-2.288-2.195-3.736-5.243-3.842-8.625c-0.315-0.021-0.629-0.046-0.947-0.046h-8.571
		c-7.135,0-12.935,5.8-12.935,12.932v10.484l0.024,0.163l0.722,0.227c5.46,1.704,10.333,2.489,14.568,2.736v-3.164
		C16.903,45.121,21.54,39.245,27.883,37.36L27.883,37.36z M27.883,37.36"/>
</g>
<g>
	<path fill="#2DACE3" d="M36.532,38.426L36.532,38.426c5.583,0,10.103-4.52,10.103-10.102c0-5.578-4.52-10.098-10.103-10.098
		c-5.578,0-10.102,4.52-10.102,10.103C26.43,33.906,30.955,38.426,36.532,38.426"/>
	<path fill="#2DACE3" d="M40.818,39.115L40.818,39.115h-8.571c-7.131,0-12.935,5.803-12.935,12.936v10.483l0.029,0.164l0.722,0.227
		c6.804,2.124,12.718,2.833,17.585,2.833c9.508,0,15.015-2.708,15.358-2.884l0.672-0.34h0.071V52.051
		C53.754,44.918,47.948,39.115,40.818,39.115"/>
</g>
</svg>
