<?xml version="1.0" encoding="utf-8"?>
<!-- Generator: Adobe Illustrator 18.1.1, SVG Export Plug-In . SVG Version: 6.00 Build 0)  -->
<svg version="1.1" id="Layer_1" xmlns="http://www.w3.org/2000/svg" xmlns:xlink="http://www.w3.org/1999/xlink" x="0px" y="0px"
	 viewBox="0 0 478 97.8" enable-background="new 0 0 478 97.8" xml:space="preserve">
<polygon fill="#7CA01B" points="1.1,24.9 42.6,0.7 84.3,24.8 84.2,72.8 42.7,96.9 0.9,72.8 "/>
<g>
	<g>
		<polygon fill="#5F7E14" points="42.8,49 42.7,96.9 0.9,72.8 1.1,24.9 		"/>
	</g>
	<g>
		<polygon fill="none" points="15.9,64.1 39.2,77.5 39.2,19.8 15.9,33.2 		"/>
		<polygon fill="none" points="46.2,47 69.7,33.3 46.2,19.8 		"/>
		<polygon fill="#7C9F1B" points="76.7,29.3 69.7,33.3 46.2,47 46.2,77.5 76.4,60.3 76.4,68.3 42.7,87.6 42.7,96.9 84.2,72.8 
			84.3,24.8 		"/>
		<g>
			<polygon fill="none" points="39.2,77.5 39.2,46.9 15.9,33.4 15.9,64.1 			"/>
			<polygon fill="#85AD1D" points="39.2,19.8 15.9,33.2 15.8,33.3 39.2,46.9 			"/>
			<polygon fill="#85AD1D" points="42.7,9.7 76.7,29.3 84.3,24.8 42.6,0.7 1.1,24.9 8.8,29.3 9,29.2 			"/>
			<polygon fill="#85AD1D" points="46.2,47 69.7,33.3 46.2,19.8 			"/>
			<rect x="73.2" y="27.2" fill="#FFFFFF" width="0" height="8.1"/>
			<polygon fill="#FFFFFF" points="46.2,47 46.2,47 42.8,49 			"/>
			<polygon fill="#D9D9D9" points="39.2,77.5 15.8,64.1 15.8,33.3 8.8,29.3 8.8,68.1 42.7,87.6 42.7,87.6 42.8,49 39.2,46.9 			"/>
			<polygon fill="#F5F5F5" points="42.7,9.7 8.8,29.3 15.8,33.3 15.8,33.3 39.2,19.8 39.2,46.9 42.8,49 46.2,47 46.2,19.8 
				69.7,33.3 76.7,29.3 			"/>
		</g>
		<polygon fill="#ECECEC" points="76.4,60.2 46.2,77.5 46.2,47 42.8,49 42.7,87.6 76.4,68.3 		"/>
	</g>
</g>
<g>
	<path fill="#2C2C2C" d="M131,65.5c-4.4,4.7-10.7,7-19.2,7H94.2V24.9h17.6c9,0,14.6,2,19.3,7c4.1,4.4,6.4,10.4,6.4,16.6
		C137.5,54.9,135.2,61,131,65.5z M122.3,35.7c-2.5-1.9-6.2-2.8-11.4-2.8h-7.2v31.5h7.2c10.8,0,16.8-5.7,16.8-15.8
		C127.8,43.2,125.7,38.2,122.3,35.7z"/>
	<path fill="#2C2C2C" d="M143.9,72.4V24.9h28.9l-1.4,7.7h-18.4v11.7h16.3v7.7h-16.3v12.7h18l2.8,7.7H143.9z"/>
	<path fill="#2C2C2C" d="M182.6,72.4V24.9h28.9l-1.4,7.7h-18.4v11.7h16.3v7.7h-16.3v12.7h18l2.8,7.7H182.6z"/>
	<path fill="#2C2C2C" d="M249.4,52.3c-3.4,2.9-7.6,4.1-14,4.1c-1.8,0-2.8-0.1-4.4-0.2v16.3h-9.1V24.9h16.3c6.2,0,9.6,1.1,12.6,3.9
		c2.7,2.7,4,6.3,4,10.7C254.8,44.7,253,49.3,249.4,52.3z M237.3,32.6H231v15.8l1.1,0.1h1.2c1,0,1.7,0.1,2,0.1
		c7.1,0,10.2-2.6,10.2-8.4C245.5,35,243,32.6,237.3,32.6z"/>
	<path fill="#7C9F1B" d="M328.2,72.4l-10.9-19h-4.5v19h-9.1V24.9h15.8c6.9,0,10.1,0.9,12.9,3.5c2.6,2.4,3.9,5.8,3.9,10.3
		c0,3.7-0.9,6.6-2.6,8.9c-1.8,2.3-3.5,3.3-7.4,4.4l11.8,20.4H328.2z M318.7,32.6h-5.9v13.1h5.9c5.8,0,8.3-2,8.3-6.8
		C327,34.4,324.7,32.6,318.7,32.6z"/>
	<path fill="#7C9F1B" d="M373.7,72.4L370,60.7h-15.9l-3.9,11.7h-9.5l17.2-47.5h8.1l17.2,47.5H373.7z M362,35.8L356.5,53h11L362,35.8
		z"/>
	<path fill="#7C9F1B" d="M423.9,73.4h-6.3L410.4,53l-7.3,20.4h-5.8l-18.1-48.5h9.5l12.2,35.8l5.9-15.8l-7.7-19.9h8.1l3.6,9.5
		l3.2-9.5h7.7l-7.3,19l6.8,16.3l11.3-35.3h8.6L423.9,73.4z"/>
	<path fill="#7C9F1B" d="M291.9,34.3c-2.4-1.4-4.3-1.8-8.5-1.8c-9.1,0-15.7,6.5-15.7,15.5c0,10.2,6.8,16.9,17.1,16.9
		c3.4,0,5.2-0.5,7.2-1.1l4.9,6.5c-3,1.4-4.2,1.8-6.4,2.3c-2.3,0.5-4.8,0.8-7.6,0.8c-7.4,0-12.7-1.9-17.2-5.9c-5-4.5-8-11.6-8-19
		c0-6.9,2.6-13.2,7.3-17.8c4.8-4.7,10.1-6.6,17.9-6.6c6,0,10.8,1.4,14.9,4.5L291.9,34.3z"/>
	<path fill="#7C9F1B" d="M447.5,72.4V24.9h9.1v39.8h16.7l2.8,7.7H447.5z"/>
</g>
</svg>
