<?xml version="1.0" encoding="utf-8"?>
<!-- Generator: Adobe Illustrator 18.1.1, SVG Export Plug-In . SVG Version: 6.00 Build 0)  -->
<svg version="1.1" id="Layer_1" xmlns="http://www.w3.org/2000/svg" xmlns:xlink="http://www.w3.org/1999/xlink" x="0px" y="0px"
	 viewBox="0 0 300 300" enable-background="new 0 0 300 300" xml:space="preserve">
<rect fill="#FFFFFF" width="300" height="300"/>
<g>
	<path fill="#664F44" d="M253,253c-0.8,0.8-1.8,1.2-3,1.2c-1.2,0-2.2-0.4-3-1.2c-0.8-0.8-1.2-1.8-1.2-3c0-1.2,0.4-2.3,1.3-3.1
		c0.8-0.8,1.8-1.1,2.9-1.1c1.2,0,2.2,0.4,3,1.2c0.8,0.8,1.2,1.8,1.2,3C254.3,251.2,253.9,252.2,253,253z M247.6,247.5
		c-0.7,0.7-1,1.5-1,2.4c0,1,0.3,1.8,1,2.5c0.7,0.7,1.5,1,2.5,1c1,0,1.8-0.3,2.5-1c0.7-0.7,1-1.5,1-2.5c0-0.9-0.3-1.8-1-2.4
		c-0.7-0.7-1.5-1.1-2.5-1.1C249.1,246.5,248.3,246.8,247.6,247.5z M251.4,252.1c-0.4,0.3-0.8,0.4-1.2,0.4c-0.6,0-1.2-0.2-1.7-0.7
		c-0.5-0.5-0.7-1.1-0.7-1.8c0-0.7,0.2-1.3,0.6-1.8c0.4-0.5,1-0.7,1.7-0.7c0.4,0,0.8,0.1,1.2,0.3c0.5,0.3,0.9,0.8,1,1.6l-1.1,0
		c-0.1-0.3-0.2-0.6-0.4-0.7c-0.2-0.1-0.4-0.2-0.6-0.2c-0.3,0-0.6,0.1-0.8,0.4c-0.2,0.3-0.3,0.7-0.3,1.2c0,0.5,0.1,0.9,0.3,1.1
		c0.2,0.2,0.5,0.4,0.8,0.4c0.3,0,0.5-0.1,0.7-0.2c0.1-0.2,0.2-0.4,0.3-0.6h1C252.1,251.3,251.8,251.8,251.4,252.1z"/>
	<path fill="#664F44" d="M262.1,207.7c0-0.4-0.1-0.8-0.1-1.2c0-0.3-0.1-0.5-0.1-0.7c-0.1-0.6-0.2-1.1-0.4-1.7l0,0
		c-0.4-1.1-1-2.2-1.8-3.1c-0.8-0.9-1.7-1.6-2.6-2.1l0,0c-1-0.5-2-0.8-2.8-1c-0.3,0-0.5-0.1-0.7-0.1c1.1-4.8-0.3-8.5-1.2-10.2
		c0.1-0.1,0.1-0.1,0.2-0.2c1.2-1.2,2.2-2.3,3.1-3.4l0.2-0.2c0.7-1,1.1-2,1.4-2.9c0.2-0.8,0.4-1.5,0.4-2.2l0,0l0,0l0-0.1l0-0.2h0
		l0-0.2h0l0-0.1c0-0.1,0-0.3,0-0.4c0-0.3,0-0.6,0-0.9c-0.1-1.5-0.3-3.4-1.3-5.5c-0.5-1-1.2-2.1-2.1-3.1c-0.9-1-2-1.9-3.3-2.6l0,0
		c-0.1-0.1-0.2-0.1-0.3-0.2c-2.7-3.9-5.7-7-8.4-9.3c-1.4-1.2-2.7-2.2-3.8-3c-1.1-0.8-2-1.4-2.5-1.8l0,0c-1.2-0.9-2.1-1.4-2.5-1.6
		c-1-0.6-1.7-1.1-2.1-1.4c-0.3-0.3-0.5-0.4-0.6-0.5l0,0c0,0,0-0.1-0.1-0.3c-0.1-0.3-0.1-0.7-0.1-1.4c0-1,0-2.5,0.1-4.5
		c0.2-3.2,0.5-7.5,0.9-13.4c0.1-1.9,0.1-3.7,0.1-5.3c-0.1-2.7-0.5-5.1-1-7.3l0,0c-0.1-0.5-0.3-1-0.4-1.5l0,0l0,0
		c-0.1-0.4-0.2-0.6-0.3-0.8l0,0c-0.1-0.3-0.2-0.6-0.4-1l0,0c-0.1-0.2-0.1-0.4-0.3-0.6l0,0l0,0c-0.2-0.5-0.4-1-0.7-1.5l-0.1-0.1
		l-0.1-0.3l-0.1-0.2c-0.5-0.9-1.1-1.7-1.7-2.4c-0.3-1.4-0.8-3.4-1.7-5.7c-0.8-2-1.8-4.2-3.3-6.4c-0.5-0.8-1.1-1.5-1.7-2.2l0.2-0.2
		c0.3-0.3,7.3-7.7,12.9-17.3c10.3-17.9,6.9-28.8,2.2-34.8l-0.1-0.2l-0.1-0.2c-4.5-5-10.7-8-18.2-9c-15.7-2-33.5,5.8-38.2,8l-8.5-9.4
		l0,0c-0.8-0.8-1.6-1.6-2.5-2.2c-0.9-0.6-1.9-1.2-2.9-1.7c-2-0.9-4.2-1.5-6.6-1.8c-4.7-0.6-10.1,0-15.9,1.5
		c-8.7,2.2-18.4,6.6-28.6,12.7c-10.2,6.1-20.8,14-31.1,23.4c-12.6,11.5-23,23.6-30.6,35.2c-3.8,5.8-6.9,11.4-9.2,16.7
		c-2.3,5.3-3.8,10.4-4.4,15c-0.4,3.4-0.4,6.6,0.3,9.5c0.3,1.3,0.7,2.5,1.3,3.7c0.7,1.5,1.6,2.9,2.7,4.1l0,0l8.9,9.3l1,1l-0.1,0.1
		c-0.1,0.2-0.2,0.4-0.3,0.6c-0.2,0.3-0.3,0.6-0.5,0.8c-0.1,0.2-0.2,0.4-0.3,0.6c-0.1,0.3-0.3,0.6-0.4,0.9c-0.1,0.2-0.2,0.4-0.3,0.6
		c-0.1,0.3-0.3,0.6-0.4,0.9c-0.1,0.2-0.2,0.4-0.2,0.6c-0.1,0.3-0.2,0.6-0.3,0.9c-0.1,0.2-0.1,0.4-0.2,0.6c-0.1,0.3-0.2,0.6-0.3,1
		c0,0.1-0.1,0.2-0.1,0.3c0,0.1-0.1,0.2-0.1,0.3c-0.1,0.3-0.2,0.7-0.3,1c0,0.2-0.1,0.4-0.1,0.6c0,0.1-0.1,0.3-0.1,0.4
		c0,0.2-0.1,0.4-0.1,0.6c0,0.2-0.1,0.4-0.1,0.6c-0.1,0.4-0.1,0.8-0.2,1.3c0,0.1,0,0.2-0.1,0.4l0,0l0,0.1c0,0.3-0.1,0.6-0.1,0.8
		c0,0.4-0.1,0.9-0.1,1.3c0,0.2,0,0.4,0,0.6c0,0.2,0,0.3,0,0.5c0,0.3,0,0.6,0,0.9c0,0.2,0,0.4,0,0.6c0,0.1,0,0.2,0,0.3v0v0
		c0,0.2,0,0.4,0,0.6c0,0.2,0,0.4,0,0.7c0,0.2,0,0.3,0,0.5c0,0.1,0,0.3,0,0.3c0,0.2,0,0.4,0.1,0.6c0,0.2,0,0.5,0.1,0.8l0,0v0
		c0,0.1,0,0.2,0,0.3c0,0.2,0.1,0.5,0.1,0.7c0,0.2,0.1,0.4,0.1,0.7c0,0.1,0,0.2,0.1,0.3c0,0.1,0.1,0.3,0.1,0.4l0,0l0,0l0,0.2
		c0,0.2,0.1,0.4,0.2,0.8c0,0.1,0,0.1,0.1,0.2c0.1,0.2,0.1,0.4,0.1,0.5l0.1,0.2c0,0.1,0,0.1,0.1,0.2l0.1,0.2l0,0.2l0,0.1
		c0,0.1,0,0.1,0.1,0.2l0.1,0.2c0,0.2,0.1,0.3,0.1,0.5c0.1,0.2,0.1,0.4,0.2,0.8l0-0.1l0,0.1c0,0.1,0,0.1,0.1,0.2
		c0.1,0.3,0.2,0.5,0.2,0.6l0,0v0c0.1,0.2,0.2,0.4,0.3,0.8l0,0l0,0l0,0l0,0l0,0l0.1,0.1c0.1,0.2,0.1,0.4,0.2,0.5l0.1,0.2l0,0
		c0,0.1,0.1,0.2,0.1,0.3c0,0.1,0.1,0.3,0.2,0.4l0,0l0.1,0.2c0.1,0.1,0.1,0.3,0.2,0.4c0.1,0.1,0.1,0.2,0.1,0.3l0,0l0,0l0,0l0,0l0,0
		c0.1,0.2,0.2,0.4,0.3,0.7l0,0l0,0l0.1,0.1c0.1,0.1,0.1,0.2,0.2,0.3c0.1,0.1,0.1,0.3,0.2,0.4l0,0c0.1,0.1,0.2,0.3,0.3,0.6l0,0l0,0
		l0.1,0.1c0.1,0.1,0.1,0.2,0.2,0.3c0.1,0.2,0.2,0.3,0.2,0.4l0,0l0,0c0.1,0.1,0.2,0.3,0.3,0.5l0,0l0,0.1c0.1,0.1,0.1,0.2,0.2,0.3
		c0.1,0.2,0.2,0.3,0.3,0.4l0,0c0.1,0.1,0.2,0.3,0.4,0.6l0,0l0,0l0,0l0,0l0,0l0,0l0,0l0,0c0.1,0.1,0.2,0.2,0.2,0.3
		c0.1,0.2,0.2,0.3,0.3,0.4l0,0c0.1,0.1,0.2,0.3,0.3,0.5l0,0c0.1,0.1,0.2,0.3,0.3,0.4c0.1,0.2,0.2,0.3,0.4,0.4l0,0
		c0.1,0.1,0.2,0.2,0.3,0.3L56,196l0,0l0,0l0,0l0,0c0.2,0.2,0.3,0.4,0.5,0.6l0.2,0.2v0l0,0l0,0l0,0l0,0c0.1,0.1,0.2,0.2,0.3,0.3l0,0
		l0,0l0,0l0,0l0,0c0.2,0.2,0.4,0.4,0.6,0.6c0.1,0.1,0.2,0.2,0.2,0.2l0,0c0,0,0.1,0.1,0.3,0.3l0,0l0.1,0.1c0.2,0.2,0.5,0.4,0.7,0.7
		l0.1,0.1l0,0l0,0l0,0c0.1,0.1,0.2,0.1,0.3,0.3l0,0c0.3,0.3,0.6,0.5,0.9,0.8l0,0l0.2,0.1l0.1,0.1l0,0l0.2,0.1
		c0.3,0.2,0.5,0.4,0.8,0.6l0.1,0.1l0,0c0.1,0.1,0.2,0.1,0.2,0.1l0,0l0,0c0.1,0.1,0.1,0.1,0.2,0.2c0.2,0.2,0.4,0.3,0.6,0.5l0.2,0.1
		l0,0l0.2,0.2l0,0l0.1,0.1c0.2,0.1,0.5,0.3,0.7,0.4c0.1,0.1,0.2,0.2,0.4,0.2l0.2,0.1l0.1,0.1l0.1,0c0.4,0.2,0.7,0.4,1,0.6l0,0
		l0.2,0.1l0,0c0.4,0.2,0.8,0.4,1.2,0.6l0.1,0l0.2,0.1l0,0c0.2,0.1,0.4,0.2,0.6,0.3c0.1,0,0.2,0.1,0.3,0.1c0.1,0.1,0.2,0.1,0.4,0.2
		l0.1,0l0,0l0,0c0.2,0.1,0.4,0.2,0.6,0.2l0.1,0c0.2,0.1,0.4,0.2,0.7,0.3l0.1,0l0.2,0.1c0.1,0,0.2,0.1,0.3,0.1l0.1,0
		c0.3,0.1,0.6,0.2,1,0.3l0.1,0l0,0l0,0c0.5,0.2,1,0.3,1.5,0.4l0,0l0.1,0l0,0c0.4,0.1,0.9,0.2,1.3,0.3h0l0.2,0l0.2,0
		c0.4,0.1,0.8,0.2,1.2,0.2l0.1,0l0.3,0c0.3,0,0.5,0.1,0.8,0.1c0,0.1,0.1,0.2,0.1,0.3l0,0c0.7,1.9,1.4,3.8,2.2,5.6
		c11.8,32.7,44.5,58.1,81.8,62.8c37.3,4.6,77.2-20.2,93.4-53.7c0.7-1.3,1.3-2.5,1.9-3.8c1.6-1.7,2.9-3.4,3.7-5.2
		C261.8,211.8,262.2,209.5,262.1,207.7z"/>
	<polygon fill="#664F44" points="229.2,111.6 229.2,111.6 229.2,111.6 	"/>
	<polygon fill="#664F44" points="64.6,203.3 64.6,203.3 64.6,203.3 	"/>
	<polygon fill="#664F44" points="54,193.4 54,193.4 54,193.4 	"/>
	<polygon fill="#664F44" points="54,193.4 54,193.4 54,193.4 	"/>
	<polygon fill="#664F44" points="49.1,182.9 49.1,182.9 49.1,182.9 	"/>
	<polygon fill="#664F44" points="48.6,181.2 48.6,181.2 48.6,181.2 	"/>
	<polygon fill="#664F44" points="55,194.7 55,194.7 55,194.7 55,194.7 	"/>
	<path fill="#132134" d="M230.1,44.1c-1.8-2-3.9-3.5-6.2-4.6c-0.4-0.2-0.8-0.3-1.3-0.4c-0.2-0.1-0.4-0.3-0.6-0.4
		c-2-0.8-4.1-1.3-6.3-1.6c-10.8-1.4-23.2,2.6-30.2,5.4c-0.4,0.2-0.8,0.3-1.2,0.5c-0.6,0.3-1.2,0.5-1.8,0.8c-1,0.4-2,0.9-3.1,1.4
		c-0.2,0.1-0.3,0.1-0.5,0.2l-1.9-2.2l-0.9-1l-0.8-0.9l-0.3-0.4l-7.3-8.4l-0.6-0.7l-0.8-0.9l-0.1,0l-2.1,0.5l-2.4,0.5
		c-1.3-0.6-2.9-1-4.7-1.3c-3.6-0.5-8.2,0-13.4,1.3c-5.2,1.3-11.1,3.6-17.3,6.7c-12.5,6.2-26.3,15.7-39.7,27.9
		c-4.7,4.2-9,8.6-13,12.9c-3.9,4.2-7.4,8.5-10.6,12.6c-6.5,8.5-11.4,16.7-14.6,24.1c-2.1,4.9-3.4,9.4-3.9,13.3
		c-0.4,2.8-0.3,5.3,0.2,7.3c0.2,0.7,0.4,1.2,0.6,1.8c0.5,1.2,1.1,2.2,1.9,3.1l8.1,8.5l0.9,0.9l0.1-0.1c0.2-0.3,0.5-0.6,0.8-0.8
		l0.1-0.1c0.1-0.1,0.2-0.2,0.3-0.3c0.2-0.3,0.5-0.5,0.7-0.8c0.2-0.2,0.3-0.3,0.5-0.4c0.2-0.1,0.3-0.3,0.5-0.4
		c0.1-0.1,0.1-0.1,0.2-0.2c0.2-0.1,0.3-0.3,0.5-0.4c0.2-0.2,0.5-0.4,0.7-0.6c0.1-0.1,0.3-0.2,0.4-0.3l0.1,0c0.3-0.2,0.5-0.4,0.8-0.6
		c0.2-0.1,0.3-0.2,0.5-0.4c0.3-0.2,0.5-0.4,0.8-0.6c0.2-0.1,0.3-0.2,0.5-0.3c0.3-0.2,0.6-0.4,0.9-0.5c0.2-0.1,0.3-0.2,0.5-0.3
		c0.3-0.2,0.6-0.3,0.9-0.5c0.2-0.1,0.3-0.2,0.5-0.3l0.2-0.1l0,0c0.3-0.1,0.5-0.3,0.8-0.4c0.1-0.1,0.3-0.1,0.4-0.2
		c0.2-0.1,0.4-0.2,0.7-0.3c0.2-0.1,0.4-0.2,0.6-0.3l0.2-0.1c0.5-0.2,1-0.4,1.5-0.6c0.2-0.1,0.3-0.1,0.5-0.2c0.2-0.1,0.3-0.1,0.5-0.2
		l0.2-0.1c0.1,0,0.2-0.1,0.3-0.1c0.2-0.1,0.4-0.1,0.7-0.2l0.2,0c0.3-0.1,0.5-0.1,0.8-0.2c0.2-0.1,0.5-0.1,0.7-0.2
		c0.3-0.1,0.6-0.1,0.9-0.2c0.1,0,0.2-0.1,0.4-0.1c0.1,0,0.3,0,0.4-0.1c0.3-0.1,0.6-0.1,0.9-0.1c0.3,0,0.5-0.1,0.8-0.1
		c0.2,0,0.4-0.1,0.6-0.1c0.1,0,0.2,0,0.3,0c0.1,0,0.2,0,0.3,0l0.2,0c1,0,2.2,0,3.4,0.1l0.2,0c1.2,0.1,2.6,0.3,4,0.6
		c0.3,0.1,0.7,0.1,1,0.2c0.1-0.1,0.1-0.3,0.2-0.4c0.8-1.3,1.5-2.7,2.3-4c4.5-7.5,9.3-14.1,14.2-19.9c1.7-2,3.4-3.8,5.1-5.6
		c7.1-7.4,14.2-13.1,20.6-17.5c1.4-1,2.9-1.9,4.2-2.8c1.9-1.2,3.7-2.2,5.4-3.2c1.4-0.8,2.7-1.5,4-2.1c2.1-1.1,4-2,5.7-2.7
		c0.5-0.2,1-0.4,1.5-0.6c0.7-0.3,1.4-0.6,2-0.8c-0.5-0.1-1.1-0.1-1.6-0.1c-0.5,0-1,0-1.6,0c-0.1,0-0.3,0-0.4,0c-0.5,0-1.1,0-1.6,0.1
		c-1,0.1-2.1,0.2-3.2,0.3c-0.4,0.1-0.7,0.1-1.1,0.2c2.7-1.4,5.4-2.4,7.9-3.2c1.7-0.5,3.4-0.9,5-1.2c2.2-0.4,4.3-0.7,6.2-0.8
		c1.3-0.1,2.5-0.1,3.6-0.1c1.1,0,2.2,0.1,3.1,0.1c3.3,0.2,5.3,0.7,5.3,0.7c-0.5-0.7-1.1-1.2-1.7-1.7c-1.2-0.9-2.5-1.5-3.7-2
		c-0.5-0.2-0.9-0.3-1.3-0.5c-0.3-0.1-0.6-0.2-0.8-0.2c0.6-0.1,1.1-0.2,1.6-0.2c0.6-0.1,1.1-0.1,1.7-0.2c4.7-0.4,8.9,0,12,0.5
		c3.7,0.7,6,1.6,6,1.6c-0.5-1-1.3-1.9-2.2-2.7c-0.6-0.5-1.3-1-1.9-1.4c1.3,0.3,2.4,0.6,3.6,1c3,0.9,5.5,2,7.5,2.9
		c0.6,0.3,1.2,0.6,1.8,0.9c0.2,0.1,0.3,0.2,0.4,0.2c1.8,1,2.8,1.7,2.8,1.7c-0.3-1.1-0.9-2.1-1.7-3c-0.2-0.2-0.4-0.5-0.6-0.7l0.1,0
		c0.1,0,0.2,0.1,0.4,0.1c0.1,0,0.3,0.1,0.5,0.2c0.8,0.3,2,0.8,3.4,1.5c0.1,0,0.1,0.1,0.2,0.1c0.2,0.1,0.4,0.2,0.6,0.3
		c0.5,0.3,1,0.5,1.5,0.9c0.5,0.3,1,0.6,1.5,0.9c0.3,0.2,0.5,0.3,0.8,0.5c0.5,0.4,1.1,0.8,1.6,1.3c0.6,0.5,1.1,1,1.6,1.5
		c0.1,0.1,0.2,0.2,0.3,0.3c0.4,0.4,0.8,0.8,1.1,1.2c0.7,0.8,1.3,1.7,1.9,2.6c0.7,1.1,1.2,2.4,1.7,3.7c0,0.1,0,0.2,0.1,0.2
		c0.3-0.3,0.9-0.9,1.6-1.7C223.2,79.5,240.6,57.5,230.1,44.1z"/>
	<path fill="#90694C" d="M256.1,208.4L256.1,208.4c0,0,0.2-1.5-0.6-2.9l0,0c0-0.1-0.1-0.2-0.1-0.2l-0.1-0.1
		c-0.1-0.1-0.2-0.2-0.3-0.3c-0.2-0.2-0.4-0.4-0.7-0.6c-0.1-0.1-0.3-0.2-0.5-0.3c-0.5-0.2-1-0.4-1.7-0.5c-0.5-0.1-1-0.1-1.6-0.1
		c-0.2,0-0.5,0-0.7,0l-0.1,0c0,0,0,0.1,0,0.2c0,0.1,0.1,0.2,0.1,0.4c0,0.1,0,0.2,0.1,0.2c0.1,0.3,0.2,0.8,0.3,1.2c0,0,0,0.1-0.1,0.3
		l0,0.1c-0.3,0.7-1.1,2.3-2.9,4.3c-0.3,0.4-0.6,0.7-1,1.1c-5,5.2-15.8,12.5-38.6,16.6c-7.7,1.1-14.9,1.2-20.9,0.4
		c-9-1.1-15.7-4-18.9-7.9c-0.3-0.3-0.5-0.7-0.8-1c-0.2-0.3-0.3-0.5-0.5-0.8c-0.1-0.1-0.1-0.2-0.2-0.3c-1.3-2.4-1.9-5-1.9-7.5
		c0-3.1,1-6,2.6-8.2c1.3-1.8,3-3.2,5.1-3.8c1-0.3,2.1-0.5,3.2-0.4c0.2,0,0.5,0,0.9,0.1c0.7,0.1,1.8,0.2,3.1,0.4c0.1,0,0.3,0,0.4,0.1
		c4.3,0.5,11.1,1.2,19.3,0.7c15-0.9,34.7-5.6,52.6-21.8l0-0.1v0v0c0.1-1.4-0.1-3.8-1.8-5.7c-0.3-0.3-0.6-0.6-1-0.9
		c-0.2-0.2-0.5-0.3-0.7-0.5c-0.3-0.1-0.5-0.3-0.7-0.4c-0.3-0.2-0.6-0.4-0.9-0.6l0-0.1c-0.1-0.2-0.2-0.4-0.4-0.6
		c-4.6-7-11-11.1-13.6-13c-1.2-0.9-2-1.3-2-1.3c-5.5-3.4-6.3-4.5-5.8-13.6c0.2-3.3,0.5-7.6,0.9-13.5c0-0.8,0.1-1.5,0.1-2.2
		c0-0.2,0-0.3,0-0.5c0-0.7,0-1.3,0-2l0-0.2l0-0.2c0-0.5-0.1-1-0.1-1.4c0-0.2,0-0.4-0.1-0.6c-0.1-0.5-0.1-1-0.2-1.5
		c0-0.2-0.1-0.5-0.1-0.7c0-0.3-0.1-0.5-0.2-0.8c-0.1-0.2-0.1-0.5-0.2-0.7l0,0l0,0v0c-0.1-0.3-0.2-0.6-0.2-0.9c0-0.1-0.1-0.2-0.1-0.3
		c0-0.1-0.1-0.2-0.1-0.3l0-0.1l-0.1-0.3l0,0c-0.1-0.2-0.2-0.4-0.2-0.6l0-0.1l-0.1-0.2l-0.1-0.2l0,0v0v0c-0.2-0.4-0.3-0.8-0.5-1.1
		l-0.1-0.3c-0.2-0.3-0.4-0.7-0.6-1l-0.1-0.1l-0.1-0.1c-0.2-0.2-0.3-0.4-0.5-0.6l-0.2-0.3c-0.2-0.3-0.4-0.5-0.6-0.7v0l0,0l0,0l0-0.1
		l0-0.1l0-0.1l0-0.1l0-0.1l0-0.2l0-0.1c-0.1-0.4-0.2-0.9-0.3-1.4l0,0c0-0.1-0.1-0.3-0.1-0.4l0-0.1c0-0.2-0.1-0.3-0.1-0.5l0,0
		c-0.1-0.4-0.2-0.8-0.4-1.2c0-0.1-0.1-0.3-0.1-0.4c-0.1-0.3-0.2-0.6-0.3-0.9c-0.1-0.2-0.1-0.4-0.2-0.5c-0.1-0.3-0.2-0.6-0.4-0.9
		c-0.1-0.2-0.2-0.4-0.3-0.6c-0.1-0.3-0.3-0.6-0.4-0.9c-0.1-0.2-0.2-0.4-0.3-0.6c-0.2-0.3-0.3-0.6-0.5-0.9c-0.1-0.2-0.2-0.4-0.3-0.6
		c-0.2-0.3-0.4-0.6-0.6-1c-0.1-0.2-0.2-0.3-0.3-0.5c-0.1-0.1-0.2-0.3-0.3-0.4c-0.3-0.3-0.5-0.6-0.8-0.9l0,0l-0.2-0.1
		c-0.4-0.4-0.7-0.8-1.1-1.1l-0.1-0.1c-0.2-0.1-0.4-0.3-0.5-0.4l0,0l-0.1,0c-0.2-0.1-0.3-0.2-0.5-0.3l-0.1-0.1l0,0
		c-0.2-0.1-0.5-0.3-0.9-0.5c-0.1-0.1-0.3-0.1-0.5-0.2c-0.9-0.3-2-0.7-3.4-1.1c-0.1,0-0.2,0-0.3-0.1c-1.1-0.3-2.4-0.6-3.8-0.8
		c-0.5-0.1-0.9-0.1-1.4-0.2c-0.2,0-0.4,0-0.7-0.1c-0.1,0-0.2,0-0.3,0c-1.1-0.1-2.1-0.2-3.2-0.2l-0.1,0c-1.4,0-2.8,0.1-4.1,0.4
		c0.3-0.5,1.2-1.1,2-1.6c1.1-0.6,2.1-1,2.1-1c-0.6,0-1.2,0.1-1.8,0.2c-0.2,0-0.4,0.1-0.6,0.1c-0.1,0-0.3,0-0.4,0.1l-0.1,0
		c-0.1,0-0.2,0-0.3,0.1c-3.1,0.7-6.1,1.8-7.8,2.5c-0.2,0.1-0.4,0.2-0.6,0.3l-0.1,0c-0.2,0-0.3,0-0.5,0.1l0,0c1.2-2.3,3-3.5,4.4-4.1
		c0.2-0.1,0.5-0.2,0.7-0.3c0.1,0,0.1,0,0.2-0.1c0.2-0.1,0.4-0.1,0.5-0.2c0.3-0.1,0.5-0.1,0.5-0.1c-0.1,0-0.3,0-0.4,0
		c-0.1,0-0.2,0-0.4,0c-0.2,0-0.4,0-0.5,0c-0.1,0-0.2,0-0.3,0c-3.4,0.4-6.5,1.5-9.1,3c-1.8,1-3.4,2.1-4.8,3.2
		c-0.4,0.1-0.7,0.2-1.1,0.2c-3.8,0.8-8.1,1.8-12.6,3.2c-1.7,0.5-3.4,1.1-5.1,1.7c-1.3,0.5-2.7,1-4,1.5c-1,0.4-1.9,0.8-2.9,1.2
		c-6.9,3.1-13.8,7.2-19.5,12.7c-0.2,0.2-0.4,0.4-0.6,0.6c-0.5,0.5-1,1-1.5,1.5c-0.2,0.2-0.4,0.4-0.6,0.6c-0.2,0.3-0.5,0.6-0.7,0.8
		c-1.1,1.2-2.1,2.5-3.1,3.9c-0.7,1-1.4,2.1-2,3.2l-0.1,0.1c-1.3,2.3-2.5,4.7-3.4,7.4c-0.5,1.3-0.9,2.7-1.3,4.1
		c-0.1,0.4-0.2,0.7-0.3,1.1l-0.1,0.2c-0.4,1.5-0.7,3.1-0.9,4.7c0,0.3-0.1,0.6-0.1,1c-0.1,0.8-0.2,1.6-0.2,2.5
		c-0.1,0.8-0.1,1.5-0.1,2.3l0,0.2c0,0.4,0,0.8,0,1.2c0,0.4,0,0.9,0,1.4c0,0.1,0,0.2,0,0.3c0,0.9,0,1.8,0.1,2.7l0,0.1
		c0,0.9,0.1,1.8,0.2,2.8c0,0.4,0.1,0.8,0.1,1.2c0,0.1,0,0.2,0,0.3c0,0.2,0,0.4,0.1,0.7c0.1,1,0.3,2.1,0.4,3.2c0,0.3,0.1,0.6,0.1,0.9
		c0.2,0.9,0.3,1.9,0.5,2.8c0,0-0.2-1.2-0.1-3c0-0.4,0.1-0.9,0.1-1.3c0.1-1,0.3-2.2,0.7-3.3c0.1-0.3,0.2-0.6,0.3-0.9
		c0-0.1,0.1-0.2,0.2-0.4c0.2-0.5,0.5-1.1,0.8-1.6c0.1,0.4,0.1,0.8,0.2,1.1l0,0.1l0,0.2c0,0.2,0,0.5,0,0.8c0,0.6,0,1.2,0,1.9
		c0,0.7,0,1.5,0,2.3c0.1,3.4,0.4,7.5,1.1,11c0,0,0.1-6.3,1.2-7.1c0,0,1.9,11.8,3.6,16.2c0.2,0.6,0.5,1,0.7,1.3l0-1.2l-0.2-6.5
		c0,0,0-0.2,0-0.7c1.3,2.7,2.8,5.4,4.5,8.3c0.5,0.8,0.9,1.6,1.4,2.4c-3.2,2.8-6.2,6.9-8.4,11.7c-0.3,0.8-0.7,1.6-1,2.4
		c-0.2,0.5-0.3,0.9-0.5,1.4c0,0.1-0.1,0.3-0.1,0.4c-0.1,0.3-0.2,0.7-0.3,1c0,0.2-0.1,0.3-0.1,0.5c-0.1,0.3-0.2,0.7-0.3,1
		c0,0.2-0.1,0.3-0.1,0.5c-0.1,0.5-0.2,1-0.3,1.5l0,0c-0.1,0.5-0.2,1-0.2,1.5c0,0.2,0,0.3-0.1,0.5c0,0.4-0.1,0.7-0.1,1.1
		c0,0.2,0,0.4-0.1,0.6c0,0.4-0.1,0.7-0.1,1.1c0,0.2,0,0.3,0,0.5c0,0.5,0,1.1,0,1.6l0,0.1c0,0.4,0,0.8,0,1.3c0,0.4,0,0.8,0.1,1.3
		l0,0.2l0,0.1c0,0.5,0.1,1,0.2,1.6c0,0.2,0,0.3,0.1,0.5c0,0.4,0.1,0.7,0.2,1.1c0,0.2,0.1,0.4,0.1,0.6c0.1,0.3,0.1,0.7,0.2,1
		c0,0.2,0.1,0.4,0.1,0.6c0.1,0.3,0.2,0.6,0.2,1c0.1,0.2,0.1,0.4,0.2,0.7c0.1,0.3,0.2,0.7,0.3,1c0.1,0.2,0.1,0.4,0.2,0.6
		c0.1,0.3,0.2,0.7,0.3,1c0.1,0.2,0.1,0.4,0.2,0.6c0.1,0.4,0.3,0.8,0.4,1.1c0.1,0.2,0.1,0.3,0.2,0.5c0.5,1.1,1,2.2,1.5,3.3
		c0.1,0.2,0.2,0.3,0.3,0.5c0.2,0.4,0.4,0.8,0.6,1.2c0.1,0.2,0.2,0.4,0.4,0.6c0.2,0.3,0.4,0.7,0.6,1c0.1,0.2,0.3,0.4,0.4,0.6
		c0.2,0.3,0.4,0.7,0.7,1c0.2,0.2,0.3,0.4,0.5,0.7c0.2,0.3,0.5,0.7,0.7,1c0.2,0.2,0.3,0.4,0.5,0.7c0.3,0.3,0.5,0.7,0.8,1
		c0.2,0.2,0.3,0.4,0.5,0.6c0.3,0.4,0.6,0.7,1,1.1c0.2,0.2,0.3,0.3,0.5,0.5c0.5,0.5,1,1.1,1.5,1.6l0,0c0,0-0.3-0.4-0.7-1.2l0,0
		c-0.1-0.1-0.2-0.3-0.2-0.5l0,0c-0.1-0.2-0.2-0.4-0.3-0.6l0,0c-0.1-0.2-0.2-0.4-0.3-0.7c-0.8-1.8-1.5-4.4-1.4-7.2
		c0.3,0.4,0.6,0.8,0.9,1.2c0.3,0.7,0.8,1.6,1.3,2.6c0.2,0.3,0.4,0.7,0.5,1c0.8,1.4,1.6,3,2.6,4.5c1.2,1.9,2.4,3.7,3.7,5.4l0,0
		c0,0-1.5-3.2-2-5.3c-0.1-0.6-0.2-1.1-0.1-1.4c0.1,0.1,0.2,0.3,0.4,0.4c0.1,0.1,0.2,0.3,0.4,0.4c0.2,0.3,0.5,0.7,0.9,1.2l0.2,0.2
		c0.2,0.2,0.3,0.5,0.5,0.7l0,0c0.2,0.3,0.4,0.6,0.7,0.9c2.1,2.7,5,6.3,7,8.2c0.7,0.6,1.3,1.1,1.7,1.3l-2.9-5.2
		c6.6,5.4,34,12.3,60.9,4.6c3.3-0.9,6.5-2.1,9.7-3.5c1.9-0.8,3.8-1.8,5.7-2.8l0.3-0.2c1.3-0.7,2.6-1.5,3.9-2.3l0,0
		c1-0.6,2-1.3,2.9-1.9c1.6-1.1,3.2-2.3,4.8-3.6l0,0l0,0c0.1-0.1,0.2-0.2,0.3-0.2c1.5-1.3,3-2.7,4.3-4.1c1.8-1.9,3.4-3.8,4.8-5.7
		l0.1-0.1c0.4-0.5,0.7-0.9,1-1.4l0.1-0.1c0.1-0.2,0.2-0.3,0.3-0.5c0.5-0.7,0.9-1.3,1.4-2c0.1-0.2,0.2-0.3,0.3-0.5
		c0.2-0.4,0.4-0.7,0.7-1.1c0.2-0.3,0.3-0.5,0.5-0.8c0.2-0.3,0.4-0.6,0.5-0.9c0.3-0.5,0.6-1.1,0.9-1.6c0.1-0.2,0.2-0.4,0.3-0.6
		c0.2-0.4,0.4-0.8,0.6-1.2c0.1-0.2,0.2-0.4,0.3-0.6l0.1-0.2c0.2-0.5,0.5-1,0.7-1.5l0-0.1c0.9-0.8,1.5-1.6,2.1-2.3
		c0.1-0.1,0.2-0.2,0.2-0.3C255.6,211.3,256,209.8,256.1,208.4z"/>
	<path fill="#90694C" d="M95.1,188.9c0-0.1,0-0.2-0.1-0.4l0,0c-0.3-1.7-0.6-3.5-0.7-5.3c0-0.1,0-0.3,0-0.4c-0.3,0.1-0.6,0.5-1,1
		c-0.1,0.2-0.3,0.4-0.4,0.7c-0.9,1.7-1.7,4.1-1.7,4.1c0.1-0.8,0.2-1.6,0.2-2.4c0-0.1,0-0.2,0-0.3c0.1-0.8,0.2-1.7,0.3-2.5
		c0-0.1,0-0.2,0-0.3c0.1-1,0.3-1.9,0.5-2.8c0-0.1,0-0.2,0.1-0.4l0-0.1c0-0.1,0-0.2,0.1-0.3c0-0.2,0.1-0.3,0.1-0.5
		c0.1-0.7,0.3-1.4,0.4-2.1c0.1-0.6,0.2-1.2,0.3-1.7l0-0.2c0-0.1,0-0.2,0.1-0.2c0-0.1,0-0.2,0-0.2l0,0c0-0.1,0.1-0.3,0.1-0.4l0,0
		c0-0.1,0-0.2,0.1-0.3c0-0.2,0.1-0.4,0.1-0.5l0,0c0-0.1,0.1-0.3,0.1-0.4c0-0.2,0.1-0.4,0.1-0.5l0,0l0,0c0-0.1,0-0.2,0.1-0.3l0,0
		c0-0.1,0-0.2,0.1-0.2c0-0.2,0.1-0.3,0.1-0.4l0-0.1l0,0l0-0.1l0-0.1l0,0l0,0l-0.2,0.2c-0.2,0.1-0.3,0.3-0.5,0.4l-0.2,0.2
		c-0.2,0.2-0.4,0.4-0.5,0.6l-0.1,0.1c-0.2,0.3-0.4,0.6-0.6,0.9v0l0,0l0,0l-0.1,0.1c0,0.1-0.1,0.1-0.1,0.2c-0.1,0.2-0.2,0.4-0.3,0.6
		l0,0l0,0l0,0l0,0.1l0,0.1c-0.1,0.3-0.3,0.6-0.4,0.9c-0.3,0.8-0.6,1.6-0.8,2.3c-0.1,0.2-0.1,0.5-0.2,0.6c-0.1,0.4-0.2,0.8-0.2,0.9
		l0,0l0,0.1v0v0l0-0.1c0-0.3,0-0.5,0.1-0.8c0-0.5,0.1-1.1,0.1-1.6c0-0.4,0.1-0.9,0.2-1.3c0-0.1,0-0.3,0.1-0.4c0-0.2,0.1-0.4,0.1-0.6
		c0-0.2,0.1-0.4,0.1-0.6l0,0v0l0-0.2l0-0.1c0-0.2,0.1-0.5,0.1-0.7c0-0.1,0-0.2,0-0.3l0-0.2l0,0c0-0.1,0-0.1,0-0.2
		c0-0.1,0-0.2,0.1-0.3c0.1-0.3,0.2-0.7,0.2-1l0-0.1c0.1-0.2,0.1-0.5,0.2-0.7l0,0l0,0l0-0.1c0.1-0.5,0.3-1,0.4-1.5l0-0.1l0-0.1
		c0-0.1,0-0.2,0.1-0.3c0.2-0.8,0.5-1.6,0.7-2.3l0-0.1c0.2-0.6,0.5-1.3,0.7-1.9l0-0.1c0.1-0.3,0.2-0.5,0.3-0.8l0,0
		c0.2-0.4,0.3-0.8,0.5-1.2l0,0v0l0,0l0,0c0-0.1,0.1-0.3,0.3-0.7l0,0l0,0v0c0.1-0.1,0.1-0.3,0.2-0.4c0.1-0.2,0.2-0.4,0.3-0.7l0.1-0.2
		l0,0l1.7-3.1c0.1-0.1,0.1-0.3,0.2-0.4l0-0.1l0.1-0.2c0.2-0.3,0.4-0.7,0.6-1c0.3-0.5,0.5-1,0.8-1.4c0.5-0.9,0.9-1.7,1.2-2.1
		c0.1-0.3,0.2-0.4,0.3-0.5l0,0h0l0,0l0,0c-0.1,0-0.6-0.4-1.4-0.9c-1-0.6-2.4-1.4-4.1-2.2c-0.6-0.3-1.1-0.5-1.7-0.8
		c-0.7-0.3-1.5-0.6-2.3-0.9c-0.2-0.1-0.4-0.1-0.6-0.2c-0.7-0.2-1.3-0.4-2-0.6l0,0c-0.5-0.1-1-0.2-1.4-0.3c-0.4-0.1-0.8-0.1-1.2-0.2
		c-0.2,0-0.4,0-0.6-0.1c-0.2,0-0.4,0-0.6-0.1c-0.5,0-1.1-0.1-1.6-0.1c-0.3,0-0.5,0-0.8,0c-1.2,0-2.3,0.1-3.4,0.3l-0.2,0
		c-2,0.3-3.9,0.8-5.8,1.5c-0.6,0.2-1.2,0.5-1.9,0.8c-0.2,0.1-0.3,0.2-0.5,0.2c-0.2,0.1-0.4,0.2-0.6,0.3c-1.8,0.9-3.5,2.1-5.1,3.4
		l-0.1,0c-1.4,1.1-2.6,2.4-3.7,3.7c-0.3,0.4-0.6,0.8-0.9,1.2c-0.4,0.5-0.7,1-1,1.5c-0.6,0.9-1.2,1.9-1.7,2.9
		c-0.2,0.4-0.4,0.7-0.5,1.1c0,0.1-0.1,0.1-0.1,0.2c-1,2.4-1.8,4.9-2.1,7.6c-0.1,0.5-0.1,1-0.2,1.6l0,0.2c0,0.4-0.1,0.8-0.1,1.3
		c0,0.5,0,1,0,1.6c0,0.1,0,0.2,0,0.2c0,0.4,0,0.8,0.1,1.2l0,0.2c0,0.1,0,0.2,0,0.3c0,0.3,0.1,0.6,0.1,0.9l0,0.1l0,0l0,0
		c0,0.2,0,0.3,0.1,0.5c0,0.3,0.1,0.6,0.1,0.8c0,0.2,0.1,0.4,0.1,0.6c0.1,0.3,0.1,0.5,0.2,0.8c0,0.2,0.1,0.4,0.2,0.6l0,0.1l0.1,0.2
		l0,0.2l0.1,0.2c0.1,0.2,0.1,0.4,0.2,0.6c0.1,0.2,0.1,0.5,0.2,0.7c0.1,0.2,0.2,0.4,0.2,0.7l0.1,0.2c0.1,0.2,0.1,0.3,0.2,0.5
		c0.1,0.2,0.2,0.4,0.3,0.7c0.1,0.2,0.2,0.4,0.3,0.6c0.1,0.1,0.1,0.2,0.2,0.3c0.1,0.1,0.1,0.2,0.2,0.3c0.1,0.2,0.2,0.4,0.3,0.6
		c0.1,0.2,0.2,0.5,0.4,0.7c0.1,0.2,0.2,0.4,0.3,0.5c0.1,0.2,0.3,0.5,0.4,0.7c0.1,0.2,0.2,0.3,0.3,0.5c0.1,0.2,0.3,0.5,0.5,0.7
		c0.1,0.2,0.2,0.3,0.3,0.4c0.2,0.2,0.3,0.5,0.5,0.7c0.1,0.1,0.2,0.3,0.3,0.4c0.2,0.2,0.4,0.5,0.6,0.7c0.1,0.1,0.2,0.2,0.3,0.4
		c0.2,0.2,0.4,0.5,0.6,0.7c0.1,0.1,0.2,0.2,0.3,0.3c0.2,0.2,0.4,0.5,0.7,0.7c0.1,0.1,0.2,0.2,0.3,0.3c0.2,0.2,0.5,0.5,0.7,0.7
		c0.1,0.1,0.2,0.2,0.3,0.2c0.2,0.2,0.5,0.4,0.8,0.7c0.1,0.1,0.2,0.1,0.3,0.2c0.3,0.2,0.5,0.4,0.8,0.6c0.1,0.1,0.2,0.1,0.2,0.2
		c0.3,0.2,0.6,0.4,0.9,0.6l0.2,0.1c0.3,0.2,0.6,0.4,0.9,0.6l0.2,0.1c0.3,0.2,0.7,0.4,1,0.6l0.2,0.1c0.3,0.2,0.7,0.4,1,0.5l0.2,0.1
		c0.4,0.2,0.7,0.3,1.1,0.5l0.1,0.1c0.4,0.2,0.8,0.3,1.1,0.5l0.1,0c0.4,0.1,0.8,0.3,1.2,0.4l0.1,0c0.2,0.1,0.4,0.1,0.6,0.2
		c0.2,0.1,0.4,0.1,0.7,0.2l0.1,0c0.4,0.1,0.9,0.2,1.3,0.3l0,0c0,0,0,0,0,0c0.4,0.1,0.9,0.2,1.3,0.2l0,0c1.4,0.2,2.8,0.3,4.2,0.4l0,0
		c0.3,0,0.7,0,1,0c0.5,0,0.9,0,1.4-0.1c0.6-0.1,1.3-0.1,2-0.2c0.6-0.1,1.2-0.2,1.7-0.3c0.9-0.2,1.8-0.4,2.6-0.7
		c2.6-0.7,4.8-1.7,6.2-2.8c0,0-0.9-4-1.6-8C95.3,189.8,95.2,189.4,95.1,188.9z"/>
	<polygon fill="#90694C" points="212.2,93.9 212.2,93.9 212.2,93.9 	"/>
	<path fill="#2F83C1" d="M159.3,40.3l-0.3-4l2-4.4l0,0l0.8-0.2c-1.3-0.6-2.9-1-4.7-1.3c-3.6-0.5-8.2,0-13.4,1.3
		c-5.2,1.3-11.1,3.6-17.3,6.7c-12.5,6.2-26.3,15.7-39.7,27.9c-4.7,4.2-9,8.6-13,12.9c-3.9,4.2-7.4,8.5-10.6,12.6
		c-6.5,8.5-11.4,16.7-14.6,24.1c-2.1,4.9-3.4,9.4-3.9,13.3c-0.4,2.8-0.3,5.3,0.2,7.3c0.2,0.7,0.4,1.2,0.6,1.8
		c0.5,1.2,1.1,2.2,1.9,3.1l8.1,8.5l0.9,0.9l0.1-0.1c0.2-0.3,0.5-0.6,0.8-0.8l0.1-0.1c0.1-0.1,0.2-0.2,0.3-0.3
		c0.2-0.3,0.5-0.5,0.7-0.8c0.2-0.2,0.3-0.3,0.5-0.4c0.2-0.1,0.3-0.3,0.5-0.4c0.1-0.1,0.1-0.1,0.2-0.2c0.2-0.1,0.3-0.3,0.5-0.4
		c0.2-0.2,0.5-0.4,0.7-0.6c0.1-0.1,0.3-0.2,0.4-0.3l0.1,0c0.3-0.2,0.5-0.4,0.8-0.6c0.2-0.1,0.3-0.2,0.5-0.4c0.3-0.2,0.5-0.4,0.8-0.6
		c0.2-0.1,0.3-0.2,0.5-0.3c0.3-0.2,0.6-0.4,0.9-0.5c0.2-0.1,0.3-0.2,0.5-0.3c0.3-0.2,0.6-0.3,0.9-0.5c0.2-0.1,0.3-0.2,0.5-0.3
		l0.2-0.1l0,0c1.9-5.3,4.8-11.2,8.6-17.2c4.6-7.4,10.5-15.2,17.5-23c4.4-4.9,9.2-9.8,14.4-14.5c6.7-6.1,13.6-11.6,20.4-16.4
		c4.6-3.2,9.1-6.1,13.5-8.6c0.4-0.2,0.8-0.5,1.3-0.7c1.2-0.7,2.3-1.3,3.5-1.9c2.5-1.3,5-2.5,7.4-3.5l-1.2-1.4l-0.2-0.2l-1.5-1.7
		l-8.3-10l0.1-7.2l-0.1-0.1l5.9-1.8L159.3,40.3z"/>
	<path fill="#FCE9CD" d="M256.1,208.4L256.1,208.4c0,0,0.2-1.5-0.6-2.9l0,0c0-0.1-0.1-0.2-0.1-0.2l-0.1-0.1
		c-0.1-0.1-0.2-0.2-0.3-0.3c-0.2-0.2-0.4-0.4-0.7-0.6c-0.1-0.1-0.3-0.2-0.5-0.3c-0.5-0.2-1-0.4-1.7-0.5c-0.5-0.1-1-0.1-1.6-0.1
		c-0.2,0-0.5,0-0.7,0l-0.1,0c0,0,0,0.1,0,0.2c0,0.1,0.1,0.2,0.1,0.4c0,0.1,0,0.2,0.1,0.2c0.1,0.3,0.2,0.8,0.3,1.2c0,0,0,0.1-0.1,0.3
		l0,0.1c-0.3,0.7-1.1,2.3-2.9,4.3c-0.3,0.4-0.6,0.7-1,1.1c-5,5.2-15.8,12.5-38.6,16.6c-7.7,1.1-14.9,1.2-20.9,0.4
		c-9-1.1-15.7-4-18.9-7.9c-0.3-0.3-0.5-0.7-0.8-1c-0.2-0.3-0.3-0.5-0.5-0.8c-0.1-0.1-0.1-0.2-0.2-0.3c-1.3-2.4-1.9-5-1.9-7.5
		c0-3.1,1-6,2.6-8.2c1.3-1.8,3-3.2,5.1-3.8c1-0.3,2.1-0.5,3.2-0.4c0.2,0,0.5,0,0.9,0.1c0.7,0.1,1.8,0.2,3.1,0.4c0.1,0,0.3,0,0.4,0.1
		c4.3,0.5,11.1,1.2,19.3,0.7c15-0.9,34.7-5.6,52.6-21.8l0-0.1v0v0c0.1-1.4-0.1-3.8-1.8-5.7c-0.3-0.3-0.6-0.6-1-0.9
		c-0.2-0.2-0.5-0.3-0.7-0.5c-0.3-0.1-0.5-0.3-0.7-0.4c-0.3-0.2-0.6-0.4-0.9-0.6l0-0.1c-0.1-0.2-0.2-0.4-0.4-0.6
		c-4.6-7-11-11.1-13.6-13c-1.2-0.9-2-1.3-2-1.3c-5.5-3.4-6.3-4.5-5.8-13.6c0.2-3.3,0.5-7.6,0.9-13.5c0-0.8,0.1-1.5,0.1-2.2
		c0-0.2,0-0.3,0-0.5c0-0.7,0-1.3,0-2l0-0.2l0-0.2c0-0.5-0.1-1-0.1-1.4c0-0.2,0-0.4-0.1-0.6c-0.1-0.5-0.1-1-0.2-1.5
		c0-0.2-0.1-0.5-0.1-0.7c0-0.3-0.1-0.5-0.2-0.8c-0.1-0.2-0.1-0.5-0.2-0.7l0,0l0,0v0c-0.1-0.3-0.2-0.6-0.2-0.9c0-0.1-0.1-0.2-0.1-0.3
		c0-0.1-0.1-0.2-0.1-0.3l0-0.1l-0.1-0.3l0,0c-0.1-0.2-0.2-0.4-0.2-0.6l0-0.1l-0.1-0.2l-0.1-0.2l0,0v0v0c-0.2-0.4-0.3-0.8-0.5-1.1
		l-0.1-0.3c-0.2-0.3-0.4-0.7-0.6-1l-0.1-0.1l-0.1-0.1c-0.2-0.2-0.3-0.4-0.5-0.6l-0.2-0.3c-0.2-0.3-0.4-0.5-0.6-0.7l0,0
		c-0.3-0.3-0.5-0.5-0.8-0.8c-0.3-0.2-0.6-0.4-0.9-0.5c-0.1-0.1-0.2-0.1-0.3-0.1c-0.2-0.1-0.4-0.2-0.6-0.3c-0.1,0-0.2-0.1-0.3-0.1
		c-0.2-0.1-0.4-0.1-0.5-0.2c-0.1,0-0.2-0.1-0.4-0.1c-0.2,0-0.3-0.1-0.5-0.1c-0.1,0-0.2,0-0.4,0c-0.2,0-0.3,0-0.5,0
		c-0.1,0-0.2,0-0.3,0c-0.2,0-0.4,0-0.5,0c-0.1,0-0.2,0-0.3,0l-0.2,0c-0.1,0-0.2,0-0.3,0.1c-0.1,0-0.2,0-0.3,0.1
		c-0.2,0-0.4,0.1-0.7,0.2l-0.2,0c-0.6,0.2-1.1,0.4-1.7,0.6l-0.2,0.1c-0.2,0.1-0.4,0.2-0.7,0.3l-0.3,0.1c-0.2,0.1-0.4,0.2-0.6,0.3
		l-0.3,0.2c-0.2,0.1-0.4,0.2-0.6,0.3l-0.3,0.2c-0.2,0.1-0.4,0.3-0.6,0.4l-0.2,0.1c-0.2,0.2-0.5,0.3-0.7,0.5l-0.1,0.1
		c-0.3,0.2-0.5,0.4-0.8,0.5l0,0l0,0h0c-0.5,0.3-1,0.7-1.5,1c-0.4,0.3-0.8,0.6-1.3,0.9l-0.2,0.1c-0.4,0.3-0.9,0.6-1.3,0.8l-0.2,0.1
		c-0.4,0.3-0.9,0.5-1.3,0.8l-0.2,0.1c-0.4,0.3-0.9,0.5-1.4,0.7l-0.2,0.1c-0.5,0.2-0.9,0.4-1.4,0.6l-0.2,0.1c-0.5,0.2-1,0.3-1.5,0.5
		l-0.1,0c-0.5,0.1-1.1,0.2-1.6,0.3c-0.9,0.1-1.9,0.2-2.8,0.2c-1.5,0-3-0.1-4.6-0.3c-0.5-0.1-1-0.2-1.5-0.3c-0.2,0-0.4-0.1-0.5-0.1
		c-1.3-0.3-2.7-0.6-4-0.9c-0.6-0.1-1.1-0.3-1.7-0.4c-0.9-0.2-1.8-0.4-2.8-0.6c-0.2,0-0.4-0.1-0.5-0.1l0,0c-0.1,0-0.3-0.1-0.4-0.1
		c-0.2,0-0.4-0.1-0.6-0.1c-0.2,0-0.4-0.1-0.6-0.1l-0.1,0l-0.1,0c-0.2,0-0.4-0.1-0.5-0.1c-0.4-0.1-0.8-0.2-1.3-0.2
		c-0.1,0-0.3,0-0.4-0.1c-0.3,0-0.6-0.1-0.9-0.1c-0.2,0-0.3,0-0.5-0.1l0,0c-0.3,0-0.5-0.1-0.8-0.1c-0.2,0-0.4,0-0.5,0
		c-0.1,0-0.2,0-0.2,0c-0.2,0-0.4,0-0.6,0c-0.2,0-0.4,0-0.5,0c-0.3,0-0.6,0-0.9,0c-0.1,0-0.2,0-0.3,0c-0.1,0-0.2,0-0.2,0
		c-0.4,0-0.7,0-1.1,0c-0.1,0-0.2,0-0.3,0c-0.5,0-0.9,0.1-1.4,0.1c-0.1,0-0.2,0-0.4,0c-0.3,0-0.6,0.1-0.9,0.1l-0.1,0
		c-0.2,0-0.3,0.1-0.5,0.1c-0.3,0.1-0.6,0.1-0.9,0.2c-0.2,0-0.4,0.1-0.5,0.1c-0.3,0.1-0.6,0.2-0.9,0.2c-0.2,0-0.3,0.1-0.5,0.2
		c-0.3,0.1-0.7,0.2-1,0.3c-0.2,0.1-0.3,0.1-0.4,0.2c-0.5,0.2-1,0.4-1.4,0.6c-3.8,2.2-7.1,5.2-9.6,8.6c-0.9,1.2-1.7,2.4-2.4,3.6
		c-0.8,1.3-1.4,2.7-2,4.1c-0.2,0.4-0.3,0.8-0.5,1.2c-0.2,0.7-0.5,1.4-0.7,2.1c0,0.1,0,0.2-0.1,0.2c-0.2,0.8-0.4,1.6-0.6,2.5
		c-0.2,0.9-0.3,1.7-0.4,2.6c-0.1,0.5-0.1,0.9-0.1,1.4c-0.1,1.3-0.1,2.5,0,3.8c0,0.1,0,0.2,0,0.3c0,0.3,0,0.6,0.1,1
		c0.1,0.9,0.2,1.8,0.4,2.7c0.1,0.3,0.2,0.6,0.2,1c0.1,0.3,0.1,0.6,0.2,0.9v0c0.6,2.3,1.5,4.4,2.6,6.2c4.1,7.1,10.9,11.4,15.9,13.7
		c1.9,0.8,3.9,1.6,6,2.3c0,0-0.1,0.1-0.2,0.2c-0.4,0.1-0.8,0.2-1.3,0.3c-0.7,0.2-1.6,0.5-2.5,0.8c-1,0.3-2.2,0.8-3.4,1.3
		c-3.2,1.3-6.8,3.2-10,5.8c-0.4,0.3-0.8,0.7-1.2,1c-0.7,0.6-1.3,1.2-1.9,1.9c-0.1,0.1-0.1,0.1-0.2,0.2c-0.1,0.1-0.2,0.2-0.3,0.3
		c-0.2,0.3-0.5,0.5-0.7,0.8c-0.1,0.1-0.2,0.2-0.3,0.3c-0.3,0.4-0.6,0.8-0.8,1.2c-0.3,0.4-0.5,0.8-0.8,1.2c-1.9,3.3-3,7.3-2.7,12.1
		l0,0l0,0c0,0,0-0.1,0-0.2l0,0c0-0.1,0-0.2,0.1-0.3l0-0.1c0-0.1,0.1-0.2,0.1-0.4l0-0.1c0-0.1,0.1-0.3,0.1-0.5l0,0
		c0-0.2,0.1-0.3,0.2-0.5l0-0.1c0.1-0.2,0.1-0.4,0.2-0.6l0-0.1c0.1-0.2,0.1-0.4,0.2-0.6l0-0.1c0.1-0.2,0.2-0.4,0.3-0.7l0.1-0.1
		c0.1-0.2,0.2-0.5,0.4-0.7v0c0,0,0,0,0,0c0.2-0.4,0.4-0.7,0.6-1.1c0.1-0.1,0.2-0.3,0.3-0.4l0.1-0.1l0,0c0.2-0.3,0.4-0.6,0.6-0.9
		c0.2-0.2,0.4-0.5,0.6-0.7c0.1-0.1,0.1-0.1,0.2-0.2c0.2-0.2,0.3-0.4,0.5-0.5c0.1-0.1,0.1-0.1,0.2-0.2c0.2-0.2,0.5-0.4,0.7-0.7l0,0v0
		v0c0,0-4.3,9.8-2.4,17.5c0,0,0,0,0-0.1c0,0,0,0,0,0c0,0,0-0.1,0-0.2c0,0,0,0,0,0c0-0.1,0-0.2,0-0.3c0,0,0,0,0,0c0-0.1,0-0.2,0-0.4
		c0,0,0,0,0,0c0-0.1,0-0.3,0-0.5c0,0,0,0,0,0c0-0.2,0-0.4,0.1-0.6c0,0,0,0,0,0c0-0.2,0-0.4,0.1-0.6c0,0,0,0,0-0.1
		c0-0.2,0.1-0.5,0.1-0.7l0-0.1l0-0.1v0c0.1-0.3,0.1-0.5,0.2-0.8c0,0,0,0,0-0.1c0.1-0.3,0.2-0.6,0.2-0.8c0-0.1,0.1-0.2,0.1-0.3
		l0.1-0.2v0c0.1-0.2,0.2-0.5,0.3-0.7l0,0l0,0c0.1-0.3,0.3-0.6,0.5-0.9c0-0.1,0.1-0.2,0.1-0.2c0.2-0.3,0.4-0.6,0.6-0.9l0,0v0v0h0
		c0,0-0.2,2.4-0.2,5.3c0,0.5,0,0.9,0.1,1.4c0,0.3,0,0.6,0.1,0.9c0.2-3.1,0.8-6,1.6-8.7c-0.8,2.7-1.4,5.6-1.6,8.7v0
		c-0.1,2-0.1,4,0.1,6.1c0.3,3.5,1.2,7.3,2.7,11.2c0,0-1.4-4.5,0.6-9c0.2,0.4,0.4,0.8,0.6,1.2c0.2,1.3,0.4,3.2,0.8,5.3
		c0.4,3.5,2,14,9.2,21.3c0,0-2.7-3.5-2.3-8c0.3,0.6,0.6,1.1,0.8,1.6c1.2,2.3,3.6,6.5,6.3,9.5c0,0-2.1-4.1-1.6-5c0,0,7,8.7,9.2,9.5
		l-2.9-4.8l-0.1-0.1c10.1,7.4,24.1,10.1,41.3,5.3c3-0.8,6-1.9,9.2-3.2c1.9-0.8,3.8-1.8,5.7-2.8l0.3-0.2c1.3-0.7,2.6-1.5,3.9-2.3l0,0
		c1-0.6,2-1.3,2.9-1.9c1.6-1.1,3.2-2.3,4.8-3.6l0,0l0,0c0.1-0.1,0.2-0.2,0.3-0.2c1.5-1.3,3-2.7,4.3-4.1c1.8-1.9,3.4-3.8,4.8-5.7
		l0.1-0.1c0.4-0.5,0.7-0.9,1-1.4l0.1-0.1c0.1-0.2,0.2-0.3,0.3-0.5c0.5-0.7,0.9-1.3,1.4-2c0.1-0.2,0.2-0.3,0.3-0.5
		c0.2-0.4,0.4-0.7,0.7-1.1c0.2-0.3,0.3-0.5,0.5-0.8c0.2-0.3,0.4-0.6,0.5-0.9c0.3-0.5,0.6-1.1,0.9-1.6c0.1-0.2,0.2-0.4,0.3-0.6
		c0.2-0.4,0.4-0.8,0.6-1.2c0.1-0.2,0.2-0.4,0.3-0.6l0.1-0.2c0.2-0.5,0.5-1,0.7-1.5l0-0.1c0.9-0.8,1.5-1.6,2.1-2.3
		c0.1-0.1,0.2-0.2,0.2-0.3C255.6,211.3,256,209.8,256.1,208.4z"/>
	<path fill="#FCE9CD" d="M94.3,182.8c-0.3,0.1-0.6,0.5-1,1c-0.1,0.2-0.3,0.4-0.4,0.7c-0.9,1.7-1.7,4.1-1.7,4.1
		c0.1-0.8,0.2-1.6,0.2-2.4c0-0.1,0-0.2,0-0.3c0.1-0.8,0.2-1.7,0.3-2.5c0-0.1,0-0.2,0-0.3c0.1-1,0.3-1.9,0.5-2.8c0-0.1,0-0.2,0.1-0.4
		l0-0.1c0-0.1,0-0.2,0.1-0.3c0-0.2,0.1-0.3,0.1-0.5c0.1-0.7,0.3-1.4,0.4-2.1c0.1-0.6,0.2-1.2,0.3-1.7l0-0.2c0-0.1,0-0.2,0.1-0.2
		c0-0.1,0-0.2,0-0.2l0,0c0-0.1,0.1-0.3,0.1-0.4l0,0c0-0.1,0-0.2,0.1-0.3c0-0.2,0.1-0.4,0.1-0.5l0,0c0-0.1,0.1-0.3,0.1-0.4
		c0-0.2,0.1-0.4,0.1-0.5l0,0l0,0c0-0.1,0-0.2,0.1-0.3l0,0c0-0.1,0-0.2,0.1-0.2c0-0.2,0.1-0.3,0.1-0.4l0-0.1l0,0l0-0.1l0-0.1l0,0l0,0
		l-0.2,0.2c-0.2,0.1-0.3,0.3-0.5,0.4l-0.2,0.2c-0.2,0.2-0.4,0.4-0.5,0.6l-0.1,0.1c-0.2,0.3-0.4,0.6-0.6,0.9v0l0,0l0,0l-0.1,0.1
		c0,0.1-0.1,0.1-0.1,0.2c-0.1,0.2-0.2,0.4-0.3,0.6l0,0l0,0l0,0l0,0.1l0,0.1c-0.1,0.3-0.3,0.6-0.4,0.9c-0.3,0.8-0.6,1.6-0.8,2.3
		c-0.1,0.2-0.1,0.5-0.2,0.6c-0.1,0.4-0.2,0.8-0.2,0.9l0,0l0,0.1v0v0l0-0.1c0-0.3,0-0.5,0.1-0.8c0-0.5,0.1-1.1,0.1-1.6
		c0-0.4,0.1-0.9,0.2-1.3c0-0.1,0-0.3,0.1-0.4c0-0.2,0.1-0.4,0.1-0.6c0-0.2,0.1-0.4,0.1-0.6l0,0v0l0-0.2l0-0.1c0-0.2,0.1-0.5,0.1-0.7
		c0-0.1,0-0.2,0-0.3l0-0.2l0,0c0-0.1,0-0.1,0-0.2c0-0.1,0-0.2,0.1-0.3c0.1-0.3,0.2-0.7,0.2-1l0-0.1c0.1-0.2,0.1-0.5,0.2-0.7l0,0l0,0
		l0-0.1c0.1-0.5,0.3-1,0.4-1.5l0-0.1l0-0.1c0-0.1,0-0.2,0.1-0.3c0.2-0.8,0.5-1.6,0.7-2.3l0-0.1c0.2-0.6,0.5-1.3,0.7-1.9l0-0.1
		c0.1-0.3,0.2-0.5,0.3-0.8l0,0c0.2-0.4,0.3-0.8,0.5-1.2l0,0v0l0,0l0,0c0-0.1,0.1-0.3,0.3-0.7l0,0l0,0v0c0.1-0.1,0.1-0.3,0.2-0.4
		c0.1-0.2,0.2-0.4,0.3-0.7l0.1-0.2c-0.1-0.1-0.3-0.1-0.4-0.2l-0.1,0l-0.2-0.1c-0.9-0.4-1.9-0.8-2.9-1.1l-0.2,0
		c-0.7-0.2-1.3-0.3-2-0.4l0,0c-0.4,0-0.8-0.1-1.2-0.1c-0.3,0-0.7,0-1,0c-0.5,0-1,0.1-1.5,0.1c-0.2,0-0.3,0-0.5,0.1
		c-0.2,0-0.5,0.1-0.7,0.1c-0.1,0-0.2,0-0.3,0.1c-0.2,0-0.3,0.1-0.5,0.1c-0.3,0.1-0.7,0.2-1,0.3c-0.1,0-0.3,0.1-0.4,0.1
		c-0.4,0.2-0.9,0.3-1.3,0.5c-0.2,0.1-0.3,0.2-0.5,0.2c-0.2,0.1-0.4,0.2-0.6,0.3l-0.2,0.1c-0.2,0.1-0.4,0.2-0.6,0.4
		c-0.2,0.1-0.4,0.2-0.6,0.4c-0.2,0.1-0.4,0.3-0.6,0.4c-0.1,0.1-0.3,0.2-0.4,0.3c-0.3,0.3-0.7,0.6-1,0.9c-0.2,0.2-0.3,0.3-0.5,0.5
		c-0.3,0.3-0.5,0.6-0.8,0.9l-0.1,0.1c-0.1,0.2-0.3,0.3-0.4,0.5l0,0l0,0c-0.1,0.1-0.2,0.2-0.3,0.3l0,0l0,0l0,0l0,0
		c-0.5,0.7-1,1.5-1.4,2.3c-0.1,0.1-0.1,0.2-0.2,0.3c-0.2,0.4-0.3,0.8-0.5,1.2c-0.1,0.2-0.1,0.3-0.2,0.5l0,0v0l0,0
		c-0.1,0.4-0.3,0.8-0.4,1.3l0,0.2l0,0.2l0,0c-0.1,0.3-0.1,0.6-0.2,0.9c0,0.2,0,0.3-0.1,0.5l0,0c0,0.2,0,0.3-0.1,0.5
		c0,0.1,0,0.3,0,0.4c0,0.5-0.1,1,0,1.5c0,0.4,0,0.8,0.1,1.2l0,0l0,0.2c0,0.2,0.1,0.4,0.1,0.6c0.1,0.8,0.3,1.5,0.5,2.3
		c0.2,0.6,0.4,1.1,0.6,1.6c0.4,1,0.9,1.9,1.5,2.8c1.2,1.8,2.8,3.4,4.7,4.6c1,0.7,2.2,1.2,3.4,1.6c1.1,0.4,2.3,0.7,3.6,0.8
		c0.3,0,0.6,0.1,0.8,0.1c0.4,0,0.9,0,1.3,0c0.4,0,0.8-0.1,1.2-0.1c0.2,0,0.5,0,0.7-0.1c0.6-0.1,1.1-0.2,1.7-0.3l0.1,0
		c0.2-0.1,0.4-0.1,0.7-0.2c0.7-0.2,1.4-0.5,2-0.8l0.1-0.1c0.2-0.1,0.4-0.2,0.5-0.2l0,0c-0.3-1.7-0.6-3.5-0.7-5.3
		C94.3,183.1,94.3,183,94.3,182.8z"/>
	<polygon fill="none" points="54,193.4 54,193.4 54,193.4 54,193.4 54,193.4 	"/>
	<polygon fill="#4D9ED7" points="161.8,41.6 162.1,41.8 162.1,41.7 	"/>
	<path fill="#FFFFFF" d="M249.9,204.3c0-0.1,0-0.2-0.1-0.2c-0.1-0.2-0.1-0.3-0.1-0.4c-0.5-1.6-1.1-2.8-1.7-3.7
		c-0.7-1.1-1.3-1.7-1.3-1.7c0.1-0.4,0.2-0.8,0.3-1.2c0.1-0.5,0.2-1,0.2-1.5c0.4-3.6-0.5-6.4-1.3-8c-0.1-0.3-0.2-0.5-0.3-0.7
		c-0.6,0.4-1.1,0.8-1.7,1.2c-10.8,7.3-22.9,12-36,14c-9,1.4-18.5,1.5-28.4,0.3l0.2,0.1c0,0-6,0.8-7.6,6.5l0.1,0.1l-0.5,3.8
		c0.2,5.2,2.5,8.4,5.2,10.1c2.8,1.1,6.2,1.9,10,2.4c6.5,0.8,14.1,0.6,21.7-0.6l0,0l0,0c10.2-1.4,24.6-6.8,34.9-13.8
		c2.3-1.6,4.5-3.3,6.3-5l0.1-0.1l0.1-0.1C250.1,205.1,250,204.6,249.9,204.3z"/>
	<path fill="#F2D2AC" d="M230.4,154.9c-5.5-3.4-6.3-4.5-5.8-13.6c0.2-3.3,0.5-7.6,0.9-13.5c0-0.8,0.1-1.5,0.1-2.2c0-0.2,0-0.3,0-0.5
		c0-0.7,0-1.3,0-2l0-0.2l0-0.2c0-0.5-0.1-1-0.1-1.4c0-0.2,0-0.4-0.1-0.6c-0.1-0.5-0.1-1-0.2-1.5c0-0.2-0.1-0.5-0.1-0.7
		c0-0.3-0.1-0.5-0.2-0.8c-0.1-0.2-0.1-0.5-0.2-0.7l0,0l0,0c-0.8-1.2-1.7-2.2-2.8-3.1l-0.2-0.2l0,0l-0.2-0.1l-0.1,0
		c-0.2-0.1-0.3-0.2-0.5-0.3c-0.2-0.1-0.4-0.2-0.5-0.3c-1.6-1-3.5-1.6-5.4-1.9c-1.1-0.2-2.2-0.2-3.3-0.2c-0.5,0-1.1,0.1-1.6,0.1
		c-1.4,0.2-2.8,0.5-4.3,0.9c-0.5,0.3-1,0.7-1.5,1c-0.4,0.3-0.8,0.6-1.3,0.9l-0.2,0.1c-0.4,0.3-0.9,0.6-1.3,0.8l-0.2,0.1
		c-0.4,0.3-0.9,0.5-1.3,0.8l-0.2,0.1c-0.4,0.3-0.9,0.5-1.4,0.7l-0.2,0.1c-0.5,0.2-0.9,0.4-1.4,0.6l-0.2,0.1c-0.5,0.2-1,0.3-1.5,0.5
		l-0.1,0c-0.5,0.1-1.1,0.2-1.6,0.3c-0.9,0.1-1.9,0.2-2.8,0.2c-1.5,0-3-0.1-4.6-0.3c-0.5-0.1-1-0.2-1.5-0.3c-0.2,0-0.4-0.1-0.5-0.1
		c-1.3-0.3-2.7-0.6-4-0.9c-0.6-0.1-1.1-0.3-1.7-0.4c-0.9-0.2-1.8-0.4-2.8-0.6c-0.2,0-0.4-0.1-0.5-0.1c-0.8,0-1.6,0.1-2.3,0.2l-0.2,0
		c-2.3,0.3-4.5,0.8-6.8,1.6c-0.1,0-0.2,0.1-0.4,0.1c-0.4,0.1-0.7,0.3-1.1,0.4c-0.5,0.2-0.9,0.4-1.4,0.6c-3.3,1.4-6.4,3.4-9.4,5.9
		c-1.2,1-2.3,2.1-3.4,3.2c-1.6,1.7-3,3.5-4.3,5.4c-0.1,0.1-0.1,0.2-0.2,0.3c-0.7,1-1.3,2.1-1.8,3.1c-0.2,0.4-0.4,0.8-0.6,1.1l0,0.1
		c-0.6,1.3-1.1,2.5-1.5,3.8c0,0.1,0,0.2-0.1,0.2c-0.1,0.2-0.1,0.4-0.2,0.6c-0.2,0.6-0.4,1.2-0.5,1.8c-0.2,0.6-0.3,1.2-0.4,1.9
		c0,0.1-0.1,0.3-0.1,0.4c-0.1,0.4-0.1,0.8-0.2,1.1c-0.2,1.4-0.3,2.8-0.4,4.2c0,0.3,0,0.7,0,1c0.6,2.3,1.5,4.4,2.6,6.2
		c4.1,7.1,10.9,11.4,15.9,13.7c1.9,0.8,3.9,1.6,6,2.3l0.1,0.1l0,0l0,0l0.1-0.1c0.3-0.2,0.5-0.4,0.8-0.6c0.1-0.1,0.2-0.1,0.3-0.2
		c0.3-0.2,0.6-0.4,0.9-0.6c0.1-0.1,0.2-0.1,0.3-0.2c0.3-0.2,0.6-0.4,0.9-0.6c0.1-0.1,0.2-0.1,0.3-0.2c0.3-0.2,0.6-0.4,1-0.6
		c0.1-0.1,0.2-0.1,0.3-0.2c0.3-0.2,0.7-0.4,1-0.6c0.1-0.1,0.2-0.1,0.3-0.2c0.3-0.2,0.7-0.4,1-0.6c0.1-0.1,0.3-0.1,0.4-0.2
		c0.3-0.2,0.7-0.4,1-0.6c0.1-0.1,0.3-0.2,0.4-0.2c0.3-0.2,0.7-0.4,1.1-0.6c0.2-0.1,0.3-0.2,0.5-0.2c0.4-0.2,0.7-0.4,1.1-0.5
		c0.2-0.1,0.3-0.2,0.5-0.2c0.4-0.2,0.7-0.3,1.1-0.5c0.2-0.1,0.4-0.2,0.6-0.3c0.4-0.2,0.7-0.3,1.1-0.5c0.2-0.1,0.4-0.2,0.7-0.3
		c0.4-0.1,0.7-0.3,1.1-0.4c0.2-0.1,0.5-0.2,0.7-0.3c0.4-0.1,0.7-0.3,1.1-0.4c0.3-0.1,0.5-0.2,0.8-0.3c0.4-0.1,0.7-0.3,1.1-0.4
		c0.3-0.1,0.6-0.2,0.9-0.3c0.3-0.1,0.7-0.2,1-0.4c0.3-0.1,0.7-0.2,1-0.3c0.3-0.1,0.7-0.2,1-0.3c0.4-0.1,0.8-0.2,1.1-0.3
		c0.3-0.1,0.6-0.2,1-0.3c0.4-0.1,0.8-0.2,1.3-0.4c0.2-0.1,0.4-0.1,0.6-0.2c1.6-4.1,6.5-14.3,14.8-15.4c0.9-0.1,1.7-0.2,2.5-0.2
		c0.2,0,0.4,0,0.6,0c-0.1-0.6-0.2-1.2-0.2-1.9c-0.3-4.4,1.1-8.1,3-8.2c1.5-0.1,2.7,2.1,2.9,2.8c0.6,1.3,1,3,1.1,4.9
		c0.1,1.7-0.1,3.3-0.4,4.7c0.2,0.2,0.3,0.4,0.5,0.5c1.9,2.4,2.2,5.6,2.1,8c0.7-0.1,1.5-0.1,2.3-0.2c0.2,0,0.4,0,0.6-0.1l0.1,0
		c0.1,0,0.2,0,0.3,0c0.9-0.1,1.9-0.2,2.9-0.2l0,0c2.2-0.2,4.4-0.3,6.7-0.4C231.2,155.3,230.4,154.9,230.4,154.9z"/>
	<path fill="#F2D2AC" d="M251.3,216.4c-3.6,3.2-7.4,5.8-11.2,7.9c-1.9,1-3.8,1.9-5.6,2.7c-4.1,1.8-8,3-11.5,3.9
		c-7.7,1.9-13,1.9-13,1.9c4.2,2.3,9.5,2.3,13.1,2c2.5-0.2,4.2-0.7,4.2-0.7c-0.1,1.5-0.3,2.9-0.5,4.3c-0.3,1.5-0.7,2.8-1.2,4l0,0.1
		l0,0c-0.6,1.5-1.4,2.8-2.2,4c-0.1,0.1-0.2,0.3-0.3,0.4l0.3-0.2c1.3-0.7,2.6-1.5,3.9-2.3l0,0c1-0.6,2-1.3,2.9-1.9
		c1.6-1.1,3.2-2.3,4.8-3.6l0,0l0,0c0.1-0.1,0.2-0.2,0.3-0.2c1.5-1.3,3-2.7,4.3-4.1c1.8-1.9,3.4-3.8,4.8-5.7l0.1-0.1
		c0.4-0.5,0.7-0.9,1-1.4l0.1-0.1c0.1-0.2,0.2-0.3,0.3-0.5c0.5-0.7,0.9-1.3,1.4-2c0.1-0.2,0.2-0.3,0.3-0.5c0.2-0.4,0.4-0.7,0.7-1.1
		c0.2-0.3,0.3-0.5,0.5-0.8c0.2-0.3,0.4-0.6,0.5-0.9c0.3-0.5,0.6-1.1,0.9-1.6c0.1-0.2,0.2-0.4,0.3-0.6c0.2-0.4,0.4-0.8,0.6-1.2
		c0.1-0.2,0.2-0.4,0.3-0.6l0.1-0.2c0.2-0.5,0.5-1,0.7-1.5C251.8,216,251.6,216.2,251.3,216.4z"/>
	<path fill="#F2D2AC" d="M160.2,176.2c-1,0.3-2.2,0.8-3.4,1.3c-3.2,1.3-6.8,3.2-10,5.8c-0.4,0.3-0.8,0.7-1.2,1
		c-0.7,0.6-1.3,1.2-1.9,1.9c-0.1,0.1-0.1,0.1-0.2,0.2c-0.1,0.1-0.2,0.2-0.3,0.3c-0.2,0.3-0.5,0.5-0.7,0.8c-0.1,0.1-0.2,0.2-0.3,0.3
		c-0.3,0.4-0.6,0.8-0.8,1.2c-0.3,0.4-0.5,0.8-0.8,1.2c-1.9,3.3-3,7.3-2.7,12.1l0,0l0,0c0,0,0-0.1,0-0.2l0,0c0-0.1,0-0.2,0.1-0.3
		l0-0.1c0-0.1,0.1-0.2,0.1-0.4l0-0.1c0-0.1,0.1-0.3,0.1-0.5l0,0c0-0.2,0.1-0.3,0.2-0.5l0-0.1c0.1-0.2,0.1-0.4,0.2-0.6l0-0.1
		c0.1-0.2,0.1-0.4,0.2-0.6l0-0.1c0.1-0.2,0.2-0.4,0.3-0.7l0.1-0.1c0.1-0.2,0.2-0.5,0.4-0.7v0c0,0,0,0,0,0c0.2-0.4,0.4-0.7,0.6-1.1
		c0.1-0.1,0.2-0.3,0.3-0.4l0.1-0.1l0,0c0.2-0.3,0.4-0.6,0.6-0.9c0.2-0.2,0.4-0.5,0.6-0.7c0.1-0.1,0.1-0.1,0.2-0.2
		c0.2-0.2,0.3-0.4,0.5-0.5c0.1-0.1,0.1-0.1,0.2-0.2c0.2-0.2,0.5-0.4,0.7-0.7l0,0v0v0c0,0-4.3,9.8-2.4,17.5c0,0,0,0,0-0.1
		c0,0,0,0,0,0c0,0,0-0.1,0-0.2c0,0,0,0,0,0c0-0.1,0-0.2,0-0.3c0,0,0,0,0,0c0-0.1,0-0.2,0-0.4c0,0,0,0,0,0c0-0.1,0-0.3,0-0.5
		c0,0,0,0,0,0c0-0.2,0-0.4,0.1-0.6c0,0,0,0,0,0c0-0.2,0-0.4,0.1-0.6c0,0,0,0,0-0.1c0-0.2,0.1-0.5,0.1-0.7l0-0.1l0-0.1v0
		c0.1-0.3,0.1-0.5,0.2-0.8c0,0,0,0,0-0.1c0.1-0.3,0.2-0.6,0.2-0.8c0-0.1,0.1-0.2,0.1-0.3l0.1-0.2v0c0.1-0.2,0.2-0.5,0.3-0.7l0,0l0,0
		c0.1-0.3,0.3-0.6,0.5-0.9c0-0.1,0.1-0.2,0.1-0.2c0.2-0.3,0.4-0.6,0.6-0.9l0,0v0v0h0c0,0-0.2,2.4-0.2,5.3c0,0.5,0,0.9,0.1,1.4
		c0,0.3,0,0.6,0.1,0.9c0.2-3.1,0.8-6,1.6-8.7c0.2-0.7,0.5-1.5,0.7-2.2c0-0.1,0.1-0.2,0.1-0.3c0.3-0.7,0.5-1.3,0.8-2
		c0.1-0.1,0.1-0.2,0.2-0.4c0.3-0.6,0.6-1.3,0.9-1.9c0.1-0.1,0.1-0.2,0.1-0.3c0.7-1.3,1.4-2.5,2.1-3.6c0.1-0.1,0.1-0.2,0.2-0.3
		c0.3-0.4,0.6-0.8,0.9-1.3c0.1-0.1,0.1-0.2,0.2-0.3c0.1-0.1,0.1-0.2,0.2-0.3c0.4-0.5,0.7-1,1.1-1.5c0.1-0.1,0.1-0.2,0.2-0.2
		c0.4-0.5,0.8-1,1.2-1.4l0,0c0.5-0.6,1-1.1,1.5-1.7c0.4-0.4,0.7-0.8,1.1-1.1c0.1-0.1,0.3-0.3,0.4-0.4c0.8-0.8,1.6-1.6,2.4-2.3
		c2.2-2,4-3.3,4.6-3.7c-0.4,0.1-0.8,0.2-1.3,0.3C161.9,175.6,161.1,175.8,160.2,176.2z"/>
	<path fill="#F2D2AC" d="M217.7,154.5c0,0,0-0.2-0.1-0.6c-0.4-1.4-1.8-4.8-7.3-4.3c-5.8,0.6-7.8,5.3-8.3,6.9
		c-0.1,0.3-0.1,0.5-0.1,0.5l0.2,0.1c0.7-0.6,2.1-0.6,3.4,0.3c0.6,0.4,1,0.8,1.4,1.3v0c0.5,0.8,0.6,1.6,0.3,2.2
		c-0.1,0.1-0.2,0.2-0.3,0.3c0,0,0.2,0.1,0.6,0.2c1.6,0.5,6.1,1.4,8.5-1.7c0.1-0.2,0.2-0.3,0.3-0.5c-0.5-0.2-0.7-0.9-0.7-1.8
		c0-0.4,0.1-0.8,0.2-1.3C216.1,154.9,217,154.1,217.7,154.5z"/>
	<path fill="#F2D2AC" d="M188.9,197.3c-3.8,0.8-7.1,1.4-9.6,1.8c0.1,0,0.3,0,0.4,0.1c4.3,0.5,11.1,1.2,19.3,0.7
		c15-0.9,34.7-5.6,52.6-21.8l0-0.1v0v0c0.1-1.4-0.1-3.8-1.8-5.7c-0.3-0.3-0.6-0.6-1-0.9c-0.1,0-0.1-0.1-0.2-0.1
		c-0.5-0.3-0.9-0.5-1.3-0.8c-0.3-0.2-0.6-0.4-0.9-0.6l0-0.1c-1.1,1.6-2.4,3.1-3.8,4.5c-0.5,0.5-1,1-1.6,1.5
		c-4.9,4.4-11.3,8.2-18.2,11.2C211.3,192,198.5,195.3,188.9,197.3z"/>
	<path fill="#F2D2AC" d="M94.1,171.2c-0.2,0.1-0.3,0.3-0.5,0.4l-0.2,0.2c-0.2,0.2-0.4,0.4-0.5,0.6l-0.1,0.1
		c-0.2,0.3-0.4,0.6-0.6,0.9v0l0,0l0,0l-0.1,0.1c0,0.1-0.1,0.1-0.1,0.2c-0.1,0.2-0.2,0.4-0.3,0.6l0,0l0,0l0,0l0,0.1l0,0.1
		c-0.1,0.3-0.3,0.6-0.4,0.9c-0.3,0.8-0.6,1.6-0.8,2.3c-0.1,0.2-0.1,0.5-0.2,0.6c-0.1,0.4-0.2,0.8-0.2,0.9l0,0l0,0.1v0v0l0-0.1
		c0-0.3,0-0.5,0.1-0.8c0-0.5,0.1-1.1,0.1-1.6c0-0.4,0.1-0.9,0.2-1.3c0-0.1,0-0.3,0.1-0.4c0-0.2,0.1-0.4,0.1-0.6
		c0-0.2,0.1-0.4,0.1-0.6l0,0v0l0-0.2l0-0.1c0-0.2,0.1-0.5,0.1-0.7c0-0.1,0-0.2,0-0.3l0-0.2l0,0c0-0.1,0-0.1,0-0.2
		c0-0.1,0-0.2,0.1-0.3c0.1-0.3,0.2-0.7,0.2-1l0-0.1c0.1-0.2,0.1-0.5,0.2-0.7l0,0l0,0l0-0.1c0.1-0.5,0.3-1,0.4-1.5l0-0.1l0-0.1
		c0-0.1,0-0.2,0.1-0.3c0.2-0.8,0.5-1.6,0.7-2.3l0-0.1c0.2-0.6,0.5-1.3,0.7-1.9l0-0.1c0.1-0.3,0.2-0.5,0.3-0.8l0,0
		c0.2-0.4,0.3-0.8,0.5-1.2l0,0v0l0,0l0,0c0-0.1,0.1-0.3,0.3-0.7l0,0l0,0v0c0.1-0.1,0.1-0.3,0.2-0.4c0.1-0.2,0.2-0.4,0.3-0.7l0.1-0.2
		c-0.1-0.1-0.3-0.1-0.4-0.2l-0.1,0l-0.2-0.1c-0.9-0.4-1.9-0.8-2.9-1.1l-0.2,0c-0.7-0.2-1.3-0.3-2-0.4l0,0c-0.4,0-0.8-0.1-1.2-0.1
		c-0.3,0-0.7,0-1,0c-0.5,0-1,0.1-1.5,0.1c-0.2,0-0.3,0-0.5,0.1c-0.2,0-0.5,0.1-0.7,0.1c-0.1,0-0.2,0-0.3,0.1c-0.2,0-0.3,0.1-0.5,0.1
		c-0.3,0.1-0.7,0.2-1,0.3c-0.1,0-0.3,0.1-0.4,0.1c-0.4,0.2-0.9,0.3-1.3,0.5c-0.2,0.1-0.3,0.2-0.5,0.2c-0.2,0.1-0.4,0.2-0.6,0.3
		l-0.2,0.1c-0.2,0.1-0.4,0.2-0.6,0.4c-0.2,0.1-0.4,0.2-0.6,0.4c-0.2,0.1-0.4,0.3-0.6,0.4c-0.1,0.1-0.3,0.2-0.4,0.3
		c-0.3,0.3-0.7,0.6-1,0.9c-0.2,0.2-0.3,0.3-0.5,0.5c-0.3,0.3-0.5,0.6-0.8,0.9l-0.1,0.1c-0.1,0.2-0.3,0.3-0.4,0.5l0,0l0,0
		c-0.1,0.1-0.2,0.2-0.3,0.3l0,0l0,0l0,0l0,0c-0.5,0.7-1,1.5-1.4,2.3c-0.1,0.1-0.1,0.2-0.2,0.3c-0.2,0.4-0.3,0.8-0.5,1.2
		c-0.1,0.2-0.1,0.3-0.2,0.5l0,0v0c0,0.1,0.1,0.2,0.1,0.3c0.1,0.4,0.2,0.7,0.3,1.1l0,0.1l0,0.1c0.1,0.3,0.3,0.7,0.4,1
		c0.4,1,0.8,1.9,1.3,2.7c0.1,0.1,0.1,0.2,0.2,0.3l0,0.1l0.1,0.1c0.3,0.6,0.6,1.1,0.9,1.5c0.5,0.7,0.9,1.2,1.2,1.6
		c0.1,0.1,0.1,0.1,0.2,0.2c0,0.1,0.1,0.1,0.1,0.1c0.1,0.1,0.2,0.2,0.2,0.2c0-0.2-0.1-0.4-0.1-0.5c-0.3-1.3-0.4-2.5-0.4-3.8l0-0.1
		l0-0.1c0-0.8,0-1.6,0.1-2.3h0l0,0c0.1,0.3,0.2,0.6,0.3,0.9c0.1,0.4,0.3,0.8,0.4,1.2l0,0.1l0,0.1c0.6,1.7,1.3,3.1,2,4.2
		c0.8,1.4,1.5,2.3,2,2.9c0.1,0.1,0.2,0.2,0.2,0.3c0.1,0.1,0.2,0.2,0.2,0.2c-0.3-1.4-0.5-2.7-0.5-4c0-0.4,0-0.9,0-1.3
		c0-0.6,0-1.1,0.1-1.6v0v0c0.2,0.9,0.5,1.8,0.8,2.6l0,0.1c1.1,2.9,2.4,5,3.3,6.3l0.1,0.1c0.2,0.2,0.3,0.4,0.4,0.6
		c0.1,0.1,0.2,0.2,0.2,0.3c0.1,0.1,0.2,0.2,0.2,0.2c0.1,0.1,0.1,0.1,0.1,0.1l0-0.2c0-0.2-0.1-0.4-0.1-0.6c-0.1-0.7-0.2-1.4-0.3-2
		c0-0.4-0.1-0.9-0.1-1.3c0-0.4,0-0.8,0-1.2c0-0.1,0-0.1,0-0.2c0-0.2,0-0.4,0-0.6l0-0.1l0-0.1c0-0.5,0.1-1.1,0.1-1.6v0v0
		c0.1,0.3,0.2,0.7,0.3,1c0.1,0.2,0.2,0.5,0.3,0.7l0,0l0,0.1l0.1,0.1c0.1,0.3,0.2,0.6,0.3,0.8c0.2,0.5,0.4,1,0.7,1.4
		c0.3,0.6,0.5,1.1,0.8,1.5c0.2,0.3,0.3,0.5,0.4,0.7c0.2,0.3,0.4,0.6,0.5,0.8c0.2,0.2,0.3,0.4,0.4,0.6c0,0,0.1,0.1,0.1,0.1
		c0.1,0.2,0.3,0.3,0.4,0.5c0.1,0.1,0.2,0.2,0.2,0.3c0.2,0.2,0.3,0.4,0.4,0.4l0,0l0.1,0.1c0-0.1,0-0.2,0-0.3c0.1-0.8,0.2-1.7,0.3-2.5
		c0-0.1,0-0.2,0-0.3c0.1-1,0.3-1.9,0.5-2.8c0-0.1,0-0.2,0.1-0.4l0-0.1c0-0.1,0-0.2,0.1-0.3c0-0.2,0.1-0.3,0.1-0.5
		c0.1-0.7,0.3-1.4,0.4-2.1c0.1-0.6,0.2-1.2,0.3-1.7l0-0.2c0-0.1,0-0.2,0.1-0.2c0-0.1,0-0.2,0-0.2l0,0c0-0.1,0.1-0.3,0.1-0.4l0,0
		c0-0.1,0-0.2,0.1-0.3c0-0.2,0.1-0.4,0.1-0.5l0,0c0-0.1,0.1-0.3,0.1-0.4c0-0.2,0.1-0.4,0.1-0.5l0,0l0,0c0-0.1,0-0.2,0.1-0.3l0,0
		c0-0.1,0-0.2,0.1-0.2c0-0.2,0.1-0.3,0.1-0.4l0-0.1l0,0l0-0.1l0-0.1l0,0l0,0L94.1,171.2z"/>
	<path fill="#F2D2AC" d="M215.3,213c1.4-0.5,2.6-0.9,3.6-1.3c1.9-0.8,2.9-1.4,2.9-1.6c-0.1-0.2-1.2-0.1-3.2,0.4
		c-1,0.2-2.2,0.4-3.7,0.8c-0.7,0.2-1.5,0.3-2.3,0.4c-0.8,0.1-1.7,0.3-2.6,0.4c-1.8,0.3-3.8,0.5-6,0.7c-1.1,0.1-2.2,0.2-3.3,0.3
		c-1.1,0.1-2.3,0.1-3.5,0.2c-4.8,0.1-10.1-0.1-15.5-1.1c-2.8-0.5-6.7-1.8-9.4-3.3l-0.1-0.1c1.6-5.7,7.6-6.5,7.6-6.5l-0.2-0.1
		c-0.1,0-0.2,0-0.3,0c-0.9-0.1-1.6-0.2-2.3-0.3c-0.5-0.1-0.9-0.1-1.2-0.2c-0.3,0-0.6-0.1-0.7-0.1c-3.6-0.2-5.6,2.8-6.2,4.1
		c-0.1,0.2-0.2,0.4-0.3,0.6c-0.5,1.2-0.9,2.5-1,4c-0.2,2.7,0.5,5.6,2.6,8.1c1.4,1.7,3.8,3.2,6.9,4.4c-2.7-1.7-5.1-5-5.2-10.1
		c3.1,1.3,6.6,2.1,9.3,2.6c5.7,1.1,11.3,1.2,16.2,0.9c1.2-0.1,2.5-0.2,3.6-0.3c1.2-0.2,2.3-0.3,3.4-0.4c2.2-0.4,4.1-0.7,6-1.1
		c0.9-0.2,1.8-0.4,2.6-0.7C213.8,213.4,214.6,213.3,215.3,213z"/>
	<path fill="#664F44" d="M210.5,146.2c3,0.1,5,1,6.4,2.4c0.3-1.3,0.5-2.9,0.4-4.7c-0.1-1.9-0.5-3.6-1.1-4.9
		c-0.2-0.8-1.4-2.9-2.9-2.8c-1.9,0.1-3.3,3.8-3,8.2C210.3,145,210.4,145.6,210.5,146.2z"/>
	<path fill="#664F44" d="M215.6,157.5c0,0.8,0.3,1.5,0.7,1.8c0.7,0.4,1.6-0.4,2-1.7c0-0.1,0.1-0.2,0.1-0.3v0c0.3-1.2,0-2.4-0.7-2.7
		c-0.7-0.4-1.6,0.4-2,1.7C215.6,156.7,215.6,157.1,215.6,157.5z"/>
	<path fill="#664F44" d="M202,159.6c0.3,0.5,0.8,1,1.4,1.4c1.3,0.8,2.7,0.9,3.5,0.2c0.1-0.1,0.2-0.2,0.3-0.3
		c0.3-0.6,0.2-1.4-0.3-2.2l0,0c-0.3-0.5-0.8-1-1.4-1.3c-1.3-0.8-2.7-0.9-3.4-0.3c-0.1,0.1-0.2,0.2-0.3,0.4
		C201.4,158.1,201.5,158.9,202,159.6L202,159.6z"/>
	<g>
		<path fill="#664F44" d="M251.6,177.9L251.6,177.9L251.6,177.9L251.6,177.9C251.5,178,251.5,178,251.6,177.9L251.6,177.9z"/>
		<path fill="#664F44" d="M250,205.7L250,205.7c-1.9,1.8-4,3.5-6.4,5.1c-10.3,7-24.7,12.5-34.9,13.8l0,0l0,0
			c-7.7,1.2-15.2,1.4-21.7,0.6c-3.8-0.5-7.1-1.3-10-2.4c-3.1-1.2-5.5-2.7-6.9-4.4c-2.1-2.5-2.7-5.5-2.6-8.1c0.1-1.4,0.4-2.8,1-4
			c0.1-0.2,0.2-0.4,0.3-0.6c0.7-1.3,2.6-4.4,6.2-4.1c0.1,0,0.4,0,0.7,0.1c0.3,0,0.8,0.1,1.2,0.2c0.7,0.1,1.4,0.2,2.3,0.3
			c0.1,0,0.2,0,0.3,0c9.9,1.2,19.4,1.1,28.4-0.3c13.1-2,25.2-6.7,36-14c0.6-0.4,1.1-0.8,1.7-1.2l5.9-8.8
			c-17.9,16.1-37.6,20.8-52.5,21.7c-8.2,0.5-15-0.1-19.3-0.7c-0.2,0-0.3,0-0.4-0.1c-1.3-0.2-2.3-0.3-3.1-0.4c-0.4,0-0.7-0.1-0.9-0.1
			c-1.1-0.1-2.2,0.1-3.2,0.4c-2,0.6-3.8,2-5.1,3.8c-1.6,2.2-2.6,5.2-2.6,8.2c0,2.5,0.6,5.1,1.9,7.5c0.1,0.1,0.1,0.2,0.2,0.3
			c0.2,0.3,0.3,0.5,0.5,0.8c0.2,0.3,0.5,0.7,0.8,1c3.1,3.9,9.9,6.7,18.9,7.9c6.1,0.8,13.2,0.7,20.9-0.4
			c22.8-4.1,33.6-11.5,38.6-16.6c0.4-0.4,0.7-0.7,1-1.1c1.8-2.1,2.6-3.7,2.9-4.3l0-0.1c0.1-0.2,0.1-0.3,0.1-0.3L250,205.7z"/>
	</g>
	<path fill="#E9B784" d="M177.6,126.7c-0.7-0.4-1.5-0.7-2.3-0.9c-0.5-0.1-1-0.2-1.6-0.3c-0.2,0-0.4,0-0.6-0.1c-2.7-0.2-5,0.2-5,0.2
		c-0.5,0.1-1,0.2-1.4,0.4c-3.6,1.1-6.1,3-7.9,5.2c-1.4,1.8-2.4,3.7-2.9,5.6c-0.1,0.2-0.1,0.3-0.1,0.5c-0.1,0.5-0.3,1-0.4,1.4
		c-0.3,1.6-0.5,3-0.5,4.2c0,1.6,0.1,2.6,0.1,2.6c0.6-1.4,1.3-2.6,2-3.8c1.7-2.9,3.5-5.3,5.4-7.2c3.6-3.7,7.3-5.7,10.1-6.7
		C175.5,126.7,177.6,126.7,177.6,126.7z"/>
	<path fill="#E9B784" d="M220.8,121.5l-0.1-0.2c-0.4-0.5-0.9-1-1.5-1.4c-1.4-0.9-3.3-1.4-5.9-0.9c0,0-3.1,0.7-4.9,2.8
		c0,0,5.4-2.3,11.2,1.8c0.5,0.4,1.1,0.8,1.6,1.3c0.5,0.5,1.1,1,1.6,1.7c0,0-0.2-2.5-1.7-4.7C221,121.8,220.9,121.7,220.8,121.5z"/>
	<path fill="#664F44" d="M178.2,161.4c2.1-0.6,4.3-1.2,6.8-1.8c0.4-1.9,0.5-4.2,0.2-6.7c-0.7-5.8-3.3-10.3-5.9-10
		c-2.6,0.3-4.1,5.3-3.4,11.1C176.3,157,177.2,159.6,178.2,161.4z"/>
	<path fill="#FFD250" d="M166.4,30.7l-5.4,1.2l1.1,9.8l-14.3-7.3l-5.9,1.8l0.1,0.1l17.4,19.8l0.2-0.1l0.2-0.1c0.5-0.3,1.1-0.7,1.6-1
		c0.2-0.1,0.4-0.2,0.6-0.4c0.8-0.5,1.6-1,2.4-1.4l-7.4-8.5l11.9,5.8l0,0c0.4-0.2,0.7-0.4,1.1-0.6l-1.1-8.5l5.4,6.3l0.1,0
		c0.5-0.2,0.9-0.5,1.4-0.7l0.1-0.1l0.2-0.1c0.1,0,0.2-0.1,0.2-0.1c0.2-0.1,0.4-0.2,0.6-0.3c0,0,0.1,0,0.1-0.1
		c0.6-0.3,1.3-0.6,1.9-0.9L166.4,30.7z"/>
	<polygon fill="#4D9ED7" points="161,32.2 161,31.9 161,32.2 	"/>
	<path fill="#4D9ED7" d="M161,31.9l0.8-0.2c-1.3-0.6-2.9-1-4.7-1.3c-3.6-0.5-8.2,0-13.4,1.3c-5.2,1.3-11.1,3.6-17.3,6.7
		c-12.5,6.2-26.3,15.7-39.7,27.9c-4.7,4.2-9,8.6-13,12.9l16.2,19.8c4.4-4.8,9.1-9.6,14.3-14.3c6.9-6.3,13.9-11.9,20.8-16.7
		c6.7-4.7,13.4-8.7,19.7-11.9l-2.8-12.7l0.1-7.2l-0.1-0.1l5.9-1.8l11.5,5.9l-0.3-4L161,31.9z"/>
	<polygon fill="#132134" points="161,31.9 159,36.3 159.3,40.3 162.1,41.7 	"/>
	<polygon fill="#132134" points="157,44.6 168.9,50.4 164.4,53 	"/>
	<polygon fill="#132134" points="168.9,41.3 170,49.8 174.4,47.6 	"/>
	<path fill="#FFFFFF" d="M214.1,38.1c0.7,0,1.5,0,2.2,0c2,0,3.9,0.3,5.7,0.7c0.1,0,0.2,0,0.3,0.1l0,0l0.1,0l0.2,0.1l0.2,0
		c-0.2-0.1-0.4-0.3-0.6-0.4c-2-0.8-4.1-1.3-6.3-1.6c-10.8-1.4-23.2,2.6-30.2,5.4c-0.4,0.2-0.8,0.3-1.2,0.5c-0.6,0.3-1.2,0.5-1.8,0.8
		c-1,0.4-2,0.9-3.1,1.4c-0.2,0.1-0.3,0.1-0.5,0.2c-0.6,0.3-1.3,0.6-1.9,0.9c0,0-0.1,0-0.1,0.1c-0.2,0.1-0.4,0.2-0.6,0.3
		c-0.1,0-0.2,0.1-0.2,0.1l-0.2,0.1l-0.1,0.1c-0.5,0.2-0.9,0.4-1.4,0.7l-0.1,0c0,0,0,0,0,0c-0.1,0.1-0.2,0.1-0.3,0.2l-0.1,0
		c-0.1,0-0.2,0.1-0.2,0.1c-0.7,0.4-1.4,0.7-2.1,1.1c-0.5,0.3-1,0.5-1.5,0.8l-0.1,0c-0.4,0.2-0.7,0.4-1.1,0.6l0,0
		c-1.2,0.6-2.3,1.3-3.5,2c-0.1,0.1-0.2,0.1-0.4,0.2c-0.1,0.1-0.2,0.1-0.3,0.2c-0.1,0.1-0.2,0.1-0.3,0.2l-0.1,0.1
		c-0.8,0.5-1.6,0.9-2.4,1.4c-0.2,0.1-0.4,0.2-0.6,0.4c-0.5,0.3-1.1,0.7-1.6,1l-0.2,0.1l-0.2,0.1c-1.5,1-3,2-4.5,3
		c-2.5,1.7-4.9,3.4-7.3,5.2c-0.3,0.2-0.6,0.5-0.9,0.7c-6.3,4.7-12.3,9.8-18.1,15c-6.1,5.6-12,11.3-17.5,17.1c-3,3-5.6,5.7-7.6,7.9
		c-4.2,4.5-6.5,7.3-6.4,7.4c0,0,0.4-0.3,1.1-1c-0.5,0.6-1.1,1.3-1.6,1.9c9.2-9.8,19.3-19.8,30.2-29.2c6.6-5.7,13.5-11.2,20.6-16.3v0
		c3.1-2.2,6.3-4.4,9.5-6.5c1-0.7,2.1-1.3,3.1-2c0.5-0.3,1-0.6,1.6-0.9c0.3-0.2,0.6-0.4,0.9-0.5c0.6-0.3,1.1-0.7,1.7-1
		c0.5-0.3,1.1-0.6,1.6-1c0.3-0.2,0.6-0.3,0.9-0.5c0.7-0.4,1.4-0.8,2.1-1.2c0.4-0.2,0.8-0.5,1.2-0.7l0,0c1.3-0.7,2.6-1.4,4-2.1
		c0.1-0.1,0.2-0.1,0.3-0.2c0.2-0.1,0.4-0.2,0.6-0.3c0.3-0.1,0.5-0.3,0.8-0.4c0.1-0.1,0.2-0.1,0.3-0.2l0,0c0.2-0.1,0.4-0.2,0.6-0.3
		c0,0,0.1,0,0.1-0.1l0.1,0c0.6-0.3,1.2-0.6,1.7-0.8c0.1,0,0.2-0.1,0.3-0.2c0.2-0.1,0.4-0.2,0.6-0.3c0.7-0.3,1.3-0.6,2-0.9
		c0.2-0.1,0.4-0.2,0.5-0.3c0.1,0,0.2-0.1,0.3-0.1c0.2-0.1,0.4-0.2,0.6-0.2c0.8-0.3,1.5-0.7,2.3-1c0.7-0.3,1.3-0.6,2-0.9
		c3.8-1.6,7.3-2.9,10.6-4C203.9,39.4,209.3,38.3,214.1,38.1z"/>
</g>
</svg>
