<?xml version="1.0" encoding="utf-8"?>
<!-- Generator: Adobe Illustrator 18.1.1, SVG Export Plug-In . SVG Version: 6.00 Build 0)  -->
<svg version="1.1" id="Layer_1" xmlns="http://www.w3.org/2000/svg" xmlns:xlink="http://www.w3.org/1999/xlink" x="0px" y="0px"
	 viewBox="0 0 1280 800" enable-background="new 0 0 1280 800" xml:space="preserve">
<g>
	<linearGradient id="SVGID_1_" gradientUnits="userSpaceOnUse" x1="291.3799" y1="323" x2="291.3799" y2="473.0129">
		<stop  offset="0" style="stop-color:#4C5D69"/>
		<stop  offset="1" style="stop-color:#485864"/>
	</linearGradient>
	<polygon fill="url(#SVGID_1_)" points="321.3,383.1 261.5,383.1 261.5,320 233,320 233,474.8 261.5,474.8 261.5,410.4 321.3,410.4 
		321.3,474.8 349.7,474.8 349.7,320 321.3,320 	"/>
	<linearGradient id="SVGID_2_" gradientUnits="userSpaceOnUse" x1="416.1201" y1="323.0001" x2="416.1201" y2="473.0132">
		<stop  offset="0" style="stop-color:#4C5D69"/>
		<stop  offset="1" style="stop-color:#485864"/>
	</linearGradient>
	<path fill="url(#SVGID_2_)" d="M439.6,424.4c0,13-10.6,23.5-23.5,23.5c-13,0-23.5-10.5-23.5-23.5v-66.6h-26.9v66.6
		c0,27.8,22.6,50.4,50.4,50.4c27.8,0,50.4-22.6,50.4-50.4v-66.6h-26.9V424.4z"/>
	<linearGradient id="SVGID_3_" gradientUnits="userSpaceOnUse" x1="540.3674" y1="323" x2="540.3674" y2="473.0129">
		<stop  offset="0" style="stop-color:#4C5D69"/>
		<stop  offset="1" style="stop-color:#485864"/>
	</linearGradient>
	<path fill="url(#SVGID_3_)" d="M541.7,358.5c-13.4,0-22.7,3.9-31.7,12.7V320h-27v94.9c0,35.5,25.7,59.9,54.5,59.9
		c32.1,0,60.2-24.8,60.2-58.1C597.7,383.7,571.8,358.5,541.7,358.5z M542.3,449.8c-18.3,0-32.3-15.3-32.3-33.2
		c0-17.9,14-33.2,32.3-33.2c15.5,0,29.5,15.3,29.5,33.2C571.8,434.5,557.8,449.8,542.3,449.8z"/>
	<linearGradient id="SVGID_4_" gradientUnits="userSpaceOnUse" x1="659.1252" y1="323" x2="659.1252" y2="473.0129">
		<stop  offset="0" style="stop-color:#4C5D69"/>
		<stop  offset="1" style="stop-color:#485864"/>
	</linearGradient>
	<path fill="url(#SVGID_4_)" d="M643.1,365.3c0-13.6,9-17.9,18.9-17.9c8,0,18.5,6,25.4,13.4l17.7-20.7c-8.8-11.8-26.7-20-41.3-20
		c-29.3,0-50.4,17-50.4,45.2c0,52.3,64.4,35.7,64.4,65c0,9-8.8,17-18.9,17c-15.9,0-21.1-7.8-28.4-15.9l-19.6,20.2
		c12.5,15.3,28,23,46.5,23c27.8,0,50.2-17.2,50.2-44.1C707.5,372.4,643.1,390.5,643.1,365.3z"/>
	<linearGradient id="SVGID_5_" gradientUnits="userSpaceOnUse" x1="781.3687" y1="323.0001" x2="781.3687" y2="473.013">
		<stop  offset="0" style="stop-color:#4C5D69"/>
		<stop  offset="1" style="stop-color:#485864"/>
	</linearGradient>
	<path fill="url(#SVGID_5_)" d="M778.5,357c-28.9,0-54.5,24.3-54.5,59.9V512h27v-51.5c9,8.8,18.3,12.7,31.7,12.7
		c30.1,0,56.1-25.2,56.1-58.1C838.7,381.7,810.6,357,778.5,357z M783.3,448.3c-18.3,0-32.3-15.3-32.3-33.2c0-17.9,14-33.2,32.3-33.2
		c15.5,0,29.5,15.3,29.5,33.2C812.8,433,798.8,448.3,783.3,448.3z"/>
	<linearGradient id="SVGID_6_" gradientUnits="userSpaceOnUse" x1="1018.335" y1="323.0001" x2="1018.335" y2="473.0126">
		<stop  offset="0" style="stop-color:#4C5D69"/>
		<stop  offset="1" style="stop-color:#485864"/>
	</linearGradient>
	<path fill="url(#SVGID_6_)" d="M1037.5,449.8c-15.9,0-20.4-6.9-20.4-17.4v-46.7h24.8V362H1017v-31.2L989.7,343v95.2
		c0,24.3,16.8,36.6,39.8,36.6c3.4,0,8.2-0.2,10.8-0.9l6.7-24.5C1044,449.6,1040.5,449.8,1037.5,449.8z"/>
	<g>
		<path fill="#F7761F" d="M914.3,383.8c5.2,0,10.1,1.2,14.7,3.6c4.7,2.5,8.6,6.1,11.6,10.6c2.9,4.6,4.6,9.5,5.2,14.8
			c0.1,1.1,0.1,2.2,0.1,3.3c0,7.3-2.8,13.9-8.3,20c-6.4,7.1-13.7,10.9-22,11.3c-0.4,0-0.9,0-1.4,0c-4.7,0-9.4-1.2-13.9-3.6
			c-5.1-2.6-9.2-6.3-12.4-11c-3.3-4.6-5.1-9.6-5.3-15c0-0.6,0-1.1,0-1.6c0-5.3,1.3-10.3,3.8-15c2.7-5.2,6.5-9.4,11.4-12.5
			c4.8-3.2,10.1-4.8,15.8-4.9C913.9,383.8,914.1,383.8,914.3,383.8L914.3,383.8z M914.6,357.4c-10.5,0-20.1,2.4-29.1,7.1
			c-9.2,4.8-16.5,11.5-21.9,20.1c-5.5,8.6-8.3,18.1-8.6,28.5c0,0.7,0,1.4,0,2.2c0,7.3,1.2,14.2,3.5,20.6c2.6,7.2,6.6,13.5,12,19.1
			c5.4,5.5,11.7,9.9,19.1,13.1c7.4,3.2,15.5,4.9,24.4,5.2c0.6,0,1.1,0,1.6,0c9.8,0,19.1-2.4,27.8-7.1c9.2-5,16.5-11.9,22-20.6
			c5.5-8.7,8.3-18.4,8.6-29.1c0-0.2,0-0.4,0-0.5c0-10.5-2.5-20.1-7.6-28.9c-5.2-8.9-12.3-16-21.4-21.4c-9.2-5.4-19.2-8.1-29.9-8.2
			C914.9,357.4,914.7,357.4,914.6,357.4L914.6,357.4z"/>
		<path fill="#F7761F" d="M887.9,365c-10.4-7.9-53.1-40.3-77.6-58.9c0.6-2,1-4.1,1-6.3c0-13.2-10.7-23.8-23.8-23.8
			c-13.2,0-23.8,10.7-23.8,23.8c0,13.2,10.7,23.8,23.8,23.8c4.5,0,8.6-1.3,12.2-3.5l5,3.8l69.4,50L887.9,365z M880.5,459.8
			c2.7,2.4,3.2,1.8,3.2,1.8"/>
		<path fill="#F7761F" d="M835.4,483.1l11.5,11.5l34.1-34.1L869.5,449L835.4,483.1z"/>
		<path fill="#F7761F" d="M825.1,478.3c-3.5,3.5-5.4,8.1-5.4,13c0,4.9,1.9,9.5,5.4,13c3.5,3.5,8.1,5.4,13,5.4c4.9,0,9.5-1.9,13-5.4
			c3.5-3.5,5.4-8.1,5.4-13c0-4.9-1.9-9.5-5.4-13c-3.5-3.5-8.1-5.4-13-5.4C833.2,472.9,828.6,474.8,825.1,478.3"/>
		<path fill="#F7761F" d="M923.3,359.8v-30.1c7.5-3.4,12.7-10.8,12.7-19.6c0-11.9-9.6-21.5-21.5-21.5c-11.9,0-21.5,9.6-21.5,21.5
			c0,8.7,5.2,16.2,12.7,19.6v30.1H923.3z"/>
	</g>
</g>
</svg>
