<?xml version="1.0" encoding="utf-8"?>
<!-- Generator: Adobe Illustrator 15.1.0, SVG Export Plug-In . SVG Version: 6.00 Build 0)  -->
<!DOCTYPE svg PUBLIC "-//W3C//DTD SVG 1.1//EN" "http://www.w3.org/Graphics/SVG/1.1/DTD/svg11.dtd">
<svg version="1.1" id="Layer_1" xmlns="http://www.w3.org/2000/svg" xmlns:xlink="http://www.w3.org/1999/xlink" x="0px" y="0px"
	 width="72px" height="72px" viewBox="0 0 72 72" enable-background="new 0 0 72 72" xml:space="preserve">
<path fill="#2DACE3" d="M28.464,56.02c0.098,0.375-0.127,0.757-0.501,0.854l-12.887,3.353c-0.374,0.098-0.757-0.127-0.854-0.502
	l-0.177-0.678c-0.097-0.375,0.127-0.758,0.502-0.854l12.886-3.353c0.375-0.098,0.757,0.127,0.854,0.502L28.464,56.02z"/>
<path fill="#2DACE3" d="M30.036,42.576l0.176,0.679c0.098,0.375-0.127,0.757-0.502,0.854l-17.634,4.588
	c-0.375,0.097-0.757-0.127-0.854-0.502l-0.176-0.679c-0.098-0.374,0.127-0.757,0.501-0.854l17.634-4.587
	C29.556,41.978,29.938,42.201,30.036,42.576L30.036,42.576z"/>
<path fill="#2DACE3" d="M28.123,38.005l-17.634,4.588c-0.375,0.098-0.757-0.127-0.854-0.502l-0.177-0.678
	c-0.098-0.375,0.127-0.758,0.501-0.855l17.634-4.587c0.375-0.097,0.757,0.127,0.854,0.502l0.177,0.678
	C28.722,37.525,28.497,37.908,28.123,38.005L28.123,38.005z"/>
<path fill="#2DACE3" d="M27.731,50.417l-14.243,3.705c-0.375,0.098-0.757-0.126-0.854-0.501l-0.176-0.679
	c-0.098-0.375,0.127-0.757,0.501-0.854l14.243-3.705c0.375-0.098,0.757,0.127,0.854,0.502l0.176,0.678
	C28.33,49.938,28.105,50.319,27.731,50.417L27.731,50.417z"/>
<path fill="#2DACE3" d="M40.551,57.944l-8.116-31.198c-0.487-1.873-2.401-2.996-4.273-2.509l-4.136,1.076
	c0.098,0.203,0.179,0.416,0.237,0.641c0.495,1.899-0.624,3.806-2.483,4.289l-8.728,2.27c-1.782,0.463-3.7-0.454-4.298-2.194
	c-0.112-0.328-0.173-0.658-0.191-0.982l-4.14,1.077c-1.873,0.487-2.996,2.4-2.509,4.273l8.117,31.198
	c0.487,1.873,2.4,2.996,4.273,2.51l23.738-6.176C39.915,61.73,41.038,59.816,40.551,57.944z M13.422,65.002l-7.058-27.13
	l23.738-6.175l7.058,27.129L13.422,65.002z"/>
<path fill="#CCCCCC" d="M68.781,15.466l-7.478-9.381c-0.707-0.886-1.778-1.402-2.912-1.402H19.745c-1.133,0-2.205,0.516-2.911,1.402
	l-7.478,9.381c-0.781,0.979-1.42,2.807-1.42,4.186v6.872c0.594-0.934,1.462-1.636,2.503-1.995c0.058-0.785,0.296-1.547,0.704-2.24
	c0.706-1.202,1.837-2.056,3.186-2.406c0.483-0.127,0.926-0.184,1.369-0.184c1.783,0,3.399,0.907,4.346,2.332
	c0.281-0.049,0.566-0.075,0.851-0.075c0.875,0,1.704,0.241,2.424,0.656l4.142-1.078c0.519-0.135,1.052-0.204,1.586-0.204
	c2.865,0,5.369,1.938,6.09,4.712l8.118,31.197c0.423,1.629,0.188,3.323-0.664,4.774c-0.852,1.45-2.218,2.481-3.845,2.905
	l-3.623,0.942h30.426c2.569,0,4.652-2.084,4.652-4.653V19.526C70.2,18.273,69.562,16.445,68.781,15.466z M11.8,15.386l2.477-3.107
	h16.895l1.667-2.741H16.461l1.828-2.293c0.355-0.446,0.886-0.701,1.456-0.701h38.646c0.57,0,1.101,0.255,1.456,0.701l1.828,2.293
	H45.007l0.931,2.741h17.924l2.476,3.107H11.8z"/>
<path fill="#2DACE3" d="M22.917,26.347l-0.011-0.041c-0.289-1.112-1.425-1.779-2.538-1.49l-1.044,0.271
	c-0.559,0.146-1.128-0.189-1.274-0.748l-0.008-0.034c-0.337-1.296-1.661-2.073-2.957-1.736l-0.054,0.014
	c-1.296,0.337-2.074,1.661-1.736,2.957l0.009,0.034c0.145,0.558-0.19,1.128-0.748,1.273l-1.044,0.272
	c-1.112,0.289-1.78,1.426-1.49,2.538l0.011,0.041c0.289,1.113,1.425,1.78,2.538,1.491l8.858-2.305
	C22.54,28.596,23.207,27.459,22.917,26.347z M15.939,25.968c-0.562,0.146-1.136-0.191-1.282-0.752
	c-0.146-0.563,0.19-1.136,0.752-1.282c0.562-0.146,1.136,0.191,1.282,0.752C16.838,25.248,16.501,25.822,15.939,25.968z"/>
<path d="M13.422,65.002"/>
</svg>
