<?xml version="1.0" encoding="utf-8"?>
<!-- Generator: Adobe Illustrator 19.0.1, SVG Export Plug-In . SVG Version: 6.00 Build 0)  -->
<svg version="1.1"
	 id="svg2" xmlns:rdf="http://www.w3.org/1999/02/22-rdf-syntax-ns#" xmlns:cc="http://creativecommons.org/ns#" xmlns:svg="http://www.w3.org/2000/svg" xmlns:dc="http://purl.org/dc/elements/1.1/"
	 xmlns="http://www.w3.org/2000/svg" xmlns:xlink="http://www.w3.org/1999/xlink" x="0px" y="0px" viewBox="-14 90.8 50.7 68"
	 style="enable-background:new -14 90.8 50.7 68;" xml:space="preserve">
<style type="text/css">
	.st0{fill:#003366;}
</style>
<path id="path3962" class="st0" d="M-14,107.8c0,0-0.5,10.2,14.7,25.2c15.2,14.9,16.9,21,16.1,25.2h11.1c0,0,1-17.3-16.1-29.5
	c0,0-11.8-10.5-13.7-18.8c0,0-5.8,0-9.8-3.3C-11.8,106.6-14,105.3-14,107.8"/>
<path id="path3966" class="st0" d="M9.5,131.5c3.1,2.2,5.5,4.5,7.5,6.9c1.5-1.6,3.1-3.2,4.9-5c15.2-14.9,14.7-25.5,14.7-25.5
	c0-2.5-2.2-1.1-2.2-1.1c-4,3.2-9.8,3.3-9.8,3.3c-1.9,8.3-13.7,19-13.7,19c-0.8,0.6-1.5,1.1-2.3,1.7C9.2,131.2,9.5,131.5,9.5,131.5"
	/>
<path id="path3970" class="st0" d="M9.4,147.7c-2-2.5-4.6-5.5-8-9c-7.1,10.1-6.5,20.2-6.5,20.2H5.9C5.4,156.2,5.8,153,9.4,147.7"/>
<path id="path3974" class="st0" d="M5.8,110.8h10.9c0,0,1.4-0.2,1.1,1.7c-0.5,2.7-6.4,8.2-6.4,8.2s-4.3-4-6.2-7.8
	C5.2,112.9,4.4,110.8,5.8,110.8"/>
<path id="path3978" class="st0" d="M30.6,99.5c0,2.6-2.1,4.8-4.8,4.8c-2.6,0-4.8-2.1-4.8-4.8c0-2.6,2.1-4.8,4.8-4.8
	C28.4,94.7,30.6,96.8,30.6,99.5"/>
<path id="path3982" class="st0" d="M2.4,99.5c0,2.6-2.1,4.8-4.8,4.8s-4.8-2.1-4.8-4.8c0-2.6,2.1-4.8,4.8-4.8S2.4,96.8,2.4,99.5"/>
<path id="path3986" class="st0" d="M16.8,95.6c0,2.6-2.1,4.8-4.8,4.8c-2.6,0-4.8-2.1-4.8-4.8c0-2.6,2.1-4.8,4.8-4.8
	S16.8,93,16.8,95.6"/>
</svg>
