<?xml version="1.0" encoding="utf-8"?>
<!-- Generator: Adobe Illustrator 18.1.1, SVG Export Plug-In . SVG Version: 6.00 Build 0)  -->
<svg version="1.1" id="pantone_-_square" xmlns="http://www.w3.org/2000/svg" xmlns:xlink="http://www.w3.org/1999/xlink" x="0px"
	 y="0px" viewBox="0 0 1224 792" enable-background="new 0 0 1224 792" xml:space="preserve">
<g id="outlines_4_">
	<path fill="#338899" d="M1042.3,318.5c-31.9-146.8-208-233.2-393.3-192.9c-185.3,40.3-309.6,192-277.7,338.8
		c31.9,146.8,208,233.2,393.3,192.9C949.8,617.1,1074.2,465.4,1042.3,318.5z M694.3,574.8c-103.4,0-187.2-83.8-187.2-187.2
		c0-103.4,83.8-187.2,187.2-187.2c103.4,0,187.2,83.8,187.2,187.2C881.5,491,797.7,574.8,694.3,574.8z"/>
	<path fill="#99DDDD" d="M741,155.6c-132.3,0-239.6,107.3-239.6,239.6c0,132.3,107.3,239.6,239.6,239.6
		c132.3,0,239.6-107.3,239.6-239.6C980.6,262.8,873.3,155.6,741,155.6z M694.3,571.8c-101.7,0-184.2-82.5-184.2-184.2
		c0-101.7,82.4-184.2,184.2-184.2c101.7,0,184.2,82.5,184.2,184.2C878.5,489.3,796,571.8,694.3,571.8z"/>
	<g>
		<path fill="#231F20" d="M628.4,369.2l-20.2-42.3c-4.8-10-9.8-21.4-11.5-26.7l-0.4,0.4c0.7,7.6,0.8,17.1,0.9,25l0.5,43.6h-14.7
			v-90.1H600l21.9,44c4.2,8.3,8.1,19,9.2,23.2l0.4-0.4c-0.4-4.6-1.3-17.5-1.3-25.7l-0.3-41.2h14.2v90.1H628.4z"/>
		<path fill="#231F20" d="M671,340.2v1c0,9.1,3.4,18.8,16.3,18.8c6.1,0,11.5-2.2,16.4-6.5l5.6,8.7c-6.9,5.9-14.8,8.7-23.7,8.7
			c-18.6,0-30.3-13.4-30.3-34.5c0-11.6,2.5-19.3,8.2-25.8c5.3-6.1,11.9-8.9,20.2-8.9c6.5,0,12.5,1.7,18.1,6.8
			c5.7,5.2,8.6,13.3,8.6,28.7v3H671z M683.6,312.5c-8.1,0-12.5,6.4-12.5,17.1h24.4C695.4,318.9,690.8,312.5,683.6,312.5z"/>
		<path fill="#231F20" d="M786.5,369.5h-13.4l-8.1-30.3c-2.1-7.8-4.3-18-4.3-18h-0.3c0,0-1,6.5-4.3,18.6l-7.9,29.7h-13.4l-18-65.2
			l14.2-2l7.2,31.9c1.8,8.2,3.4,17.3,3.4,17.3h0.4c0,0,1.3-8.6,3.8-17.7l8.5-30.5h14.1l7.4,29.7c2.7,10.7,4.2,18.8,4.2,18.8h0.4
			c0,0,1.6-10,3.3-17.7l6.8-30.7h14.8L786.5,369.5z"/>
		<path fill="#231F20" d="M617.1,485.2l-7.8-13.9c-6.3-11.1-10.4-17.3-15.4-22.3c-1.7-1.7-3-2.6-5.9-2.7v38.9h-14.7v-90.1h27.5
			c20.2,0,29.3,11.7,29.3,25.8c0,12.9-8.3,24.7-22.4,24.7c3.3,1.7,9.2,10.4,13.9,18l13.3,21.6H617.1z M596.2,407.2H588v28.5h7.7
			c7.8,0,12-1,14.7-3.8c2.5-2.5,4-6.3,4-10.9C614.5,411.9,609.5,407.2,596.2,407.2z"/>
		<path fill="#231F20" d="M654.6,456.2v1c0,9.1,3.4,18.8,16.3,18.8c6.1,0,11.5-2.2,16.4-6.5l5.6,8.7c-6.9,5.9-14.8,8.7-23.7,8.7
			c-18.6,0-30.3-13.4-30.3-34.5c0-11.6,2.5-19.3,8.2-25.8c5.3-6.1,11.9-8.9,20.2-8.9c6.5,0,12.5,1.7,18.1,6.8
			c5.7,5.2,8.6,13.3,8.6,28.7v3H654.6z M667.2,428.5c-8.1,0-12.5,6.4-12.5,17.1h24.4C679.1,434.9,674.4,428.5,667.2,428.5z"/>
		<path fill="#231F20" d="M720.7,486.6c-14.5,0-14.5-13-14.5-18.6v-56.1c0-9-0.4-13.8-1.3-19.3l14.7-3.3c1,4,1.2,9.5,1.2,18.1v55.9
			c0,8.9,0.4,10.3,1.4,11.9c0.8,1.2,3,1.8,4.7,1l2.3,8.9C726.7,486.1,724,486.6,720.7,486.6z"/>
		<path fill="#231F20" d="M745.6,409.5c-5.2,0-9.2-4.3-9.2-9.5c0-5.3,4.2-9.6,9.5-9.6c5.1,0,9.4,4.2,9.4,9.6
			C755.2,405.2,750.9,409.5,745.6,409.5z M738.4,485.2v-64.9l14.5-2.6v67.5H738.4z"/>
		<path fill="#231F20" d="M793.9,486.9c-18,0-28-12.6-28-33.9c0-24,14.3-35.4,29-35.4c7.2,0,12.4,1.7,18.2,7.2l-7.2,9.5
			c-3.9-3.5-7.3-5.1-11.1-5.1c-4.6,0-8.3,2.3-10.4,6.6c-2,4-2.7,10.2-2.7,18.4c0,9,1.4,14.7,4.4,18c2.1,2.3,5.2,3.8,8.7,3.8
			c4.6,0,9-2.2,13.3-6.5l6.8,8.7C809,484.2,802.8,486.9,793.9,486.9z"/>
		<path fill="#231F20" d="M827.2,486.6c-5.3,0-9.6-4.3-9.6-9.7c0-5.4,4.3-9.7,9.6-9.7c5.3,0,9.6,4.3,9.6,9.7
			C836.8,482.4,832.5,486.6,827.2,486.6z M827.2,469.2c-4.1,0-7.4,3.4-7.4,7.7s3.3,7.8,7.4,7.8c4.1,0,7.4-3.5,7.4-7.8
			S831.3,469.2,827.2,469.2z M829.1,482.3c-0.4-0.7-0.6-1-1-1.8c-1.1-2-1.4-2.5-1.8-2.7c-0.1-0.1-0.2-0.1-0.3-0.1v4.5h-2.1v-10.8h4
			c1.9,0,3.2,1.3,3.2,3.2c0,1.6-1.1,3-2.4,3c0.2,0.2,0.3,0.3,0.4,0.5c0.6,0.8,2.6,4.2,2.6,4.2H829.1z M828,473.4
			c-0.2-0.1-0.7-0.2-1.2-0.2H826v2.9h0.7c0.9,0,1.4-0.1,1.6-0.4c0.3-0.3,0.4-0.7,0.4-1.1C828.8,474,828.5,473.6,828,473.4z"/>
	</g>
</g>
</svg>
