<?xml version="1.0" encoding="utf-8"?>
<!-- Generator: Adobe Illustrator 15.1.0, SVG Export Plug-In . SVG Version: 6.00 Build 0)  -->
<!DOCTYPE svg PUBLIC "-//W3C//DTD SVG 1.1//EN" "http://www.w3.org/Graphics/SVG/1.1/DTD/svg11.dtd">
<svg version="1.1" id="Layer_1" xmlns="http://www.w3.org/2000/svg" xmlns:xlink="http://www.w3.org/1999/xlink" x="0px" y="0px"
	 width="108px" height="146px" viewBox="0 0 108 146" enable-background="new 0 0 108 146" xml:space="preserve">
<g>
	<path fill="#FFFFFF" d="M77.545,85.172H51.889c-0.944,0-1.713,0.769-1.713,1.712c0,0.944,0.769,1.712,1.713,1.712h25.656
		c0.944,0,1.713-0.769,1.713-1.712C79.258,85.941,78.49,85.172,77.545,85.172z"/>
	<path fill="#FFFFFF" d="M84.887,85.666c-0.31,0.326-0.501,0.751-0.501,1.219c0,0.443,0.191,0.886,0.501,1.211
		c0.326,0.311,0.769,0.501,1.211,0.501s0.894-0.19,1.22-0.501c0.3-0.326,0.492-0.769,0.492-1.211c0-0.468-0.192-0.893-0.492-1.219
		C86.666,85.039,85.54,85.039,84.887,85.666z"/>
	<path fill="#FFFFFF" d="M86.098,61.228H60.441c-0.943,0-1.713,0.76-1.713,1.71c0,0.946,0.77,1.705,1.713,1.705h25.657
		c0.943,0,1.712-0.759,1.712-1.705C87.81,61.987,87.042,61.228,86.098,61.228z"/>
	<path fill="#FFFFFF" d="M86.098,73.195H68.993c-0.944,0-1.712,0.769-1.712,1.712c0,0.943,0.768,1.712,1.712,1.712h17.105
		c0.943,0,1.712-0.769,1.712-1.712C87.81,73.964,87.042,73.195,86.098,73.195z"/>
	<path fill="#FFFFFF" d="M51.889,76.62h3.422c0.944,0,1.713-0.769,1.713-1.712c0-0.944-0.769-1.712-1.713-1.712h-3.422
		c-0.944,0-1.713,0.769-1.713,1.712C50.176,75.851,50.945,76.62,51.889,76.62z"/>
	<path fill="#FFFFFF" d="M52.39,61.719c-0.311,0.325-0.501,0.753-0.501,1.219c0,0.461,0.19,0.885,0.501,1.212
		c0.325,0.31,0.767,0.493,1.21,0.493s0.884-0.183,1.21-0.493c0.311-0.327,0.501-0.751,0.501-1.212c0-0.466-0.19-0.894-0.501-1.219
		C54.185,61.084,53.032,61.084,52.39,61.719z"/>
	<path fill="#FFFFFF" d="M63.363,76.127c0.31-0.326,0.503-0.76,0.503-1.219c0-0.46-0.193-0.902-0.503-1.211
		c-0.626-0.635-1.778-0.635-2.422,0c-0.309,0.318-0.5,0.769-0.5,1.211c0,0.442,0.191,0.894,0.5,1.219
		c0.326,0.3,0.769,0.493,1.211,0.493C62.595,76.62,63.039,76.427,63.363,76.127z"/>
	<path fill="#FFFFFF" d="M27.942,80.245v1.503c0,0.943,0.769,1.711,1.713,1.711c0.943,0,1.712-0.768,1.712-1.711v-1.503
		c1.861-0.384,3.566-1.37,4.82-2.856c1.044-1.236,1.527-2.823,1.352-4.46c-0.175-1.67-1.035-3.224-2.362-4.251l-3.81-2.965v-9.303
		c1.979,0.71,3.417,2.589,3.417,4.819c0,0.943,0.768,1.71,1.712,1.71c0.942,0,1.712-0.767,1.712-1.71
		c0-4.136-2.948-7.584-6.841-8.385v-1.88c0-0.945-0.769-1.713-1.712-1.713c-0.944,0-1.713,0.768-1.713,1.713v1.888
		c-1.862,0.383-3.566,1.369-4.818,2.856c-1.045,1.236-1.528,2.813-1.362,4.452c0.177,1.669,1.035,3.222,2.372,4.259l3.809,2.963
		v9.305c-1.987-0.709-3.424-2.589-3.424-4.819c0-0.943-0.761-1.711-1.705-1.711c-0.942,0-1.711,0.768-1.711,1.711
		C21.102,75.993,24.042,79.451,27.942,80.245z M31.367,70.047l1.712,1.328c0.593,0.468,0.985,1.169,1.061,1.913
		c0.076,0.702-0.125,1.378-0.568,1.896c-0.593,0.701-1.36,1.196-2.204,1.494V70.047z M26.23,61.719
		c-0.602-0.468-0.985-1.169-1.062-1.919c-0.075-0.696,0.126-1.371,0.56-1.889c0.603-0.701,1.371-1.194,2.214-1.494v6.631
		L26.23,61.719z"/>
	<path fill="#FFFFFF" d="M36.496,27.28c0.942,0,1.712-0.767,1.712-1.71c0-0.945-0.77-1.713-1.712-1.713
		c-0.944,0-1.712,0.769-1.712,1.713C34.784,26.513,35.551,27.28,36.496,27.28z"/>
	<circle fill="#FFFFFF" cx="43.334" cy="25.569" r="1.712"/>
	<path fill="#FFFFFF" d="M50.176,27.28c0.952,0,1.713-0.767,1.713-1.71c0-0.945-0.761-1.713-1.713-1.713
		c-0.945,0-1.705,0.769-1.705,1.713C48.471,26.513,49.231,27.28,50.176,27.28z"/>
	<circle fill="#FFFFFF" cx="29.655" cy="25.569" r="1.712"/>
	<path fill="#FFFFFF" d="M22.813,27.28c0.944,0,1.705-0.767,1.705-1.71c0-0.945-0.761-1.713-1.705-1.713
		c-0.951,0-1.711,0.769-1.711,1.713C21.102,26.513,21.862,27.28,22.813,27.28z"/>
	<path fill="#FFFFFF" d="M15.965,27.28c0.953,0,1.712-0.767,1.712-1.71c0-0.945-0.76-1.713-1.712-1.713
		c-0.944,0-1.704,0.769-1.704,1.713C14.262,26.513,15.021,27.28,15.965,27.28z"/>
	<path fill="#FFFFFF" d="M77.545,106.172H51.889c-0.944,0-1.713,0.769-1.713,1.712c0,0.944,0.769,1.712,1.713,1.712h25.656
		c0.944,0,1.713-0.769,1.713-1.712C79.258,106.941,78.49,106.172,77.545,106.172L77.545,106.172z M77.545,106.172"/>
	<path fill="#FFFFFF" d="M84.887,106.666c-0.31,0.326-0.501,0.751-0.501,1.219c0,0.443,0.191,0.886,0.501,1.211
		c0.326,0.311,0.769,0.501,1.211,0.501s0.894-0.19,1.22-0.501c0.3-0.326,0.492-0.769,0.492-1.211c0-0.468-0.192-0.893-0.492-1.219
		C86.666,106.039,85.54,106.039,84.887,106.666L84.887,106.666z M84.887,106.666"/>
	<path fill="#FFFFFF" d="M86.098,94.195H68.993c-0.944,0-1.712,0.769-1.712,1.712c0,0.943,0.768,1.712,1.712,1.712h17.105
		c0.943,0,1.712-0.769,1.712-1.712C87.81,94.964,87.042,94.195,86.098,94.195L86.098,94.195z M86.098,94.195"/>
	<path fill="#FFFFFF" d="M50.176,95.908c0,0.943,0.769,1.712,1.713,1.712h3.422c0.944,0,1.713-0.769,1.713-1.712
		c0-0.944-0.769-1.712-1.713-1.712h-3.422C50.945,94.195,50.176,94.964,50.176,95.908L50.176,95.908z M50.176,95.908"/>
	<path fill="#FFFFFF" d="M63.363,97.127c0.31-0.326,0.503-0.76,0.503-1.219c0-0.46-0.193-0.902-0.503-1.211
		c-0.626-0.635-1.778-0.635-2.422,0c-0.309,0.318-0.5,0.769-0.5,1.211c0,0.442,0.191,0.894,0.5,1.219
		c0.326,0.3,0.769,0.493,1.211,0.493C62.595,97.62,63.039,97.427,63.363,97.127L63.363,97.127z M63.363,97.127"/>
	<path fill="#FFFFFF" d="M96.364,56.222v74.389l-1.713-1.713l-10.265,10.266l-10.257-10.266l-10.264,10.266L53.6,128.898
		l-10.266,10.266l-10.264-10.266l-10.258,10.266l-10.264-10.266l-1.711,1.713V15.304h41.052V11.88H7.413v4.678
		c-1.019-0.595-1.703-1.697-1.703-2.966c0-1.888,1.528-3.417,3.416-3.417h42.764V6.752H9.125c-3.775,0-6.84,3.064-6.84,6.84
		c0,3.182,2.188,5.837,5.128,6.598v118.681l5.136-5.136L22.813,144l10.258-10.266L43.334,144L53.6,133.735L63.866,144l10.264-10.266
		L84.386,144l10.265-10.266l5.137,5.136V56.222H96.364z"/>
</g>
<g>
	<g>
		<path fill="#FFFFFF" d="M103.95,8.849L68.575,1.363c-1.496-0.317-2.98,0.649-3.297,2.146l-0.672,4.319l40.817,8.637l0.671-4.319
			C106.412,10.649,105.447,9.166,103.95,8.849z"/>
		<path fill="#FFFFFF" d="M89.074,17.38c-0.413-1.488-1.969-2.367-3.456-1.955l-6.715,1.864l-15.832-3.35l-1.741,8.227l-10.878,3.02
			c-1.487,0.412-2.367,1.967-1.954,3.455l6.131,22.092c0.413,1.487,1.968,2.367,3.455,1.954l35.166-9.759
			c1.488-0.413,2.367-1.967,1.955-3.456l-1.053-3.792l3.944,0.834c1.497,0.316,2.979-0.648,3.296-2.146l2.495-11.791l-14.206-3.006
			L89.074,17.38z M93.134,28.608l0.87-4.11c0.131-0.615,0.741-1.012,1.356-0.882l4.11,0.871c0.615,0.13,1.014,0.74,0.883,1.356
			l-0.869,4.11c-0.132,0.615-0.741,1.013-1.356,0.882l-4.11-0.87C93.401,29.834,93.004,29.224,93.134,28.608z M51.063,27.39
			l9.732-2.699l22.962-6.373l2.472-0.687c0.045-0.012,0.09-0.018,0.134-0.018c0.198,0,0.436,0.13,0.505,0.379l0.289,1.045
			l0.909,3.275L51.902,32.349l-1.2-4.319C50.627,27.758,50.792,27.465,51.063,27.39z M92.999,40.083
			c0.047,0.167-0.002,0.306-0.051,0.393c-0.048,0.086-0.143,0.2-0.31,0.246l-35.166,9.759c-0.044,0.012-0.09,0.019-0.134,0.019
			c-0.198,0-0.435-0.131-0.505-0.38l-3.576-12.886l36.165-10.037l2.206,7.947L92.999,40.083z"/>
		<path fill="#FFFFFF" d="M63.154,40.965c-0.168-0.606-0.801-0.965-1.408-0.798l-4.107,1.141c-0.606,0.168-0.965,0.802-0.796,1.409
			l1.139,4.106c0.17,0.606,0.803,0.965,1.41,0.796l4.107-1.139c0.606-0.168,0.964-0.802,0.796-1.409L63.154,40.965z"/>
	</g>
</g>
</svg>
