<?xml version="1.0" encoding="utf-8"?>
<!-- Generator: Adobe Illustrator 15.1.0, SVG Export Plug-In . SVG Version: 6.00 Build 0)  -->
<!DOCTYPE svg PUBLIC "-//W3C//DTD SVG 1.1//EN" "http://www.w3.org/Graphics/SVG/1.1/DTD/svg11.dtd">
<svg version="1.1" id="Layer_1" xmlns="http://www.w3.org/2000/svg" xmlns:xlink="http://www.w3.org/1999/xlink" x="0px" y="0px"
	 width="108px" height="146px" viewBox="0 0 108 146" enable-background="new 0 0 108 146" xml:space="preserve">
<g>
	<path fill="#FFFFFF" d="M77.545,85.172H51.889c-0.944,0-1.713,0.769-1.713,1.712c0,0.944,0.769,1.712,1.713,1.712h25.656
		c0.944,0,1.713-0.769,1.713-1.712C79.258,85.941,78.49,85.172,77.545,85.172z"/>
	<path fill="#FFFFFF" d="M84.887,85.666c-0.31,0.326-0.501,0.751-0.501,1.219c0,0.443,0.191,0.886,0.501,1.211
		c0.326,0.311,0.769,0.501,1.211,0.501s0.894-0.19,1.22-0.501c0.3-0.326,0.492-0.769,0.492-1.211c0-0.468-0.192-0.893-0.492-1.219
		C86.666,85.039,85.54,85.039,84.887,85.666z"/>
	<path fill="#FFFFFF" d="M86.098,61.228H60.441c-0.943,0-1.713,0.76-1.713,1.71c0,0.946,0.77,1.705,1.713,1.705h25.657
		c0.943,0,1.712-0.759,1.712-1.705C87.81,61.987,87.042,61.228,86.098,61.228z"/>
	<path fill="#FFFFFF" d="M86.098,73.195H68.993c-0.944,0-1.712,0.769-1.712,1.712c0,0.943,0.768,1.712,1.712,1.712h17.105
		c0.943,0,1.712-0.769,1.712-1.712C87.81,73.964,87.042,73.195,86.098,73.195z"/>
	<path fill="#FFFFFF" d="M51.889,76.62h3.422c0.944,0,1.713-0.769,1.713-1.712c0-0.944-0.769-1.712-1.713-1.712h-3.422
		c-0.944,0-1.713,0.769-1.713,1.712C50.176,75.851,50.945,76.62,51.889,76.62z"/>
	<path fill="#FFFFFF" d="M52.39,61.719c-0.311,0.325-0.501,0.753-0.501,1.219c0,0.461,0.19,0.885,0.501,1.212
		c0.325,0.31,0.767,0.493,1.21,0.493s0.884-0.183,1.21-0.493c0.311-0.327,0.501-0.751,0.501-1.212c0-0.466-0.19-0.894-0.501-1.219
		C54.185,61.084,53.032,61.084,52.39,61.719z"/>
	<path fill="#FFFFFF" d="M63.363,76.127c0.31-0.326,0.503-0.76,0.503-1.219c0-0.46-0.193-0.902-0.503-1.211
		c-0.626-0.635-1.778-0.635-2.422,0c-0.309,0.318-0.5,0.769-0.5,1.211c0,0.442,0.191,0.894,0.5,1.219
		c0.326,0.3,0.769,0.493,1.211,0.493C62.595,76.62,63.039,76.427,63.363,76.127z"/>
	<path fill="#FFFFFF" d="M27.942,80.245v1.503c0,0.943,0.769,1.711,1.713,1.711c0.943,0,1.712-0.768,1.712-1.711v-1.503
		c1.861-0.384,3.566-1.37,4.82-2.856c1.044-1.236,1.527-2.823,1.352-4.46c-0.175-1.67-1.035-3.224-2.362-4.251l-3.81-2.965v-9.303
		c1.979,0.71,3.417,2.589,3.417,4.819c0,0.943,0.768,1.71,1.712,1.71c0.942,0,1.712-0.767,1.712-1.71
		c0-4.136-2.948-7.584-6.841-8.385v-1.88c0-0.945-0.769-1.713-1.712-1.713c-0.944,0-1.713,0.768-1.713,1.713v1.888
		c-1.862,0.383-3.566,1.369-4.818,2.856c-1.045,1.236-1.528,2.813-1.362,4.452c0.177,1.669,1.035,3.222,2.372,4.259l3.809,2.963
		v9.305c-1.987-0.709-3.424-2.589-3.424-4.819c0-0.943-0.761-1.711-1.705-1.711c-0.942,0-1.711,0.768-1.711,1.711
		C21.102,75.993,24.042,79.451,27.942,80.245z M31.367,70.047l1.712,1.328c0.593,0.468,0.985,1.169,1.061,1.913
		c0.076,0.702-0.125,1.378-0.568,1.896c-0.593,0.701-1.36,1.196-2.204,1.494V70.047z M26.23,61.719
		c-0.602-0.468-0.985-1.169-1.062-1.919c-0.075-0.696,0.126-1.371,0.56-1.889c0.603-0.701,1.371-1.194,2.214-1.494v6.631
		L26.23,61.719z"/>
	<path fill="#FFFFFF" d="M36.496,27.28c0.942,0,1.712-0.767,1.712-1.71c0-0.945-0.77-1.713-1.712-1.713
		c-0.944,0-1.712,0.769-1.712,1.713C34.784,26.513,35.551,27.28,36.496,27.28z"/>
	<circle fill="#FFFFFF" cx="43.334" cy="25.569" r="1.712"/>
	<path fill="#FFFFFF" d="M50.176,27.28c0.952,0,1.713-0.767,1.713-1.71c0-0.945-0.761-1.713-1.713-1.713
		c-0.945,0-1.705,0.769-1.705,1.713C48.471,26.513,49.231,27.28,50.176,27.28z"/>
	<circle fill="#FFFFFF" cx="29.655" cy="25.569" r="1.712"/>
	<path fill="#FFFFFF" d="M22.813,27.28c0.944,0,1.705-0.767,1.705-1.71c0-0.945-0.761-1.713-1.705-1.713
		c-0.951,0-1.711,0.769-1.711,1.713C21.102,26.513,21.862,27.28,22.813,27.28z"/>
	<path fill="#FFFFFF" d="M15.965,27.28c0.953,0,1.712-0.767,1.712-1.71c0-0.945-0.76-1.713-1.712-1.713
		c-0.944,0-1.704,0.769-1.704,1.713C14.262,26.513,15.021,27.28,15.965,27.28z"/>
	<path fill="#FFFFFF" d="M77.545,106.172H51.889c-0.944,0-1.713,0.769-1.713,1.712c0,0.944,0.769,1.712,1.713,1.712h25.656
		c0.944,0,1.713-0.769,1.713-1.712C79.258,106.941,78.49,106.172,77.545,106.172L77.545,106.172z M77.545,106.172"/>
	<path fill="#FFFFFF" d="M84.887,106.666c-0.31,0.326-0.501,0.751-0.501,1.219c0,0.443,0.191,0.886,0.501,1.211
		c0.326,0.311,0.769,0.501,1.211,0.501s0.894-0.19,1.22-0.501c0.3-0.326,0.492-0.769,0.492-1.211c0-0.468-0.192-0.893-0.492-1.219
		C86.666,106.039,85.54,106.039,84.887,106.666L84.887,106.666z M84.887,106.666"/>
	<path fill="#FFFFFF" d="M86.098,94.195H68.993c-0.944,0-1.712,0.769-1.712,1.712c0,0.943,0.768,1.712,1.712,1.712h17.105
		c0.943,0,1.712-0.769,1.712-1.712C87.81,94.964,87.042,94.195,86.098,94.195L86.098,94.195z M86.098,94.195"/>
	<path fill="#FFFFFF" d="M50.176,95.908c0,0.943,0.769,1.712,1.713,1.712h3.422c0.944,0,1.713-0.769,1.713-1.712
		c0-0.944-0.769-1.712-1.713-1.712h-3.422C50.945,94.195,50.176,94.964,50.176,95.908L50.176,95.908z M50.176,95.908"/>
	<path fill="#FFFFFF" d="M63.363,97.127c0.31-0.326,0.503-0.76,0.503-1.219c0-0.46-0.193-0.902-0.503-1.211
		c-0.626-0.635-1.778-0.635-2.422,0c-0.309,0.318-0.5,0.769-0.5,1.211c0,0.442,0.191,0.894,0.5,1.219
		c0.326,0.3,0.769,0.493,1.211,0.493C62.595,97.62,63.039,97.427,63.363,97.127L63.363,97.127z M63.363,97.127"/>
	<path fill="#FFFFFF" d="M96.364,59.222v71.389l-1.713-1.713l-10.265,10.266l-10.257-10.266l-10.264,10.266L53.6,128.898
		l-10.266,10.266l-10.264-10.266l-10.258,10.266l-10.264-10.266l-1.711,1.713V15.304h36.052V11.88H7.413v4.678
		c-1.019-0.595-1.703-1.697-1.703-2.966c0-1.888,1.528-3.417,3.416-3.417h37.764V6.752H9.125c-3.775,0-6.84,3.064-6.84,6.84
		c0,3.182,2.188,5.837,5.128,6.598v118.681l5.136-5.136L22.813,144l10.258-10.266L43.334,144L53.6,133.735L63.866,144l10.264-10.266
		L84.386,144l10.265-10.266l5.137,5.136V59.222H96.364z"/>
</g>
<g>
	<path fill="#FFFFFF" d="M63.114,47.975"/>
	<path fill="#FFFFFF" d="M56.312,50.922c-1.253,0-2.155-1.02-2.155-2.156V3.458c0-1.252,1.02-2.156,2.155-2.156
		c1.137,0,2.157,0.914,2.157,2.156v45.308C58.469,50.008,57.555,50.922,56.312,50.922L56.312,50.922z M56.312,50.922"/>
	<path fill="#FFFFFF" d="M65.85,40.248c-1.254,0-2.155-1.019-2.155-2.156V3.458c0-1.252,1.019-2.156,2.155-2.156
		c1.253,0,2.156,1.02,2.156,2.156v34.634C68.006,39.334,67.092,40.248,65.85,40.248L65.85,40.248z M65.85,40.248"/>
	<path fill="#FFFFFF" d="M75.388,40.248c-1.255,0-2.156-1.019-2.156-2.156V3.458c0-1.252,1.019-2.156,2.156-2.156
		c1.136,0,2.155,1.02,2.155,2.156v34.634C77.543,39.334,76.64,40.248,75.388,40.248L75.388,40.248z M75.388,40.248"/>
	<path fill="#FFFFFF" d="M84.924,40.248c-1.253,0-2.156-1.019-2.156-2.156V3.458c0-1.252,1.02-2.156,2.156-2.156
		c1.136,0,2.156,1.02,2.156,2.156v34.634C87.081,39.334,86.06,40.248,84.924,40.248L84.924,40.248z M84.924,40.248"/>
	<path fill="#FFFFFF" d="M94.462,40.248c-1.254,0-2.156-1.019-2.156-2.156V3.458c0-1.252,1.02-2.156,2.156-2.156
		c1.136,0,2.155,1.02,2.155,2.156v34.634C96.618,39.334,95.598,40.248,94.462,40.248L94.462,40.248z M94.462,40.248"/>
	<path fill="#FFFFFF" d="M103.999,50.922c-1.252,0-2.155-1.02-2.155-2.156V3.458c0-1.252,1.02-2.156,2.155-2.156
		c1.137,0,2.156,1.02,2.156,2.156v45.308C106.167,50.008,105.135,50.922,103.999,50.922L103.999,50.922z M103.999,50.922"/>
	<path fill="#FFFFFF" d="M66.551,41.947c-2.071,0-3.75,2.029-3.75,4.546c0,2.507,1.679,4.545,3.75,4.545
		c2.07,0,3.749-2.028,3.749-4.545C70.29,43.987,68.612,41.947,66.551,41.947L66.551,41.947z M66.551,49.308
		c-1.095,0-1.986-1.265-1.986-2.815c0-1.551,0.892-2.815,1.986-2.815c1.093,0,1.986,1.264,1.986,2.815
		C68.538,48.043,67.644,49.308,66.551,49.308L66.551,49.308z M66.551,49.308"/>
	<path fill="#FFFFFF" d="M75.621,41.947c-2.07,0-3.749,2.029-3.749,4.546c0,2.507,1.679,4.545,3.749,4.545
		c2.071,0,3.75-2.028,3.75-4.545C79.371,43.987,77.692,41.947,75.621,41.947L75.621,41.947z M75.621,49.308
		c-1.094,0-1.986-1.265-1.986-2.815c0-1.551,0.893-2.815,1.986-2.815c1.095,0,1.986,1.264,1.986,2.815
		C77.607,48.043,76.715,49.308,75.621,49.308L75.621,49.308z M75.621,49.308"/>
	<path fill="#FFFFFF" d="M84.691,41.947c-2.071,0-3.749,2.029-3.749,4.546c0,2.507,1.678,4.545,3.749,4.545s3.749-2.028,3.749-4.545
		C88.44,43.987,86.762,41.947,84.691,41.947L84.691,41.947z M84.691,49.308c-1.094,0-1.986-1.265-1.986-2.815
		c0-1.551,0.893-2.815,1.986-2.815s1.985,1.264,1.985,2.815C86.676,48.043,85.796,49.308,84.691,49.308L84.691,49.308z
		 M84.691,49.308"/>
	<path fill="#FFFFFF" d="M93.761,41.947c-2.072,0-3.75,2.029-3.75,4.546c0,2.507,1.678,4.545,3.75,4.545
		c2.07,0,3.748-2.028,3.748-4.545C97.509,43.987,95.832,41.947,93.761,41.947L93.761,41.947z M93.761,49.308
		c-1.095,0-1.986-1.265-1.986-2.815c0-1.551,0.892-2.815,1.986-2.815c1.093,0,1.986,1.264,1.986,2.815
		C95.748,48.043,94.866,49.308,93.761,49.308L93.761,49.308z M93.761,49.308"/>
</g>
</svg>
