<?xml version="1.0" encoding="utf-8"?>
<!-- Generator: Adobe Illustrator 18.1.1, SVG Export Plug-In . SVG Version: 6.00 Build 0)  -->
<!DOCTYPE svg PUBLIC "-//W3C//DTD SVG 1.1//EN" "http://www.w3.org/Graphics/SVG/1.1/DTD/svg11.dtd">
<svg version="1.1" id="Layer_1" xmlns="http://www.w3.org/2000/svg" xmlns:xlink="http://www.w3.org/1999/xlink" x="0px" y="0px"
	 viewBox="0 0 221.6 108.1" enable-background="new 0 0 221.6 108.1" xml:space="preserve">
<g>
	<path d="M98.1,40.7c-5.7,0-10.3,4.6-10.3,10.3c0,5.7,4.6,10.3,10.3,10.3c1.8,0,3.5-0.5,4.9-1.3v1.2c0,2.7-2.2,4.9-4.9,4.9
		c-1.5,0-2.7,1.2-2.7,2.7c0,1.5,1.2,2.7,2.7,2.7c5.7,0,10.3-4.6,10.3-10.3V51C108.4,45.3,103.8,40.7,98.1,40.7z M98.1,55.9
		c-2.7,0-4.9-2.2-4.9-4.9c0-2.7,2.2-4.9,4.9-4.9c2.7,0,4.9,2.2,4.9,4.9C103,53.7,100.8,55.9,98.1,55.9z"/>
	<path d="M47.5,40.7c-5.7,0-10.3,4.6-10.3,10.3v14.6c0,1.5,1.2,2.7,2.7,2.7c1.5,0,2.7-1.2,2.7-2.7V60c1.5,0.8,3.1,1.3,4.9,1.3
		c5.7,0,10.3-4.6,10.3-10.3C57.8,45.3,53.2,40.7,47.5,40.7z M47.5,55.9c-2.7,0-4.9-2.2-4.9-4.9c0-2.7,2.2-4.9,4.9-4.9
		c2.7,0,4.9,2.2,4.9,4.9C52.4,53.7,50.2,55.9,47.5,55.9z"/>
	<path d="M76.3,40.7c-5.7,0-10.3,4.6-10.3,10.3v7.6c0,1.5,1.2,2.7,2.7,2.7c1.5,0,2.7-1.2,2.7-2.7V51c0-2.7,2.2-4.9,4.9-4.9
		c2.7,0,4.9,2.2,4.9,4.9v7.6c0,1.5,1.2,2.7,2.7,2.7c1.5,0,2.7-1.2,2.7-2.7V51C86.6,45.3,82,40.7,76.3,40.7z"/>
	<path d="M141.7,40.7c-5.7,0-10.3,4.6-10.3,10.3c0,5.7,4.6,10.3,10.3,10.3c5.7,0,10.3-4.6,10.3-10.3
		C151.9,45.3,147.3,40.7,141.7,40.7z M141.7,55.8c-2.7,0-4.9-2.2-4.9-4.9c0-2.7,2.2-4.9,4.9-4.9c2.7,0,4.9,2.2,4.9,4.9
		C146.6,53.6,144.4,55.8,141.7,55.8z"/>
	<path d="M127.5,33.7c-1.5,0-2.7,1.2-2.7,2.7V42c-1.5-0.8-3.1-1.3-4.9-1.3c-5.7,0-10.3,4.6-10.3,10.3c0,5.7,4.6,10.3,10.3,10.3
		c5.7,0,10.3-4.6,10.3-10.3V36.4C130.2,34.9,129,33.7,127.5,33.7z M119.9,55.9c-2.7,0-4.9-2.2-4.9-4.9c0-2.7,2.2-4.9,4.9-4.9
		c2.7,0,4.9,2.2,4.9,4.9C124.8,53.7,122.6,55.9,119.9,55.9z"/>
	<g>
		<path d="M61.7,40.7c-1.5,0-2.7,1.2-2.7,2.7v15.2c0,1.5,1.2,2.7,2.7,2.7c1.5,0,2.7-1.2,2.7-2.7V43.4C64.4,41.9,63.2,40.7,61.7,40.7
			z"/>
		<circle cx="61.7" cy="36.4" r="2.7"/>
	</g>
	<path d="M167.3,61.2c1.5,0,2.7-1.2,2.7-2.7V47.1c0-0.6,0.5-1.1,1.1-1.1c2.7,0,4.9,2.2,4.9,4.9v7.6c0,1.5,1.2,2.7,2.7,2.7
		c1.5,0,2.7-1.2,2.7-2.7v-7.6c0-5.7-4.6-10.3-10.3-10.3c-1.3,0-2.6,0.3-3.8,0.7c-1.2-0.5-2.4-0.7-3.8-0.7c-5.7,0-10.3,4.6-10.3,10.3
		v7.6c0,1.5,1.2,2.7,2.7,2.7c1.5,0,2.7-1.2,2.7-2.7v-7.6c0-2.7,2.2-4.9,4.9-4.9c0.6,0,1.1,0.5,1.1,1.1v11.4
		C164.6,60,165.8,61.2,167.3,61.2z"/>
</g>
<g>
	<g>
		<path fill="#F99D1C" d="M154.6,79.4c1.2,0,1.8,0.7,1.8,0.7l-0.4,0.7c0,0-0.6-0.5-1.3-0.5c-1,0-1.7,0.8-1.7,1.7
			c0,0.9,0.6,1.8,1.7,1.8c0.9,0,1.4-0.6,1.4-0.6l0.5,0.6c0,0-0.7,0.8-1.9,0.8c-1.5,0-2.6-1.1-2.6-2.6
			C152,80.5,153.1,79.4,154.6,79.4z"/>
		<path fill="#F99D1C" d="M158.7,79.5h0.9v4.2h2.1v0.8h-3V79.5z"/>
		<path fill="#F99D1C" d="M166,79.4c1.5,0,2.6,1.1,2.6,2.5c0,1.5-1.1,2.6-2.6,2.6c-1.5,0-2.6-1.1-2.6-2.6
			C163.5,80.5,164.6,79.4,166,79.4z M166,83.7c0.9,0,1.6-0.8,1.6-1.8c0-1-0.7-1.7-1.6-1.7c-0.9,0-1.6,0.7-1.6,1.7
			C164.4,82.9,165.1,83.7,166,83.7z"/>
		<path fill="#F99D1C" d="M170.8,79.5h0.9v3.2c0,0.7,0.4,1,1.1,1s1.1-0.4,1.1-1v-3.2h0.9v3.2c0,1.1-0.8,1.9-2,1.9
			c-1.2,0-2-0.8-2-1.9V79.5z"/>
		<path fill="#F99D1C" d="M177.4,79.5h1.7c1.5,0,2.5,0.9,2.5,2.5c0,1.6-1,2.5-2.5,2.5h-1.7V79.5z M179,83.7c1,0,1.6-0.6,1.6-1.7
			c0-1.1-0.7-1.7-1.6-1.7h-0.7v3.4H179z"/>
	</g>
	<g>
		<path fill="#8C8C8C" d="M114.7,75.7c-1.3,0-2.2-0.4-2.2-0.4v-1.1c0,0,1.4,0.4,2.2,0.4c0.7,0,1.4-0.1,1.4-1c0-0.7-0.5-0.8-1.1-1
			l-0.6-0.2c-0.8-0.2-2-0.5-2-2c0-1.7,1.4-2.1,2.8-2.1c1.3,0,2,0.4,2,0.4v1.1c0,0-0.9-0.4-2.1-0.4c-0.9,0-1.5,0.2-1.5,0.9
			c0,0.7,0.5,0.8,1.1,1l0.7,0.2c0.8,0.2,1.9,0.7,1.9,2.1C117.4,75.2,116.2,75.7,114.7,75.7z"/>
		<path fill="#8C8C8C" d="M122.2,75.7c-1.4,0-3.3-0.4-3.3-3.7c0-3.2,2-3.7,3.3-3.7c1.3,0,3.3,0.4,3.3,3.7
			C125.6,75.3,123.6,75.7,122.2,75.7z M122.2,69.3c-0.7,0-2,0.2-2,2.7c0,2.5,1.4,2.7,2,2.7c0.7,0,2-0.3,2-2.7
			C124.2,69.5,123,69.3,122.2,69.3z"/>
		<path fill="#8C8C8C" d="M127.3,75.6V66h1.4v9.5H127.3z"/>
		<path fill="#8C8C8C" d="M135.3,75.6l-0.1-0.9c0,0-0.8,1.1-2.3,1.1c-1.1,0-2.3-0.4-2.3-2.2c0-2,1.9-2.4,3-2.4h1.6v-0.6
			c0-0.9-0.6-1.1-1.5-1.1c-1.1,0-2.5,0.5-2.5,0.5v-1.1c0,0,1.2-0.5,2.7-0.5c1.6,0,2.6,0.6,2.6,2.5v4.8H135.3z M135.2,71.9l-1.3,0
			c-1.2,0-2,0.3-2,1.5c0,0.9,0.6,1.2,1.3,1.2c1,0,2-0.9,2-0.9V71.9z"/>
		<path fill="#8C8C8C" d="M141.4,69.5c-0.8,0-1.4,0.9-1.4,0.9v5.2h-1.4v-7.2h1.1l0.2,1c0,0,0.4-1.1,1.7-1.1c0.7,0,1,0.2,1,0.2v1.2
			C142.5,69.7,142.1,69.5,141.4,69.5z"/>
		<path fill="#8C8C8C" d="M153.2,75.6h-1.9l-1.1-3.8c-0.3-1-0.7-2.7-0.7-2.7s-0.5,1.7-0.7,2.7l-1.1,3.8h-1.9l-1.9-7.2h1.5l0.9,4.1
			c0.2,0.9,0.4,2.4,0.4,2.4s0.3-1.5,0.6-2.4l1.2-4.1h1.9l1.2,4.1c0.3,0.9,0.6,2.4,0.6,2.4s0.2-1.4,0.4-2.4l0.9-4.1h1.5L153.2,75.6z"
			/>
		<path fill="#8C8C8C" d="M156.8,75.6v-7.2h1.4v7.2H156.8z"/>
		<path fill="#8C8C8C" d="M165.3,75.6v-4.9c0-0.9-0.4-1.2-1.3-1.2c-1.2,0-2.4,0.9-2.4,0.9v5.2h-1.4v-7.2h1l0.3,1
			c0,0,1.2-1.1,2.7-1.1c1.3,0,2.3,0.6,2.3,2.4v4.9H165.3z"/>
		<path fill="#8C8C8C" d="M173.6,75.6l-0.1-0.9c0,0-0.8,1-2.3,1c-1.1,0-3-0.5-3-3.7c0-3.3,2.3-3.7,3.2-3.7c1.3,0,1.9,0.7,1.9,0.7V66
			h1.4v9.5H173.6z M173.3,70.1c0,0-0.8-0.7-1.8-0.7c-1,0-2,0.4-2,2.6c0,2.4,1.1,2.6,1.9,2.6c1,0,1.9-0.8,1.9-0.8V70.1z"/>
		<path fill="#8C8C8C" d="M178.8,75.7c-1.3,0-2.2-0.4-2.2-0.4v-1.1c0,0,1.4,0.4,2.2,0.4c0.7,0,1.4-0.1,1.4-1c0-0.7-0.5-0.8-1.1-1
			l-0.6-0.2c-0.8-0.2-2-0.5-2-2c0-1.7,1.4-2.1,2.8-2.1c1.3,0,2,0.4,2,0.4v1.1c0,0-0.9-0.4-2.1-0.4c-0.9,0-1.5,0.2-1.5,0.9
			c0,0.7,0.5,0.8,1.1,1l0.7,0.2c0.8,0.2,1.9,0.7,1.9,2.1C181.6,75.2,180.3,75.7,178.8,75.7z"/>
	</g>
</g>
<g>
	<g>
		<path fill="#F99D1C" d="M185.6,66.2c0,0,0.1,0,0.1,0c0.8-0.2,1.7-0.6,2.5-0.9c0.8-0.3,1.6-0.7,2.3-1.3c0.7-0.6,1.3-1.3,1.6-2.3
			c0-0.1,0.1-0.3,0.1-0.5c-1.1,1.5-5.5,1.7-5.5,1.7l1-1c-4.2,0-7.1,1.8-8.5,2.7c1.7,0.2,3.3,0.9,4.5,2
			C184.4,66.5,185,66.3,185.6,66.2z"/>
		<path fill="#F99D1C" d="M192.6,66c0,0-4.1-0.3-8.3,1.1c0.6,0.6,1,1.3,1.4,2C187.9,67.8,191,66.2,192.6,66z"/>
		<path fill="#F99D1C" d="M185.9,69.7c0.3,0.7,0.4,1.4,0.5,2.1l3.9-4L185.9,69.7z"/>
	</g>
</g>
</svg>
