<?xml version="1.0" encoding="utf-8"?>
<!-- Generator: Adobe Illustrator 15.1.0, SVG Export Plug-In . SVG Version: 6.00 Build 0)  -->
<!DOCTYPE svg PUBLIC "-//W3C//DTD SVG 1.1//EN" "http://www.w3.org/Graphics/SVG/1.1/DTD/svg11.dtd">
<svg version="1.1" id="Layer_1" xmlns="http://www.w3.org/2000/svg" xmlns:xlink="http://www.w3.org/1999/xlink" x="0px" y="0px"
	 width="72px" height="72px" viewBox="0 0 72 72" enable-background="new 0 0 72 72" xml:space="preserve">
<polygon fill="#2DACE3" points="44.772,31.005 53.712,31.005 53.712,61.056 44.772,61.056 44.772,31.005 "/>
<polygon fill="#2DACE3" points="31.53,39 40.469,39 40.469,61.056 31.53,61.056 31.53,39 "/>
<polygon fill="#2DACE3" points="18.288,46.576 27.228,46.576 27.228,61.056 18.288,61.056 18.288,46.576 "/>
<polygon fill="#CCCCCC" points="55.328,9.684 43.723,12.79 47.142,16.21 37.322,26.032 26.976,26.032 15.791,37.216 17.722,39.146 
	28.109,28.781 38.456,28.781 49.073,18.142 52.243,21.29 55.328,9.684 "/>
<path fill="#CCCCCC" d="M20.66,1.08L20.66,1.08L9.433,12.328h0V70.92h53.136V1.08H20.66z M59.284,67.92H12.716V15.328h11.228V4.08
	h35.341V67.92z"/>
</svg>
