<?xml version="1.0" encoding="utf-8"?>
<!-- Generator: Adobe Illustrator 18.1.1, SVG Export Plug-In . SVG Version: 6.00 Build 0)  -->
<svg version="1.1" id="Layer_1" xmlns="http://www.w3.org/2000/svg" xmlns:xlink="http://www.w3.org/1999/xlink" x="0px" y="0px"
	 viewBox="0 0 150 43.8" enable-background="new 0 0 150 43.8" xml:space="preserve">
<g>
	<g>
		<g>
			<path fill="#78A300" d="M31.7,25c-1.4,0.8-3,1.2-4.5,1.2c-1,0-2-0.2-2.8-0.5c-1.5,1.4-3.1,2.3-4,2.8c1.2,1.9,3.1,3.3,5.4,3.9
				c0.7,0.2,1.4,0.3,2.2,0.3c1.6,0,3.1-0.4,4.4-1.1c0.2-0.7,0.3-1.5,0.3-2.3C32.7,27.8,32.4,26.3,31.7,25z"/>
		</g>
		<g>
			<path fill="#78A300" d="M30.2,13.8c-0.1,0-0.2-0.1-0.3-0.1l0,0C30,13.7,30.1,13.8,30.2,13.8z"/>
			<path fill="#78A300" d="M29.8,13.8c-0.3,1.8-1,3.4-2.1,4.6c0.1,0.3,0.1,0.7,0.1,1c0,2.1-1.1,3.9-2.4,5.4c0.4,0,0.8,0.1,1.2,0.1
				c1.9,0,3.9-0.6,5.5-1.9c1.9-1.5,3-3.6,3.4-5.7c-1.3-1.7-3.1-2.9-5.2-3.4C30.1,13.8,30,13.7,29.8,13.8L29.8,13.8z"/>
		</g>
		<g>
			<path fill="#78A300" d="M28.4,12.2c0-2.4-0.9-4.6-2.4-6.2c0,0-0.1,0-0.1,0c-2.1,0-4,0.8-5.7,2.3c1.6,1.7,2.2,3.9,2.2,6.1
				c0,0.2,0,0.3,0,0.5c0.4-0.1,0.7-0.1,1.1-0.1c0,0,0.1,0,0.1,0c1.4,0,2.8,0.7,3.6,2C27.9,15.5,28.4,13.9,28.4,12.2z"/>
		</g>
		<g>
			<path fill="#78A300" d="M12.3,6.2c-0.1,0-0.3,0-0.3,0c-1.5,1.6-2.3,3.7-2.3,6c0,0,0,0.1,0,0.1c0.1,0,0.2,0,0.3,0
				c2.5,0,4.7,1,6.3,2.5c1.3,0.1,2.7,0.8,3.4,2.2c0.4-0.8,1-1.3,1.6-1.6c0-0.1,0-0.2,0-0.3c0-2.5-1-4.9-3-6.7
				C16.6,7,14.5,6.2,12.3,6.2z"/>
		</g>
		<g>
			<polygon fill="#78A300" points="15.1,15 15.1,15 15.1,15 			"/>
			<path fill="#78A300" d="M14.8,15c-1.3-0.8-2.9-1.2-4.5-1.2c-0.5,0-1,0-1.6,0.1c-2.4,0.4-4.4,1.7-5.6,3.5c0.4,2.1,1.5,4.2,3.3,5.6
				c1.3-1.8,3.2-3,5.2-3.3c0-0.1,0-0.2,0-0.3C11.6,16.9,13.1,15.4,14.8,15z"/>
		</g>
		<g>
			<path fill="#78A300" d="M7,25c-0.7,1.3-1,2.8-1,4.2c0,0.8,0.1,1.7,0.3,2.4c1.3,0.7,2.8,1.1,4.3,1.1c0.7,0,1.4-0.1,2.2-0.3
				c-0.2-0.8-0.3-1.6-0.3-2.4c0-1.9,0.6-3.7,1.7-5.3c-1-1.1-1.9-2.4-2.3-3.9C9.8,21.5,8.1,23,7,25z"/>
		</g>
		<g>
			<polygon fill="#78A300" points="14.5,33.3 14.5,33.3 14.4,33.4 14.5,33.4 			"/>
			<path fill="#78A300" d="M19.4,37.9c2-0.9,3.7-2.5,4.6-4.6c-2.3-0.9-4-2.7-4.8-4.8c-0.7-0.4-2.6-1.4-4.3-3c-0.6,1.3-1,2.7-1,4.1
				c0,1.2,0.2,2.4,0.8,3.6C15.6,35.5,17.4,37.1,19.4,37.9z"/>
			<polygon fill="#78A300" points="14.6,33.3 14.5,33.3 14.5,33.3 			"/>
		</g>
		<g>
			<path fill="#78A300" d="M48.2,27l-7.8,9.2h6.7c0.7,0,1.3,0.6,1.3,1.3c0,0.7-0.6,1.3-1.3,1.3h-9.8c-0.7,0-1.3-0.7-1.3-1.4
				c0-0.3,0.1-0.7,0.4-1l7.8-9.2h-6.8c-0.7,0-1.3-0.6-1.3-1.3c0-0.7,0.6-1.3,1.3-1.3H47c0.9,0,1.5,0.7,1.5,1.5
				C48.5,26.5,48.4,26.8,48.2,27z"/>
			<path fill="#78A300" d="M63.8,32.8c0,0,0,0-10.2,0c0.2,2.2,1.9,3.8,4.3,3.8c1.7,0,3.1-0.7,4.3-1.8c0.2-0.2,0.5-0.3,0.8-0.3
				c0.4,0,0.8,0.2,1,0.5c0.2,0.2,0.3,0.5,0.3,0.8c0,0.4-0.2,0.8-0.5,1.1c-1.4,1.5-3.7,2.5-6,2.5c-4.2,0-7.5-3.4-7.5-7.5
				c0-4.2,3.3-7.5,7.4-7.5c4.1,0,7.2,3.2,7.2,7.5C65,32.3,64.4,32.8,63.8,32.8z M57.7,26.9c-2.2,0-3.7,1.4-4,3.6c5,0,8.1,0,8.1,0
				C61.5,28.5,59.9,26.9,57.7,26.9z"/>
			<path fill="#78A300" d="M97.3,39.2c-0.9,0-1.6-0.7-1.6-1.6v-0.8c-0.9,1.6-2.7,2.5-4.7,2.5c-4.2,0-7.1-3.2-7.1-7.5
				c0-4.3,2.9-7.5,7.1-7.5c2.1,0,3.9,1,4.7,2.5v-8.5c0-0.9,0.7-1.6,1.6-1.6c0.9,0,1.6,0.7,1.6,1.6v19.3C99,38.5,98.2,39.2,97.3,39.2
				z M91.4,27.1c-2.6,0-4.3,2.1-4.3,4.7c0,2.6,1.7,4.7,4.3,4.7c2.6,0,4.3-2,4.3-4.7C95.7,29.1,94.1,27.1,91.4,27.1z"/>
			<path fill="#78A300" d="M115.3,32.8c0,0,0,0-10.2,0c0.2,2.2,1.9,3.8,4.3,3.8c1.7,0,3.1-0.7,4.3-1.8c0.2-0.2,0.5-0.3,0.8-0.3
				c0.4,0,0.8,0.2,1.1,0.5c0.2,0.2,0.3,0.5,0.3,0.8c0,0.4-0.2,0.8-0.5,1.1c-1.4,1.5-3.7,2.5-6,2.5c-4.2,0-7.5-3.4-7.5-7.5
				c0-4.2,3.3-7.5,7.4-7.5c4.1,0,7.2,3.2,7.2,7.5C116.5,32.3,115.9,32.8,115.3,32.8z M109.3,26.9c-2.2,0-3.7,1.4-4,3.6
				c5,0,8.1,0,8.1,0C113,28.5,111.4,26.9,109.3,26.9z"/>
			<path fill="#78A300" d="M124.5,39.3c-1.6,0-3.7-0.5-5.3-1.4c-0.5-0.3-0.8-0.8-0.8-1.2c0-0.2,0.1-0.3,0.1-0.5
				c0.2-0.5,0.6-0.8,1-0.8c0.2,0,0.5,0.1,0.7,0.2c1.2,0.7,2.6,1.2,4,1.2c1.6,0,3.4-0.5,3.4-1.7c0-1-0.9-1.3-4.2-2.5
				c-2.8-1-4.2-2.2-4.2-4.2c0-2.4,2.4-4,5.6-4c2.2,0,3.6,0.5,4.9,1.1c0.6,0.3,0.9,0.7,0.9,1.2c0,0.2,0,0.3-0.1,0.5
				c-0.2,0.5-0.7,0.9-1.2,0.9c-0.2,0-0.3,0-0.5-0.1c-1.2-0.6-2.4-0.9-3.8-0.9c-1.7,0-2.8,0.4-2.8,1.4c0,1.1,0.9,1.3,3.3,2.1
				c3,1,5.1,2,5.1,4.5C130.7,37.3,128.5,39.3,124.5,39.3z"/>
			<path fill="#78A300" d="M145.5,39.1c-0.4,0-0.9-0.2-1.2-0.5l-5.4-6.2l-1.6,1.3v3.8c0,0.9-0.7,1.6-1.6,1.6c-0.9,0-1.6-0.7-1.6-1.6
				V18.3c0-0.9,0.7-1.6,1.6-1.6c0.9,0,1.6,0.7,1.6,1.6V30l6.8-5.3c0.3-0.2,0.6-0.3,0.9-0.3c0.5,0,0.9,0.2,1.2,0.6
				c0.2,0.3,0.4,0.6,0.4,0.9c0,0.5-0.2,0.9-0.6,1.2l-4.6,3.6l5.3,6.1c0.2,0.3,0.4,0.6,0.4,1C146.9,38.5,146.2,39.1,145.5,39.1z"/>
			<path fill="#78A300" d="M74.5,24.2c-3.7,0-6.8,2.9-6.8,6.8v6.7c0,0.9,0.7,1.6,1.6,1.6c0.9,0,1.6-0.7,1.6-1.6v-6.6
				c0-2.2,1.2-4,3.6-4c2.3,0,3.6,1.8,3.6,4v6.6c0,0.9,0.7,1.6,1.6,1.6c0.9,0,1.6-0.7,1.6-1.6V31C81.3,27.1,78.3,24.2,74.5,24.2z"/>
		</g>
	</g>
	<g>
		<path fill="#78A300" d="M143.3,18.3c0-0.9,0.7-1.6,1.6-1.6c0.9,0,1.6,0.7,1.6,1.6c0,0.9-0.7,1.6-1.6,1.6
			C144,19.9,143.3,19.2,143.3,18.3z M146.1,18.3c0-0.7-0.5-1.2-1.2-1.2c-0.7,0-1.2,0.5-1.2,1.2c0,0.7,0.5,1.3,1.2,1.3
			C145.6,19.5,146.1,19,146.1,18.3z M144.3,19v-1.4c0-0.1,0.1-0.2,0.2-0.2h0.6c0.4,0,0.6,0.2,0.6,0.5c0,0.2-0.1,0.4-0.3,0.5l0.2,0.5
			c0,0,0,0.1,0,0.1c0,0.1-0.1,0.2-0.2,0.2c-0.1,0-0.2-0.1-0.2-0.1l-0.3-0.5h-0.3c0,0,0,0,0,0V19c0,0.1-0.1,0.2-0.2,0.2
			C144.3,19.2,144.3,19.1,144.3,19z M145.3,17.9c0-0.1-0.1-0.2-0.3-0.2h-0.3c0,0,0,0,0,0v0.3c0,0,0,0,0,0h0.3
			C145.2,18.1,145.3,18.1,145.3,17.9z"/>
	</g>
</g>
</svg>
